<svg xmlns="http://www.w3.org/2000/svg" width="136.643" height="51.652" viewBox="0 0 136.643 51.652"><g transform="translate(-9 -9)"><rect width="10.33" height="10.33" rx="2.08" transform="translate(27.789 9)" fill="#fff"/><rect width="10.33" height="10.33" rx="2.08" transform="translate(38.12 19.33)" fill="#fff"/><rect width="6.431" height="6.431" rx="1.435" transform="translate(25.715 27.711) rotate(180)" fill="#fff"/><rect width="6.431" height="6.431" rx="1.435" transform="translate(9 31.61)" fill="#fff"/><rect width="10.33" height="10.33" rx="2.08" transform="translate(27.789 29.661)" fill="#fff"/><rect width="10.33" height="10.33" rx="2.08" transform="translate(48.45 29.661)" fill="#fff"/><rect width="6.431" height="6.431" rx="1.435" transform="translate(19.284 41.941)" fill="#fff"/><rect width="10.33" height="10.33" rx="2.08" transform="translate(38.12 39.991)" fill="#fff"/><rect width="10.33" height="10.33" rx="2.08" transform="translate(27.789 50.321)" fill="#fff"/><path d="M50.739,18,71.4,38.661,50.739,59.641" transform="translate(-17.785 -3.835)" fill="none" stroke="#fff" stroke-miterlimit="10" stroke-width="3"/><path d="M60.976,35.838,50.739,46.261,60.976,56.846" transform="translate(-17.785 -11.435)" fill="none" stroke="#fff" stroke-miterlimit="10" stroke-width="3"/><path d="M129.684,40.423a6.974,6.974,0,0,1-1.965,4.877,6.995,6.995,0,0,1-5.013,11.855H108.624V52.921h14.082a2.79,2.79,0,0,0,2.777-2.778,2.759,2.759,0,0,0-2.608-2.777h-9.984V43.132h9.984a2.779,2.779,0,0,0-.135-5.555H108.658V33.344H122.74a6.968,6.968,0,0,1,6.978,6.977Z" transform="translate(-42.449 -10.373)" fill="#fff"/><path d="M154.922,45.021a7.633,7.633,0,0,0,7.621,7.621h9.394v4.234h-9.394a11.855,11.855,0,0,1,0-23.71h9.394V37.4h-9.394A7.632,7.632,0,0,0,154.922,45.021Z" transform="translate(-60.372 -10.297)" fill="#fff"/><path d="M193.858,56.876V33.167h4.234v23.71Z" transform="translate(-78.766 -10.297)" fill="#fff"/><path d="M205.661,56.936h.068l-.068.068Zm23.777-23.71L220.26,45.114,229.4,56.936h-5.352l-6.469-8.366-6.47,8.366h-5.352l9.111-11.821-9.179-11.889h5.352l6.5,8.434,6.5-8.434h5.385ZM229.371,57l-.034-.068h.034Z" transform="translate(-83.796 -10.322)" fill="#fff"/></g></svg>