<svg width="20" height="20" viewBox="0 0 20 20" fill="none" xmlns="http://www.w3.org/2000/svg">
<path d="M1.36627 9.49503V16.652H4.41069L4.56441 16.67C7.39079 17.326 9.26366 17.799 10.1971 18.092C11.4369 18.481 11.8991 18.576 12.7401 18.632C13.3691 18.675 14.0835 18.434 14.409 18.104C14.5889 17.922 14.7235 17.548 14.7768 16.968C14.7878 16.8464 14.8315 16.73 14.9032 16.6309C14.975 16.5319 15.0722 16.4539 15.1847 16.405C15.4349 16.297 15.6429 16.121 15.8167 15.865C15.9774 15.631 16.0819 15.195 16.101 14.564C16.1044 14.448 16.1374 14.3348 16.197 14.2351C16.2566 14.1353 16.3408 14.0524 16.4416 13.994C17.0264 13.657 17.3158 13.277 17.3761 12.831C17.4424 12.338 17.2816 11.783 16.8606 11.151C16.7618 11.0028 16.7251 10.8221 16.7581 10.6473C16.7911 10.4725 16.8913 10.3174 17.0375 10.215C17.4404 9.93303 17.6614 9.54103 17.7167 8.98503C17.8051 8.09903 17.2374 7.44403 15.9523 7.31303C14.8078 7.20036 13.6522 7.29627 12.5422 7.59603C12.4163 7.62878 12.2836 7.62506 12.1597 7.5853C12.0358 7.54554 11.926 7.4714 11.843 7.3716C11.76 7.2718 11.7075 7.1505 11.6914 7.02196C11.6754 6.89342 11.6965 6.763 11.7524 6.64603C12.2548 5.58803 12.5341 4.71503 12.5994 4.03902C12.6849 3.14202 12.4769 2.49202 11.9906 1.95602C11.6218 1.55002 11.032 1.31802 10.811 1.36602C10.5196 1.42802 10.3297 1.59602 10.0825 2.18402C9.93684 2.53202 9.86651 2.82802 9.74594 3.51902C9.63039 4.17502 9.56709 4.47102 9.43547 4.85903C9.03859 6.03503 8.06498 7.25403 6.7578 8.09503C5.84165 8.68375 4.84876 9.1447 3.80683 9.46503C3.74173 9.485 3.67399 9.49512 3.60588 9.49503H1.36627ZM1.32407 18.015C0.999538 18.024 0.708159 17.952 0.464003 17.782C0.152529 17.565 0.00583458 17.223 0.00282032 16.829L0.00583458 9.50603C-0.0283271 9.11603 0.0872198 8.75803 0.360513 8.49203C0.616726 8.24203 0.95131 8.12403 1.30498 8.13203H3.50038C4.38844 7.8504 5.23511 7.45295 6.01829 6.95003C7.07128 6.27203 7.84695 5.30003 8.14335 4.42402C8.24483 4.12202 8.29909 3.87202 8.40158 3.28402C8.54023 2.49502 8.62664 2.12802 8.82558 1.65602C9.23753 0.674019 9.77809 0.194019 10.5236 0.0330184C11.2571 -0.124982 12.3251 0.296019 13.0003 1.04002C13.7489 1.86402 14.0795 2.89502 13.9569 4.16902C13.9046 4.71703 13.7519 5.33003 13.5007 6.01303C14.3586 5.8886 15.2285 5.86979 16.091 5.95703C18.1075 6.16203 19.2399 7.46903 19.0751 9.12103C19.0028 9.83303 18.7435 10.438 18.3024 10.913C18.6732 11.624 18.8209 12.327 18.7285 13.013C18.622 13.803 18.1799 14.461 17.4444 14.972C17.3871 15.665 17.2274 16.218 16.944 16.632C16.7208 16.9665 16.4295 17.2506 16.089 17.466C15.9805 18.15 15.7524 18.685 15.3796 19.061C14.7617 19.687 13.6575 20.06 12.6487 19.992C11.6911 19.928 11.1245 19.812 9.78814 19.392C8.90697 19.115 7.08233 18.655 4.33231 18.015H1.32307H1.32407ZM3.03316 9.18403C3.0329 9.09456 3.05038 9.00593 3.08459 8.92319C3.11881 8.84046 3.1691 8.76526 3.23257 8.7019C3.29604 8.63855 3.37145 8.58828 3.45447 8.55398C3.5375 8.51968 3.62651 8.50203 3.7164 8.50203C3.80612 8.50229 3.89492 8.52014 3.97771 8.55456C4.0605 8.58897 4.13567 8.63928 4.19893 8.70261C4.26219 8.76594 4.31229 8.84105 4.34639 8.92365C4.38048 9.00626 4.39789 9.09473 4.39762 9.18403V16.862C4.39776 16.9513 4.38021 17.0398 4.346 17.1223C4.31179 17.2049 4.26157 17.2799 4.19822 17.3432C4.13487 17.4064 4.05962 17.4566 3.97678 17.4909C3.89394 17.5252 3.80512 17.5429 3.71539 17.543C3.62567 17.5429 3.53685 17.5252 3.45401 17.4909C3.37116 17.4566 3.29592 17.4064 3.23257 17.3432C3.16922 17.2799 3.119 17.2049 3.08479 17.1223C3.05057 17.0398 3.03303 16.9513 3.03316 16.862V9.18403Z" fill="#A2BFF3"/>
</svg>
