<svg width="35" height="34" viewBox="0 0 35 34" fill="none" xmlns="http://www.w3.org/2000/svg">
<path fill-rule="evenodd" clip-rule="evenodd" d="M17.05 0C7.62987 0 0 7.79992 0 17.43C0 25.1428 4.88056 31.6572 11.6579 33.9667C12.5104 34.1192 12.8301 33.5963 12.8301 33.1388C12.8301 32.7248 12.8088 31.3522 12.8088 29.8924C8.525 30.6986 7.41675 28.8249 7.07575 27.8444C6.88394 27.3433 6.05275 25.7964 5.32812 25.3824C4.73137 25.0556 3.87887 24.2495 5.30681 24.2277C6.6495 24.2059 7.60856 25.4914 7.92825 26.0143C9.46275 28.6506 11.9137 27.9098 12.8941 27.4522C13.0432 26.3193 13.4908 25.5567 13.981 25.121C10.1874 24.6852 6.22325 23.1819 6.22325 16.5149C6.22325 14.6194 6.88394 13.0507 7.97087 11.8306C7.80037 11.3949 7.20362 9.60828 8.14137 7.21166C8.14137 7.21166 9.56931 6.75412 12.8301 8.99823C14.1941 8.60606 15.6434 8.40997 17.0926 8.40997C18.5419 8.40997 19.9911 8.60606 21.3551 8.99823C24.6159 6.73234 26.0439 7.21166 26.0439 7.21166C26.9816 9.60828 26.3849 11.3949 26.2144 11.8306C27.3013 13.0507 27.962 14.5976 27.962 16.5149C27.962 23.2037 23.9766 24.6852 20.1829 25.121C20.801 25.6657 21.3338 26.7115 21.3338 28.3455C21.3338 30.6768 21.3125 32.5505 21.3125 33.1388C21.3125 33.5963 21.6322 34.141 22.4847 33.9667C25.8694 32.7985 28.8105 30.5747 30.8941 27.6082C32.9778 24.6417 34.099 21.082 34.1 17.43C34.1 7.79992 26.4701 0 17.05 0Z" fill="black"/>
</svg>
