<svg width="23" height="25" viewBox="0 0 23 25" fill="none" xmlns="http://www.w3.org/2000/svg">
<path d="M19.1667 7.65306C18.2563 7.65306 17.4161 7.33418 16.7581 6.80166L10.1392 11.5816C10.25 12.1889 10.25 12.8111 10.1392 13.4184L16.7581 18.1983C17.4161 17.6658 18.2563 17.3469 19.1667 17.3469C21.2814 17.3469 23 19.0625 23 21.1735C23 23.2844 21.2814 25 19.1667 25C17.0519 25 15.3333 23.2844 15.3333 21.1735C15.3333 20.8036 15.3844 20.4496 15.4835 20.1116L9.19681 15.5676C8.26403 16.8017 6.78181 17.602 5.11111 17.602C2.28722 17.602 0 15.3189 0 12.5C0 9.68112 2.28722 7.39796 5.11111 7.39796C6.78181 7.39796 8.26403 8.19834 9.19681 9.4324L15.4835 4.88839C15.3844 4.55038 15.3333 4.19324 15.3333 3.82653C15.3333 1.71556 17.0519 0 19.1667 0C21.2814 0 23 1.71556 23 3.82653C23 5.9375 21.2814 7.65306 19.1667 7.65306ZM19.1667 22.8316C20.0835 22.8316 20.8278 22.0886 20.8278 21.1735C20.8278 20.2583 20.0835 19.5153 19.1667 19.5153C18.2499 19.5153 17.5056 20.2583 17.5056 21.1735C17.5056 22.0886 18.2499 22.8316 19.1667 22.8316ZM5.11111 9.69388C3.56181 9.69388 2.3 10.9534 2.3 12.5C2.3 14.0466 3.56181 15.3061 5.11111 15.3061C6.66042 15.3061 7.92222 14.0466 7.92222 12.5C7.92222 10.9534 6.66042 9.69388 5.11111 9.69388ZM19.1667 2.16837C18.2499 2.16837 17.5056 2.91135 17.5056 3.82653C17.5056 4.74171 18.2499 5.48469 19.1667 5.48469C20.0835 5.48469 20.8278 4.74171 20.8278 3.82653C20.8278 2.91135 20.0835 2.16837 19.1667 2.16837Z" fill="#1A77F2"/>
</svg>
