<svg width="334" height="257" viewBox="0 0 334 257" fill="none" xmlns="http://www.w3.org/2000/svg">
<path d="M185.398 207.463C186.908 208.129 190.612 208.042 190.612 208.042C190.612 208.042 189.821 205.621 189.748 205.475C188.936 203.779 186.369 200.973 184.281 201.259C183.936 201.316 183.607 201.445 183.315 201.638C183.023 201.83 182.775 202.082 182.587 202.377C182.399 202.672 182.275 203.003 182.223 203.349C182.171 203.694 182.192 204.047 182.286 204.384C182.625 205.827 184.108 206.905 185.398 207.463Z" fill="#263238"/>
<path d="M186.675 218.177C188.244 218.41 191.543 217.453 191.809 217.373C192.348 219.262 193.014 221.113 193.804 222.913C194.256 223.963 194.748 225.014 195.254 226.052L194.635 225.167C193.405 223.744 190.186 221.722 188.244 222.54C187.926 222.687 187.643 222.898 187.412 223.161C187.181 223.424 187.008 223.733 186.904 224.067C186.8 224.401 186.768 224.753 186.808 225.101C186.849 225.449 186.962 225.784 187.14 226.085C187.859 227.415 189.574 228.033 190.964 228.24C192.354 228.446 195.207 227.681 195.952 227.475C196.152 227.867 196.345 228.266 196.544 228.665C197.502 230.567 198.459 232.463 199.351 234.351C199.663 235.016 199.942 235.682 200.235 236.347C199.962 235.954 199.736 235.622 199.696 235.575C198.466 234.152 195.247 232.13 193.305 232.955C192.988 233.101 192.704 233.312 192.474 233.574C192.243 233.837 192.07 234.145 191.966 234.478C191.862 234.812 191.829 235.163 191.869 235.511C191.91 235.858 192.023 236.192 192.201 236.493C192.92 237.823 194.635 238.441 196.025 238.648C197.415 238.854 200.016 238.162 200.88 237.916C201.153 238.581 201.426 239.299 201.658 239.984C201.811 240.45 201.984 240.896 202.111 241.374C202.237 241.853 202.37 242.312 202.496 242.778C202.716 243.675 202.942 244.6 203.161 245.484C203.294 246.103 203.414 246.688 203.534 247.28C203.228 246.615 202.609 245.325 202.543 245.218C201.545 243.629 198.672 241.135 196.63 241.66C196.294 241.754 195.981 241.919 195.712 242.142C195.443 242.366 195.225 242.644 195.071 242.958C194.917 243.272 194.831 243.615 194.819 243.964C194.807 244.314 194.869 244.662 195.001 244.986C195.507 246.382 197.109 247.28 198.453 247.692C199.929 248.145 203.208 247.732 203.62 247.692C203.813 248.67 203.993 249.621 204.152 250.525C204.505 252.521 204.771 254.303 204.97 255.846H206.354C206.114 254.276 205.795 252.414 205.383 250.319C205.183 249.328 204.957 248.271 204.718 247.18C205.704 246.796 206.665 246.352 207.597 245.85C208.681 247.014 211.441 248.384 211.8 248.557C211.421 249.481 211.049 250.379 210.683 251.217C209.918 252.979 209.193 254.542 208.548 255.872H210.045C210.597 254.649 211.202 253.252 211.834 251.709C212.219 250.771 212.612 249.761 213.004 248.723C213.403 248.803 216.648 249.461 218.158 249.122C219.528 248.81 221.191 248.038 221.803 246.681C221.957 246.368 222.045 246.025 222.058 245.675C222.072 245.326 222.012 244.977 221.882 244.652C221.752 244.327 221.556 244.033 221.305 243.789C221.054 243.545 220.754 243.357 220.426 243.236C218.431 242.571 215.378 244.833 214.261 246.349C214.194 246.435 213.596 247.486 213.217 248.151C213.376 247.726 213.536 247.313 213.696 246.874C214.015 246.003 214.308 245.132 214.62 244.214L215.039 242.817C215.192 242.359 215.292 241.847 215.418 241.361C215.691 240.217 215.91 239.047 216.083 237.87C216.841 238.142 219.561 239.093 220.971 238.993C222.381 238.894 224.13 238.375 224.962 237.131C225.163 236.845 225.302 236.519 225.369 236.175C225.436 235.831 225.429 235.477 225.35 235.135C225.271 234.794 225.121 234.473 224.91 234.194C224.698 233.914 224.431 233.682 224.124 233.513C222.255 232.549 218.896 234.331 217.56 235.655C217.48 235.741 216.629 236.799 216.176 237.391C216.283 236.679 216.402 235.967 216.489 235.243C216.748 233.154 216.948 231.033 217.154 228.918C217.214 228.253 217.287 227.588 217.353 226.976C217.626 227.076 220.832 228.273 222.408 228.16C223.811 228.06 225.573 227.548 226.398 226.298C226.598 226.011 226.736 225.686 226.802 225.343C226.869 224.999 226.862 224.646 226.783 224.305C226.704 223.965 226.554 223.645 226.344 223.366C226.133 223.087 225.866 222.856 225.56 222.686C223.685 221.715 220.326 223.498 218.996 224.828C218.89 224.928 217.666 226.451 217.38 226.856C217.533 225.433 217.693 224.017 217.912 222.627C218.196 220.747 218.6 218.888 219.122 217.06C219.249 217.107 222.594 218.39 224.21 218.257C225.613 218.157 227.369 217.639 228.2 216.395C228.402 216.108 228.54 215.782 228.607 215.438C228.674 215.095 228.668 214.74 228.589 214.399C228.51 214.058 228.36 213.737 228.149 213.457C227.937 213.178 227.669 212.946 227.362 212.777C225.494 211.813 222.135 213.595 220.798 214.919C220.692 215.025 219.382 216.668 219.162 216.987C219.196 216.881 219.216 216.768 219.249 216.661C219.825 214.842 220.564 213.08 221.457 211.394C221.936 210.456 222.441 209.585 222.96 208.734C223.558 209.033 226.285 210.363 227.775 210.423C229.264 210.483 230.98 210.164 231.925 209.013C232.156 208.75 232.329 208.442 232.433 208.108C232.538 207.774 232.57 207.422 232.53 207.074C232.489 206.727 232.375 206.392 232.197 206.091C232.018 205.79 231.778 205.531 231.492 205.329C229.737 204.158 226.172 205.561 224.729 206.732C224.649 206.798 223.911 207.537 223.399 208.062C223.632 207.69 223.871 207.297 224.11 206.945C224.988 205.615 225.879 204.457 226.677 203.433C227.13 202.855 227.555 202.343 227.961 201.87C228.699 201.87 231.685 201.764 232.989 201.152C234.292 200.54 235.715 199.443 236.021 197.987C236.106 197.646 236.118 197.292 236.056 196.947C235.994 196.602 235.861 196.274 235.664 195.984C235.466 195.694 235.211 195.449 234.912 195.264C234.614 195.08 234.281 194.961 233.933 194.914C231.838 194.688 229.351 197.574 228.613 199.277C228.546 199.43 227.775 201.87 227.815 201.87H227.861C227.462 202.323 227.043 202.808 226.598 203.347C225.773 204.358 224.862 205.502 223.937 206.812C222.936 208.217 222.018 209.68 221.191 211.194C220.251 212.881 219.466 214.648 218.843 216.475V216.541C218.843 215.93 218.843 214.2 218.81 214.067C218.57 212.199 217.008 208.747 214.933 208.355C214.586 208.3 214.232 208.319 213.894 208.41C213.555 208.502 213.24 208.664 212.968 208.885C212.697 209.107 212.475 209.383 212.317 209.696C212.159 210.009 212.069 210.352 212.053 210.702C211.933 212.185 213.011 213.668 214.048 214.599C215.232 215.657 218.517 216.681 218.777 216.761C218.187 218.637 217.723 220.55 217.387 222.487C217.187 223.618 217.021 224.755 216.868 225.905C216.868 225.367 216.868 224.894 216.868 224.828C216.622 222.959 215.059 219.508 212.991 219.115C212.645 219.061 212.292 219.079 211.954 219.17C211.616 219.261 211.3 219.423 211.029 219.643C210.757 219.864 210.535 220.14 210.377 220.452C210.219 220.764 210.128 221.106 210.111 221.456C209.991 222.939 211.062 224.422 212.106 225.36C213.15 226.298 215.95 227.242 216.688 227.475C216.635 227.914 216.575 228.353 216.522 228.805C216.269 230.92 216.03 233.028 215.724 235.096C215.618 235.821 215.491 236.533 215.358 237.244C215.358 236.772 215.358 236.373 215.358 236.313C215.119 234.445 213.556 230.993 211.481 230.601C211.136 230.546 210.783 230.565 210.445 230.656C210.107 230.747 209.793 230.908 209.521 231.129C209.25 231.35 209.029 231.626 208.871 231.938C208.714 232.25 208.624 232.592 208.608 232.942C208.482 234.425 209.559 235.914 210.603 236.845C211.647 237.776 214.174 238.634 215.052 238.92C214.899 239.645 214.746 240.37 214.567 241.068C214.427 241.541 214.334 242.006 214.168 242.478C214.002 242.951 213.869 243.403 213.722 243.862C213.403 244.733 213.057 245.631 212.758 246.475C212.532 247.061 212.306 247.613 212.093 248.171C212.206 247.453 212.399 246.03 212.405 245.91C212.372 244.253 211.914 242.632 211.075 241.201C211.081 241.017 211.07 240.832 211.042 240.649C210.998 240.303 210.882 239.969 210.701 239.67C210.52 239.371 210.277 239.113 209.99 238.914C209.703 238.714 209.377 238.577 209.034 238.512C208.69 238.447 208.337 238.454 207.996 238.535C205.954 239.073 204.671 242.651 204.571 244.52C204.571 244.633 204.638 245.85 204.691 246.602C204.591 246.163 204.498 245.73 204.385 245.272C204.172 244.367 203.933 243.476 203.68 242.512L203.254 241.122C203.128 240.656 202.929 240.177 202.762 239.698C202.363 238.594 201.898 237.497 201.432 236.406C202.217 236.214 205.01 235.502 206.127 234.644C207.245 233.786 208.428 232.39 208.415 230.9C208.424 230.55 208.359 230.202 208.224 229.879C208.09 229.556 207.89 229.265 207.636 229.024C207.382 228.784 207.08 228.599 206.751 228.482C206.421 228.365 206.07 228.319 205.722 228.346C203.627 228.579 201.811 231.911 201.425 233.76C201.425 233.873 201.279 235.223 201.226 235.967C200.927 235.302 200.634 234.637 200.308 234.006C199.371 232.117 198.366 230.241 197.369 228.359L196.464 226.63C196.744 226.564 200.082 225.792 201.332 224.828C202.45 223.977 203.633 222.573 203.62 221.084C203.63 220.734 203.565 220.386 203.432 220.062C203.298 219.739 203.097 219.447 202.843 219.206C202.589 218.965 202.287 218.78 201.957 218.664C201.627 218.547 201.276 218.502 200.927 218.53C198.832 218.763 197.016 222.095 196.637 223.943C196.604 224.083 196.431 226.025 196.411 226.524C195.746 225.254 195.081 223.983 194.522 222.7C193.721 220.972 193.033 219.195 192.461 217.379C192.594 217.379 196.079 216.555 197.362 215.57C198.479 214.713 199.656 213.316 199.65 211.826C199.659 211.479 199.596 211.134 199.464 210.813C199.332 210.492 199.134 210.202 198.884 209.962C198.633 209.721 198.336 209.536 198.009 209.417C197.683 209.298 197.336 209.249 196.99 209.272C194.895 209.499 193.072 212.837 192.693 214.679C192.693 214.826 192.474 216.92 192.467 217.339C192.467 217.233 192.394 217.127 192.361 217.02C191.843 215.186 191.487 213.31 191.297 211.414C191.177 210.363 191.124 209.359 191.091 208.375C191.756 208.295 194.788 207.889 196.039 207.131C197.289 206.373 198.572 205.136 198.699 203.666C198.746 203.319 198.721 202.966 198.623 202.63C198.526 202.293 198.359 201.981 198.133 201.714C197.908 201.446 197.628 201.229 197.313 201.076C196.998 200.923 196.655 200.838 196.305 200.826C194.196 200.826 192.022 203.945 191.443 205.734C191.41 205.834 191.197 206.858 191.057 207.603C191.057 207.164 191.057 206.705 191.057 206.273C191.057 204.684 191.157 203.22 191.257 201.93C191.323 201.199 191.39 200.534 191.463 199.935C192.075 199.516 194.509 197.794 195.26 196.563C196.012 195.333 196.591 193.63 196.045 192.247C195.929 191.917 195.744 191.615 195.502 191.361C195.261 191.107 194.969 190.907 194.645 190.774C194.321 190.641 193.973 190.578 193.623 190.589C193.272 190.6 192.929 190.684 192.614 190.837C190.738 191.808 190.246 195.572 190.559 197.428C190.559 197.587 191.29 200.048 191.323 200.028H191.363C191.277 200.627 191.197 201.265 191.124 201.964C190.991 203.254 190.858 204.717 190.825 206.313C190.767 208.036 190.807 209.762 190.944 211.48C191.097 213.407 191.418 215.316 191.902 217.187C191.905 217.209 191.905 217.231 191.902 217.253C191.576 216.734 190.572 215.304 190.512 215.205C189.282 213.781 186.063 211.753 184.121 212.578C183.803 212.724 183.52 212.936 183.289 213.199C183.058 213.462 182.885 213.771 182.781 214.105C182.677 214.439 182.644 214.791 182.685 215.139C182.726 215.486 182.839 215.821 183.017 216.122C183.556 217.333 185.285 217.978 186.675 218.177Z" fill="#263238"/>
<path d="M222.794 208.281C222.827 208.281 223.459 205.821 223.492 205.661C223.752 203.799 223.153 200.042 221.258 199.124C220.938 198.981 220.593 198.906 220.243 198.905C219.893 198.905 219.547 198.978 219.227 199.119C218.907 199.261 218.62 199.468 218.386 199.728C218.152 199.988 217.974 200.294 217.866 200.627C217.354 202.023 217.999 203.739 218.764 204.923C219.682 206.306 222.794 208.275 222.794 208.281Z" fill="#263238"/>
<path d="M296.091 61.7713C311.305 58.2475 320.783 43.0569 317.259 27.8422C313.735 12.6275 298.545 3.15013 283.33 6.67392C268.115 10.1977 258.638 25.3883 262.162 40.603C265.685 55.8177 280.876 65.2951 296.091 61.7713Z" stroke="#263238" stroke-miterlimit="10"/>
<path d="M295.635 59.7466C309.739 56.4748 318.521 42.3887 315.249 28.2844C311.977 14.1801 297.891 5.39856 283.787 8.67037C269.682 11.9422 260.901 26.0283 264.173 40.1326C267.444 54.2369 281.531 63.0184 295.635 59.7466Z" stroke="#263238" stroke-miterlimit="10"/>
<path d="M289.711 35.6879C290.523 35.6879 291.181 35.0298 291.181 34.2181C291.181 33.4064 290.523 32.7484 289.711 32.7484C288.899 32.7484 288.241 33.4064 288.241 34.2181C288.241 35.0298 288.899 35.6879 289.711 35.6879Z" fill="#263238"/>
<path d="M276.45 34.2181H289.711V18.0175" stroke="#263238" stroke-linecap="round" stroke-linejoin="round"/>
<path d="M7.717 247.686C7.717 247.686 13.0374 220.711 13.0374 218.583C12.845 212.03 12.1312 205.503 10.9026 199.064C9.13356 189.481 3.80651 165.698 2.38996 161.821C0.973403 157.944 6.2938 150.821 7.71035 142.661C9.12691 134.501 12.3258 126.7 16.5821 121.719C20.8384 116.737 36.1013 105.757 36.1013 105.757H43.8957C43.8957 105.757 41.0559 152.604 44.9598 159.7C48.8636 166.796 55.9663 181.706 56.6779 188.091C57.3895 194.475 53.1465 205.083 53.8714 211.108C54.5963 217.133 48.551 227.069 47.1278 231.339C45.7046 235.608 46.4162 249.082 46.4162 249.082" fill="white"/>
<path d="M7.717 247.686C7.717 247.686 13.0374 220.711 13.0374 218.583C12.845 212.03 12.1312 205.503 10.9026 199.064C9.13356 189.481 3.80651 165.698 2.38996 161.821C0.973403 157.944 6.2938 150.821 7.71035 142.661C9.12691 134.501 12.3258 126.7 16.5821 121.719C20.8384 116.737 36.1013 105.757 36.1013 105.757H43.8957C43.8957 105.757 41.0559 152.604 44.9598 159.7C48.8636 166.796 55.9663 181.706 56.6779 188.091C57.3895 194.475 53.1465 205.083 53.8714 211.108C54.5963 217.133 48.551 227.069 47.1278 231.339C45.7046 235.608 46.4162 249.082 46.4162 249.082" stroke="#263238" stroke-linecap="round" stroke-linejoin="round"/>
<path d="M35.4029 118.839L29.7234 125.436C29.7234 125.436 28.3002 133.038 27.5953 136.583C27.1402 138.79 26.4235 140.936 25.4604 142.974C25.4604 142.974 27.9477 148.653 29.3643 150.781C30.2425 152.11 30.9591 153.539 31.4991 155.038L35.4029 157.525V118.839Z" fill="#263238" stroke="#263238" stroke-linecap="round" stroke-linejoin="round"/>
<path d="M15.7974 143.871C17.6978 143.615 19.6125 143.477 21.5301 143.459" stroke="#263238" stroke-linecap="round" stroke-linejoin="round"/>
<path d="M25.627 122.57C25.627 122.57 29.7237 123.8 29.7237 125.436" stroke="#263238" stroke-linecap="round" stroke-linejoin="round"/>
<path d="M1 252.268C1 252.268 2.77568 235.422 2.77568 233.646V228.326C2.77568 226.557 4.54471 225.227 4.54471 225.227C4.54471 225.227 21.836 221.676 39.1273 227.442C56.4186 233.208 52.4283 242.518 52.4283 242.518L51.5438 255.819" fill="white"/>
<path d="M1 252.268C1 252.268 2.77568 235.422 2.77568 233.646V228.326C2.77568 226.557 4.54471 225.227 4.54471 225.227C4.54471 225.227 21.836 221.676 39.1273 227.442C56.4186 233.208 52.4283 242.518 52.4283 242.518L51.5438 255.819" stroke="#263238" stroke-linecap="round" stroke-linejoin="round"/>
<path d="M246.583 52.8262H40.0053C36.4829 52.8262 33.6274 55.6816 33.6274 59.204V182.025C33.6274 185.548 36.4829 188.403 40.0053 188.403H246.583C250.105 188.403 252.961 185.548 252.961 182.025V59.204C252.961 55.6816 250.105 52.8262 246.583 52.8262Z" fill="white" stroke="#263238" stroke-linecap="round" stroke-linejoin="round"/>
<path d="M238.915 60.2814H47.6669C44.1445 60.2814 41.2891 63.1369 41.2891 66.6592V174.57C41.2891 178.093 44.1445 180.948 47.6669 180.948H238.915C242.437 180.948 245.293 178.093 245.293 174.57V66.6592C245.293 63.1369 242.437 60.2814 238.915 60.2814Z" fill="#F7F7F7" stroke="#263238" stroke-linecap="round" stroke-linejoin="round"/>
<path d="M230.222 65.1695H175.761V100.025H230.222V65.1695Z" fill="white" stroke="#263238" stroke-linecap="round" stroke-linejoin="round"/>
<path d="M230.222 96.1409H175.761V100.025H230.222V96.1409Z" fill="#263238" stroke="#263238" stroke-linecap="round" stroke-linejoin="round"/>
<path d="M230.222 97.5175H175.761V98.6481H230.222V97.5175Z" fill="white" stroke="#263238" stroke-linecap="round" stroke-linejoin="round"/>
<path d="M202.722 90.4121C207.136 90.0399 210.412 86.1599 210.04 81.746C209.668 77.3321 205.788 74.0556 201.374 74.4278C196.96 74.8 193.684 78.6799 194.056 83.0939C194.428 87.5078 198.308 90.7843 202.722 90.4121Z" fill="#4F98E4"/>
<path d="M206.693 82.6005L199.716 78.5769V86.6307L206.693 82.6005Z" fill="white"/>
<path d="M230.222 103.789H175.761V138.644H230.222V103.789Z" fill="white" stroke="#263238" stroke-linecap="round" stroke-linejoin="round"/>
<path d="M230.222 134.76H175.761V138.644H230.222V134.76Z" fill="#263238" stroke="#263238" stroke-linecap="round" stroke-linejoin="round"/>
<path d="M230.222 136.137H175.761V137.268H230.222V136.137Z" fill="white" stroke="#263238" stroke-linecap="round" stroke-linejoin="round"/>
<path d="M202.722 129.035C207.136 128.662 210.412 124.782 210.04 120.368C209.668 115.955 205.788 112.678 201.374 113.05C196.96 113.422 193.684 117.302 194.056 121.716C194.428 126.13 198.308 129.407 202.722 129.035Z" fill="#4F98E4"/>
<path d="M206.693 121.22L199.716 117.19V125.25L206.693 121.22Z" fill="white"/>
<path d="M230.222 142.408H175.761V177.264H230.222V142.408Z" fill="white" stroke="#263238" stroke-linecap="round" stroke-linejoin="round"/>
<path d="M230.222 173.38H175.761V177.264H230.222V173.38Z" fill="#263238" stroke="#263238" stroke-linecap="round" stroke-linejoin="round"/>
<path d="M230.222 174.75H175.761V175.88H230.222V174.75Z" fill="white" stroke="#263238" stroke-linecap="round" stroke-linejoin="round"/>
<path d="M210.568 161.82C211.144 157.435 208.056 153.413 203.671 152.838C199.285 152.262 195.264 155.35 194.688 159.735C194.112 164.12 197.2 168.142 201.585 168.718C205.971 169.294 209.992 166.206 210.568 161.82Z" fill="#4F98E4"/>
<path d="M206.693 159.839L199.716 155.809V163.863L206.693 159.839Z" fill="white"/>
<path d="M157.2 76.7879H64.452C62.3217 76.7879 60.5947 78.5149 60.5947 80.6452V175.036C60.5947 177.166 62.3217 178.893 64.452 178.893H157.2C159.33 178.893 161.057 177.166 161.057 175.036V80.6452C161.057 78.5149 159.33 76.7879 157.2 76.7879Z" fill="url(#paint0_linear_53_1026)" fill-opacity="0.3"/>
<path d="M24.0576 168.917C24.0576 168.917 30.4288 155.038 31.1404 149.717C31.852 144.397 30.4288 131.974 32.2045 127.006C33.9802 122.038 32.9161 115.647 37.1724 113.159C41.4287 110.672 47.1481 111.39 48.179 121.326C49.2098 131.262 48.179 146.877 48.5314 152.205C48.8839 157.532 58.1148 165.333 58.4673 176.692C58.8198 188.051 54.9226 199.756 53.8718 204.73C52.821 209.705 48.5514 221.41 48.5514 221.41" fill="white"/>
<path d="M24.0576 168.917C24.0576 168.917 30.4288 155.038 31.1404 149.717C31.852 144.397 30.4288 131.974 32.2045 127.006C33.9802 122.038 32.9161 115.647 37.1724 113.159C41.4287 110.672 47.1481 111.39 48.179 121.326C49.2098 131.262 48.179 146.877 48.5314 152.205C48.8839 157.532 58.1148 165.333 58.4673 176.692C58.8198 188.051 54.9226 199.756 53.8718 204.73C52.821 209.705 48.5514 221.41 48.5514 221.41" stroke="#263238" stroke-linecap="round" stroke-linejoin="round"/>
<path d="M33.9597 124.652C36.0616 124.14 38.2504 124.096 40.3708 124.525C42.289 124.893 44.1851 125.369 46.0503 125.948C46.2554 123.585 46.2554 121.209 46.0503 118.846C46.0503 118.846 46.5159 114.795 44.0552 113.153C41.5945 111.51 36.6798 111.929 35.0438 115.613C33.4077 119.298 33.9597 124.652 33.9597 124.652Z" stroke="#263238" stroke-linecap="round" stroke-linejoin="round"/>
<path d="M42.8316 131.169C42.8316 131.169 34.6382 128.715 32.5898 131.967" stroke="#263238" stroke-linecap="round" stroke-linejoin="round"/>
<path d="M34.6382 133.217C34.6382 133.217 37.0989 134.035 42.4193 133.63" stroke="#263238" stroke-linecap="round" stroke-linejoin="round"/>
<path d="M248.345 73.4427C248.345 73.4427 239.114 76.2825 239.826 78.7631C240.537 81.2438 257.569 102.539 260.409 101.834C263.249 101.129 266.441 91.858 266.441 85.5067C266.441 79.1555 248.345 73.4427 248.345 73.4427Z" fill="#263238" stroke="#263238" stroke-linecap="round" stroke-linejoin="round"/>
<path d="M323.769 136.11L315.063 125.583C315.063 125.583 303.711 98.9806 300.512 93.6602C297.313 88.3398 290.224 73.0769 287.736 72.3786C285.249 71.6803 281.704 71.3146 280.64 70.6096C279.576 69.9047 275.32 68.4748 269.64 68.1223C263.961 67.7698 252.249 65.2826 247.281 63.866C242.314 62.4494 241.961 63.866 235.922 65.9942C229.884 68.1223 211.788 74.5134 210.371 75.5775C208.955 76.6416 210.724 79.8338 215.339 81.6095C219.955 83.3852 222.083 81.962 227.403 81.257C232.724 80.5521 240.89 79.1222 241.954 79.1222C243.019 79.1222 250.826 80.1863 252.249 80.8979C253.673 81.6095 257.217 87.289 257.217 90.1288C257.168 92.1572 256.93 94.1767 256.506 96.1608L256.359 120.768C256.359 120.768 267.599 133.45 275.38 137.773C283.161 142.096 286.905 142.382 286.905 142.382L299.009 153.621" fill="white"/>
<path d="M323.769 136.11L315.063 125.583C315.063 125.583 303.711 98.9806 300.512 93.6602C297.313 88.3398 290.224 73.0769 287.736 72.3786C285.249 71.6803 281.704 71.3146 280.64 70.6096C279.576 69.9047 275.32 68.4748 269.64 68.1223C263.961 67.7698 252.249 65.2826 247.281 63.866C242.314 62.4494 241.961 63.866 235.922 65.9942C229.884 68.1223 211.788 74.5134 210.371 75.5775C208.955 76.6416 210.724 79.8338 215.339 81.6095C219.955 83.3852 222.083 81.962 227.403 81.257C232.724 80.5521 240.89 79.1222 241.954 79.1222C243.019 79.1222 250.826 80.1863 252.249 80.8979C253.673 81.6095 257.217 87.289 257.217 90.1288C257.168 92.1572 256.93 94.1767 256.506 96.1608L256.359 120.768C256.359 120.768 267.599 133.45 275.38 137.773C283.161 142.096 286.905 142.382 286.905 142.382L299.009 153.621" stroke="#263238" stroke-linecap="round" stroke-linejoin="round"/>
<path d="M280.653 70.5763C282.958 72.9926 284.869 75.755 286.319 78.7631L280.653 70.5763Z" fill="white"/>
<path d="M280.653 70.5763C282.958 72.9926 284.869 75.755 286.319 78.7631" stroke="#263238" stroke-linecap="round" stroke-linejoin="round"/>
<path d="M314.019 176.233L287.031 145.813C287.031 145.813 274.608 140.493 266.415 135.173C258.221 129.852 248.319 112.814 245.831 108.91C243.344 105.006 238.024 97.1983 233.767 94.3585C229.511 91.5188 221.697 82.647 219.921 79.0624C218.145 75.4778 221.344 70.9022 225.241 70.5498C229.139 70.1973 245.472 77.9983 248.312 82.2613C251.152 86.5242 259.372 95.3893 259.372 95.3893" fill="white"/>
<path d="M314.019 176.233L287.031 145.813C287.031 145.813 274.608 140.493 266.415 135.173C258.221 129.852 248.319 112.814 245.831 108.91C243.344 105.006 238.024 97.1983 233.767 94.3585C229.511 91.5188 221.697 82.647 219.921 79.0624C218.145 75.4778 221.344 70.9022 225.241 70.5498C229.139 70.1973 245.472 77.9983 248.312 82.2613C251.152 86.5242 259.372 95.3893 259.372 95.3893" stroke="#263238" stroke-linecap="round" stroke-linejoin="round"/>
<path d="M239.473 82.9928C239.473 82.9928 235.21 87.2558 234.858 89.3839" stroke="#263238" stroke-linecap="round" stroke-linejoin="round"/>
<path d="M242.665 83.3519C242.665 83.3519 239.473 88.3198 237.345 90.0955" stroke="#263238" stroke-linecap="round" stroke-linejoin="round"/>
<path d="M235.922 76.2492C231.307 79.4282 228.114 85.4801 228.114 85.4801C228.114 85.4801 220.526 82.7202 219.948 79.089C219.369 75.4578 220.526 71.8267 225.268 70.5764C230.01 69.3261 235.922 76.2492 235.922 76.2492Z" stroke="#263238" stroke-linecap="round" stroke-linejoin="round"/>
<path d="M323.329 197.514C321.999 195.3 292.292 160.491 290.962 156.062C289.631 151.633 294.952 141.431 303.378 132.12C307.827 127.205 318.907 119.198 325.125 125.729C327.686 128.389 329.854 131.681 332.64 134.341" fill="white"/>
<path d="M323.329 197.514C321.999 195.3 292.292 160.491 290.962 156.062C289.631 151.633 294.952 141.431 303.378 132.12C307.827 127.205 318.907 119.198 325.125 125.729C327.686 128.389 329.854 131.681 332.64 134.341" stroke="#263238" stroke-linecap="round" stroke-linejoin="round"/>
<path d="M135.965 180.795L137.176 161.828C137.546 163.354 138.024 164.852 138.606 166.31C139.217 167.534 151.647 161.828 151.647 161.828C151.647 161.828 148.382 139.821 146.327 131.867C144.272 123.913 143.667 113.525 141.844 112.92C140.022 112.315 116.998 101.508 116.386 101.508C115.774 101.508 103.345 102.705 103.345 102.705L83.167 114.935L86.193 180.775L135.965 180.795Z" fill="white" stroke="#263238" stroke-linecap="round" stroke-linejoin="round"/>
<path d="M119.977 129.852C119.977 130.517 119.917 131.182 119.864 131.807" stroke="#263238" stroke-linecap="round" stroke-linejoin="round"/>
<path d="M118.753 112.302C119.466 117.149 119.883 122.035 120.004 126.933" stroke="#263238" stroke-linecap="round" stroke-linejoin="round"/>
<path d="M134.875 128.163L134.935 124.937" stroke="#263238" stroke-linecap="round" stroke-linejoin="round"/>
<path d="M134.269 160.624L134.834 130.564" stroke="#263238" stroke-linecap="round" stroke-linejoin="round"/>
<path d="M154.148 180.795L152.671 168.385L138.705 171.045L143.48 180.795H154.148Z" fill="white" stroke="#263238" stroke-linecap="round" stroke-linejoin="round"/>
<path d="M136.491 165.279C138.932 164.178 141.3 162.921 143.58 161.515C147.57 159.074 151.341 158.409 152.452 160.405C153.562 162.4 155.996 167.94 155.112 168.831C154.227 169.722 141.146 173.925 139.816 173.925C138.486 173.925 136.052 169.463 136.052 169.463C135.805 168.055 135.957 166.606 136.491 165.279Z" fill="white" stroke="#263238" stroke-linecap="round" stroke-linejoin="round"/>
<path d="M105.791 96.8192C104.655 97.7124 103.628 98.7371 102.732 99.8718C101.986 101.287 101.438 102.797 101.103 104.361L109.868 116.584L115.368 108.025L117.41 106.802L126.168 112.714C126.168 112.714 123.116 102.113 119.85 98.8542C116.585 95.5955 107.627 96.0012 105.791 96.8192Z" fill="white" stroke="#263238" stroke-linecap="round" stroke-linejoin="round"/>
<path d="M116.586 54.3957C116.586 54.3957 121.201 58.0934 121.667 60.1683C122.132 62.2433 120.855 66.8188 120.855 66.8188L114.737 54.8878L116.586 54.3957Z" fill="#263238" stroke="#263238" stroke-linecap="round" stroke-linejoin="round"/>
<path d="M115.168 52.5934C115.168 52.5934 123.521 70.7293 124.745 76.8478C125.969 82.9662 125.357 88.6657 123.116 92.942C120.875 97.2182 118.427 96.613 118.427 96.613V110.473C118.427 110.473 107.627 101.913 107.015 100.896C106.403 99.8784 105.386 98.0429 105.386 98.0429C105.386 98.0429 104.162 89.0714 100.291 86.4245C100.291 86.4245 95.1904 87.2358 93.9733 82.5539C92.7563 77.8719 93.7671 76.2359 97.0259 75.8236C97.0259 75.8236 94.3657 69.0999 93.7672 64.6175C93.1686 60.1351 100.697 58.7052 105.179 55.8522C109.662 52.9991 115.168 52.5934 115.168 52.5934Z" fill="white" stroke="#263238" stroke-linecap="round" stroke-linejoin="round"/>
<path d="M118.428 96.613L114.491 95.0834L118.195 101.94L118.428 96.613Z" fill="#263238" stroke="#263238" stroke-linecap="round" stroke-linejoin="round"/>
<path d="M96.6204 77.2534C96.6204 77.2534 93.9602 76.2359 91.1204 72.5981C88.2806 68.9603 87.4493 66.0806 91.3199 59.9621C95.1905 53.8437 109.07 48.111 112.921 48.7228C116.771 49.3346 119.239 54.2228 114.557 57.282C111.342 59.253 107.833 60.6967 104.162 61.5583C104.162 61.5583 106.403 59.7294 103.956 59.317C101.508 58.9047 96.6403 61.3587 97.026 63.3938C97.4118 65.4288 100.491 64.8236 100.291 68.0491C100.092 71.2746 97.2322 74.7728 98.2497 76.0297C99.2673 77.2867 101.715 78.2709 99.6796 78.8828C97.6445 79.4946 96.6204 77.2534 96.6204 77.2534Z" fill="#263238" stroke="#263238" stroke-linecap="round" stroke-linejoin="round"/>
<path d="M110.886 80.5121L107.827 82.9595" stroke="#263238" stroke-linecap="round" stroke-linejoin="round"/>
<path d="M109.463 82.1415C109.463 82.1415 113.333 85.8126 120.057 82.7534" stroke="#263238" stroke-linecap="round" stroke-linejoin="round"/>
<path d="M110.886 83.3652C111.348 84.2249 111.986 84.9777 112.759 85.5747C113.531 86.1716 114.42 86.5994 115.369 86.8301C118.627 87.6482 116.998 83.9771 116.998 83.9771C116.998 83.9771 112.516 83.9771 110.886 83.3652Z" fill="#263238" stroke="#263238" stroke-linecap="round" stroke-linejoin="round"/>
<path d="M107.381 71.0884C107.7 72.0527 107.607 72.9439 107.181 73.0836C106.756 73.2232 106.15 72.5582 105.851 71.6005C105.552 70.6428 105.625 69.745 106.051 69.6054C106.476 69.4657 107.075 70.1175 107.381 71.0884Z" fill="#263238"/>
<path d="M117.975 68.0292C118.295 68.9935 118.208 69.8847 117.776 70.0244C117.344 70.164 116.745 69.499 116.446 68.5346C116.147 67.5703 116.213 66.6792 116.645 66.5395C117.078 66.3998 117.663 67.0715 117.975 68.0292Z" fill="#263238"/>
<path d="M110.536 66.3763L102.214 69.1285C101.503 69.3638 101.117 70.1312 101.352 70.8426L102.559 74.4922C102.795 75.2036 103.562 75.5896 104.273 75.3543L112.595 72.602C113.307 72.3668 113.693 71.5993 113.457 70.888L112.25 67.2384C112.015 66.527 111.248 66.141 110.536 66.3763Z" stroke="#263238" stroke-linecap="round" stroke-linejoin="round"/>
<path d="M112.063 66.5728L115.03 65.5885" stroke="#263238" stroke-linecap="round" stroke-linejoin="round"/>
<path d="M101.349 70.849L96.0356 76.1029" stroke="#263238" stroke-linecap="round" stroke-linejoin="round"/>
<path d="M125.152 62.5027L121.201 65.8345" stroke="#263238" stroke-linecap="round" stroke-linejoin="round"/>
<path d="M123.988 62.3045L115.666 65.0568C114.954 65.2921 114.568 66.0595 114.803 66.7709L116.01 70.4205C116.246 71.1318 117.013 71.5178 117.725 71.2825L126.047 68.5303C126.758 68.295 127.144 67.5276 126.909 66.8162L125.702 63.1666C125.466 62.4552 124.699 62.0693 123.988 62.3045Z" stroke="#263238" stroke-linecap="round" stroke-linejoin="round"/>
<path d="M102.938 67.6767C102.938 67.6767 105.386 64.6175 109.05 65.0165" stroke="#263238" stroke-width="2" stroke-linecap="round" stroke-linejoin="round"/>
<path d="M114.145 63.3938C114.145 63.3938 115.774 61.7644 118.833 62.5824" stroke="#263238" stroke-width="2" stroke-linecap="round" stroke-linejoin="round"/>
<path d="M114.756 67.2644C114.756 67.2644 120.875 79.089 120.263 79.9003C119.651 80.7117 115.574 79.9003 115.574 79.9003" fill="white"/>
<path d="M114.756 67.2644C114.756 67.2644 120.875 79.089 120.263 79.9003C119.651 80.7117 115.574 79.9003 115.574 79.9003" stroke="#263238" stroke-linecap="round" stroke-linejoin="round"/>
<path d="M85.6142 113.731C85.6142 113.731 82.1493 113.731 81.1318 116.791C80.1142 119.85 70.5375 154.698 71.5551 155.716C72.5726 156.734 85.4147 157.552 86.8512 157.139C88.2877 156.727 94.3796 133.297 94.3796 133.297" fill="white"/>
<path d="M85.6142 113.731C85.6142 113.731 82.1493 113.731 81.1318 116.791C80.1142 119.85 70.5375 154.698 71.5551 155.716C72.5726 156.734 85.4147 157.552 86.8512 157.139C88.2877 156.727 94.3796 133.297 94.3796 133.297" stroke="#263238" stroke-linecap="round" stroke-linejoin="round"/>
<path d="M90.7084 156.328C90.7084 156.328 91.5264 152.251 88.0482 150.622C84.57 148.992 78.8772 149.192 75.4122 151.839C71.9473 154.486 71.3355 153.88 70.5241 158.975C69.7128 164.069 73.1843 167.328 76.0241 167.94C78.8639 168.551 81.3445 169.163 84.7894 165.698C88.2344 162.233 90.7084 156.328 90.7084 156.328Z" fill="white" stroke="#263238" stroke-linecap="round" stroke-linejoin="round"/>
<path d="M112.176 134.867C112.176 134.867 110.753 166.044 105.453 177.663C105.453 177.663 110.547 179.292 118.907 178.481C127.266 177.669 135.001 173.16 135.001 173.16C135.001 173.16 137.854 156.042 139.284 147.682C140.714 139.323 141.525 134.641 141.525 134.641C141.525 134.641 139.689 136.07 129.295 136.682C118.9 137.294 112.176 134.867 112.176 134.867Z" fill="white" stroke="#263238" stroke-linecap="round" stroke-linejoin="round"/>
<path d="M98.8619 160.405C98.8619 160.405 87.044 153.089 85.4146 153.089C83.7852 153.089 78.8905 154.725 76.8554 159.407C74.8204 164.089 75.0199 166.543 77.6668 167.354C80.3137 168.166 97.4387 169.802 99.4737 169.802C101.509 169.802 106.404 170.819 109.257 170.819C112.11 170.819 119.651 170.008 120.669 168.379C121.686 166.749 113.353 167.354 112.722 167.155C112.09 166.955 120.356 165.359 121.487 165.113C122.617 164.867 124.147 163.284 121.893 162.672C121.893 162.672 125.763 160.837 123.316 159.207L111.937 157.212L115.455 156.467C115.455 156.467 123.435 158.596 123.316 156.155C123.276 155.137 116.798 153.096 114.757 153.096C112.715 153.096 101.921 160.411 101.921 160.411L98.8619 160.405Z" fill="white" stroke="#263238" stroke-linecap="round" stroke-linejoin="round"/>
<path d="M121.892 162.646L111.498 161.828" stroke="#263238" stroke-linecap="round" stroke-linejoin="round"/>
<path d="M134.648 52.8262C137.235 55.9995 140.708 58.3308 144.624 59.5232L136.604 73.6489L151.481 60.6339H151.92C159.109 60.6339 165.447 57.5347 169.171 52.8195L134.648 52.8262Z" fill="#263238" stroke="#263238" stroke-linecap="round" stroke-linejoin="round"/>
<path d="M151.634 24.2756C140.168 24.2756 130.864 32.1631 130.864 41.8994C130.864 49.4478 136.471 55.8655 144.338 58.3993L136.324 72.525L151.168 59.51H151.634C163.106 59.51 172.41 51.6225 172.41 41.8928C172.41 32.1631 163.079 24.2756 151.634 24.2756Z" fill="#4F98E4"/>
<path d="M144.265 42.2785C144.265 41.8221 144.13 41.3759 143.876 40.9964C143.622 40.6169 143.262 40.3211 142.84 40.1465C142.419 39.9718 141.955 39.9261 141.507 40.0151C141.059 40.1042 140.648 40.324 140.325 40.6467C140.003 40.9695 139.783 41.3806 139.694 41.8283C139.605 42.276 139.65 42.74 139.825 43.1616C140 43.5833 140.296 43.9437 140.675 44.1973C141.055 44.4509 141.501 44.5862 141.957 44.5862C142.569 44.5862 143.156 44.3431 143.589 43.9103C144.022 43.4775 144.265 42.8906 144.265 42.2785Z" fill="white"/>
<path d="M154.547 42.2785C154.547 41.8221 154.411 41.3759 154.158 40.9964C153.904 40.6169 153.544 40.3211 153.122 40.1465C152.7 39.9718 152.236 39.9261 151.789 40.0151C151.341 40.1042 150.93 40.324 150.607 40.6467C150.284 40.9695 150.065 41.3806 149.975 41.8283C149.886 42.276 149.932 42.74 150.107 43.1616C150.281 43.5833 150.577 43.9437 150.957 44.1973C151.336 44.4509 151.782 44.5862 152.239 44.5862C152.851 44.5862 153.438 44.3431 153.871 43.9103C154.303 43.4775 154.547 42.8906 154.547 42.2785Z" fill="white"/>
<path d="M162.52 44.5862C163.795 44.5862 164.828 43.553 164.828 42.2785C164.828 41.004 163.795 39.9708 162.52 39.9708C161.246 39.9708 160.212 41.004 160.212 42.2785C160.212 43.553 161.246 44.5862 162.52 44.5862Z" fill="white"/>
<path d="M115.169 224.269C117.38 224.269 119.172 222.477 119.172 220.266C119.172 218.055 117.38 216.262 115.169 216.262C112.958 216.262 111.165 218.055 111.165 220.266C111.165 222.477 112.958 224.269 115.169 224.269Z" fill="white"/>
<path d="M115.169 210.15C113.208 210.152 111.29 210.724 109.647 211.796C108.005 212.868 106.71 214.394 105.918 216.189L108.579 218.583C108.956 217.055 109.853 215.705 111.117 214.765C112.38 213.826 113.931 213.355 115.503 213.434C117.076 213.512 118.572 214.135 119.735 215.196C120.899 216.257 121.657 217.69 121.88 219.248L124.6 216.628C123.865 214.723 122.57 213.085 120.887 211.929C119.204 210.773 117.211 210.153 115.169 210.15Z" fill="white"/>
<path d="M104.096 214.56C105.156 212.498 106.77 210.774 108.757 209.58C110.744 208.387 113.024 207.772 115.342 207.805C117.659 207.839 119.921 208.518 121.873 209.768C123.825 211.018 125.389 212.788 126.389 214.879L128.889 212.471C127.523 210.06 125.544 208.051 123.154 206.647C120.763 205.243 118.045 204.494 115.273 204.475C112.501 204.457 109.773 205.169 107.364 206.54C104.954 207.911 102.949 209.892 101.549 212.285L104.096 214.56Z" fill="white"/>
<path fill-rule="evenodd" clip-rule="evenodd" d="M222.674 24.1293V40.6691C222.673 41.504 222.34 42.3041 221.749 42.8938C221.158 43.4835 220.357 43.8148 219.522 43.8148H199.417C198.583 43.8148 197.782 43.4835 197.191 42.8938C196.6 42.3041 196.267 41.504 196.265 40.6691V20.5646C196.265 19.7286 196.597 18.9268 197.188 18.3356C197.78 17.7444 198.581 17.4123 199.417 17.4123H217.374" fill="#1679EA"/>
<path fill-rule="evenodd" clip-rule="evenodd" d="M218.571 24.7611H200.615C200.419 24.7611 200.231 24.8389 200.093 24.9773C199.954 25.1157 199.876 25.3035 199.876 25.4993V35.8275C199.876 36.0233 199.954 36.2111 200.093 36.3495C200.231 36.4879 200.419 36.5657 200.615 36.5657H218.571C218.767 36.5657 218.955 36.4879 219.093 36.3495C219.231 36.2111 219.309 36.0233 219.309 35.8275V25.4993C219.309 25.3035 219.231 25.1157 219.093 24.9773C218.955 24.8389 218.767 24.7611 218.571 24.7611ZM218.81 26.9956L213.084 30.5337L218.185 34.3045C218.256 34.3564 218.315 34.4217 218.36 34.4966C218.405 34.5715 218.435 34.6546 218.448 34.7411C218.461 34.8276 218.457 34.9158 218.436 35.0006C218.415 35.0855 218.377 35.1653 218.325 35.2356C218.264 35.3194 218.184 35.3877 218.091 35.4351C217.999 35.4824 217.897 35.5075 217.793 35.5083C217.649 35.5083 217.509 35.4616 217.394 35.3753L211.861 31.2852L209.812 32.5555L207.405 31.2254L201.778 35.3819C201.665 35.4669 201.528 35.5135 201.386 35.5149C201.245 35.5169 201.107 35.4737 200.991 35.3918C200.876 35.3098 200.79 35.1933 200.746 35.0592C200.701 34.9251 200.701 34.7802 200.744 34.6457C200.787 34.5112 200.873 34.394 200.987 34.3112L206.128 30.5138L200.295 27.275C200.219 27.2313 200.152 27.173 200.098 27.1034C200.044 27.0338 200.005 26.9543 199.981 26.8694C199.958 26.7845 199.952 26.6958 199.963 26.6085C199.974 26.5212 200.002 26.4369 200.046 26.3605C200.09 26.2841 200.148 26.217 200.218 26.1631C200.287 26.1093 200.367 26.0696 200.452 26.0464C200.537 26.0233 200.625 26.0171 200.712 26.0282C200.8 26.0393 200.884 26.0675 200.96 26.1111L209.799 31.0192L218.139 25.8651C218.213 25.8189 218.296 25.788 218.383 25.774C218.469 25.7601 218.558 25.7634 218.643 25.7838C218.729 25.8042 218.809 25.8413 218.88 25.8929C218.951 25.9445 219.011 26.0096 219.056 26.0845C219.1 26.1608 219.128 26.245 219.139 26.3323C219.15 26.4195 219.144 26.5081 219.12 26.5928C219.097 26.6776 219.057 26.7568 219.002 26.8259C218.948 26.8951 218.881 26.9528 218.804 26.9956H218.81Z" fill="white"/>
<path fill-rule="evenodd" clip-rule="evenodd" d="M225.886 19.7333C225.886 18.8125 225.613 17.9125 225.102 17.1469C224.59 16.3814 223.863 15.7847 223.013 15.4323C222.162 15.08 221.226 14.9878 220.323 15.1674C219.42 15.347 218.59 15.7904 217.939 16.4415C217.288 17.0925 216.845 17.922 216.665 18.8251C216.486 19.7281 216.578 20.6642 216.93 21.5148C217.282 22.3655 217.879 23.0925 218.645 23.6041C219.41 24.1156 220.31 24.3886 221.231 24.3886C222.466 24.3886 223.65 23.8982 224.523 23.0251C225.396 22.1521 225.886 20.968 225.886 19.7333Z" fill="#F0AE00"/>
<path fill-rule="evenodd" clip-rule="evenodd" d="M288.467 198.552V215.098C288.466 215.933 288.133 216.733 287.542 217.323C286.951 217.913 286.15 218.244 285.315 218.244H265.217C264.382 218.244 263.582 217.913 262.991 217.323C262.4 216.733 262.067 215.933 262.065 215.098V194.987C262.065 194.151 262.397 193.349 262.988 192.758C263.579 192.167 264.381 191.835 265.217 191.835H283.174" fill="#044A94"/>
<path fill-rule="evenodd" clip-rule="evenodd" d="M291.687 194.156C291.687 193.235 291.414 192.335 290.902 191.569C290.391 190.804 289.664 190.207 288.813 189.855C287.962 189.503 287.026 189.41 286.123 189.59C285.22 189.77 284.391 190.213 283.739 190.864C283.088 191.515 282.645 192.345 282.465 193.248C282.286 194.151 282.378 195.087 282.73 195.937C283.083 196.788 283.679 197.515 284.445 198.027C285.211 198.538 286.111 198.811 287.031 198.811C288.266 198.811 289.45 198.321 290.323 197.448C291.196 196.575 291.687 195.391 291.687 194.156Z" fill="#F0AE00"/>
<path fill-rule="evenodd" clip-rule="evenodd" d="M275.406 196.43C270.691 196.43 266.874 199.696 266.874 203.746C266.905 204.937 267.24 206.101 267.847 207.127C268.455 208.152 269.315 209.005 270.345 209.605L269.959 212.997L273.451 210.835C274.094 210.967 274.749 211.033 275.406 211.035C280.121 211.035 283.945 207.769 283.945 203.719C283.945 199.669 280.121 196.43 275.406 196.43Z" fill="white"/>
<defs>
<linearGradient id="paint0_linear_53_1026" x1="110.702" y1="80.4607" x2="110.826" y2="178.893" gradientUnits="userSpaceOnUse">
<stop stop-color="#1A77F2"/>
<stop offset="1" stop-color="#4F98E4"/>
</linearGradient>
</defs>
</svg>
