<svg xmlns="http://www.w3.org/2000/svg" width="339.97" height="220.5" viewBox="0 0 339.97 220.5">
  <g id="undraw_Notify_re_65on_1" data-name="undraw_Notify_re_65on 1" transform="translate(0 -0.016)">
    <path id="Path_74476" data-name="Path 74476" d="M238.547,174.681l-9.71-29.315s10.68,10.685,10.68,19.452L237.6,144.544a30.941,30.941,0,0,1,4.929,18.63C241.983,174.406,238.547,174.681,238.547,174.681Z" transform="translate(71.541 45.183)" fill="#e6e6e6"/>
    <path id="Path_74477" data-name="Path 74477" d="M79.636,154.173l-9.476-28.611s10.424,10.429,10.424,18.985L78.712,124.76a30.206,30.206,0,0,1,4.811,18.182C82.988,153.906,79.636,154.173,79.636,154.173Z" transform="translate(21.934 38.998)" fill="#e6e6e6"/>
    <path id="Path_74478" data-name="Path 74478" d="M229.459,162.667c.016,18.82-37.3,13.03-82.974,13.07S64.059,181.63,64.043,162.81,101.325,139.864,147,139.823,229.443,143.846,229.459,162.667Z" transform="translate(20.022 43.707)" fill="#e6e6e6"/>
    <path id="Path_74479" data-name="Path 74479" d="M339.97,167.175H0v.861H339.97Z" transform="translate(0 52.258)" fill="#3f3d56"/>
    <path id="Path_74480" data-name="Path 74480" d="M167.772,143.35H161.8l-2.843-23.044h8.814Z" transform="translate(49.694 37.606)" fill="#ffc7cf"/>
    <path id="Path_74481" data-name="Path 74481" d="M158.938,136.562h12.181v7.255H152.35v-.664a6.588,6.588,0,0,1,6.588-6.591Z" transform="translate(47.629 42.688)" fill="#2f2e41"/>
    <path id="Path_74482" data-name="Path 74482" d="M201.213,169.261h-5.972L192.4,146.218h8.814Z" transform="translate(60.149 45.706)" fill="#ffc7cf"/>
    <path id="Path_74483" data-name="Path 74483" d="M192.379,162.473h12.18v7.255H185.791v-.664a6.59,6.59,0,0,1,6.588-6.591Z" transform="translate(58.083 50.788)" fill="#2f2e41"/>
    <path id="Path_74484" data-name="Path 74484" d="M225.811,126.676a4.443,4.443,0,0,0-1.246-6.7L210.7,63.455l-8.868,3.817,16.5,54.655a4.464,4.464,0,0,0,7.487,4.749Z" transform="translate(63.096 19.833)" fill="#ffc7cf"/>
    <path id="Path_74485" data-name="Path 74485" d="M218.756,24.948a4.9,4.9,0,0,0-7.5.5L189.793,27.91l3.266,8.284,19.524-3.656a4.926,4.926,0,0,0,6.173-7.59Z" transform="translate(59.334 7.321)" fill="#ffc7cf"/>
    <path id="Path_74486" data-name="Path 74486" d="M184.906,108.691l9.368,70.337,11.659-2.4s-1.714-51.225,4.115-57.4-7.5-16.993-7.5-16.993Z" transform="translate(57.806 31.956)" fill="#2f2e41"/>
    <path id="Path_74487" data-name="Path 74487" d="M197.4,94.094l-4.3,6.458s-33.136-13.777-33.136,8.18-1.9,36.857-2.582,37.886,7.935,3.7,12.05,3.014c0,0,5.076-35.4,4.733-37.456,0,0,32.506,15.943,38.678,14.571s7.632-6.231,8.659-8.974-.429-24.541-.429-24.541l-20.575-6.282Z" transform="translate(49.188 27.178)" fill="#2f2e41"/>
    <path id="Path_74488" data-name="Path 74488" d="M190.877,74.742l-1.226-1.473S175.913,42.345,181.309,34s28.949-9.572,29.685-9.081-1.759,6.864-.041,9.809c0,0-18.244,3.957-19.471,4.448s9.454,18.631,9.454,18.631l-1.227,11.044Z" transform="translate(56.289 7.756)" fill="#ccc"/>
    <path id="Path_74489" data-name="Path 74489" d="M213.666,51.671s-12.757,1.473-13.247,1.473-.736-3.191-.736-3.191L188.4,65.415s-5.56,44.857-4.089,44.121,28.621,3.492,28.866,1.529-.245-11.781.491-12.272,12.756-30.924,12.756-30.924-1.226-6.381-5.4-8.59S213.666,51.671,213.666,51.671Z" transform="translate(57.542 15.611)" fill="#ccc"/>
    <path id="Path_74490" data-name="Path 74490" d="M215.5,60.423,219.43,64.6s5.832,47.944,2.644,49.417-9.468,1.292-9.468,1.292l-6.177-22.729Z" transform="translate(64.535 18.885)" fill="#ccc"/>
    <path id="Path_74491" data-name="Path 74491" d="M199.966,54.329a11.3,11.3,0,1,0-11.293-11.3A11.294,11.294,0,0,0,199.966,54.329Z" transform="translate(58.984 9.916)" fill="#ffc7cf"/>
    <path id="Path_74492" data-name="Path 74492" d="M198.242,46.643c-.152-2.344-3.108-2.424-5.455-2.446s-5.155.062-6.483-1.875a4.377,4.377,0,0,1,.014-4.429,12.578,12.578,0,0,1,3.093-3.443,42.83,42.83,0,0,1,9.791-6.9c3.637-1.678,7.9-2.356,11.674-1.009,4.635,1.655,10.9,10.172,11.441,15.065a17.754,17.754,0,0,1-4.708,13.538c-3.3,3.657-10.837,2.181-15.583,3.482,2.885-4.086.983-11.509-3.639-13.417Z" transform="translate(58.057 8.069)" fill="#2f2e41"/>
    <path id="Path_74493" data-name="Path 74493" d="M125.046,165.924A27.119,27.119,0,1,0,97.939,138.8,27.113,27.113,0,0,0,125.046,165.924Z" transform="translate(30.618 34.911)" fill="#098ce7"/>
    <path id="Path_74494" data-name="Path 74494" d="M119.8,144.67a19.436,19.436,0,0,1-17.754-11.531L59.032,36.229a25.749,25.749,0,1,1,48.142-18.024l31.146,101.352A19.4,19.4,0,0,1,119.8,144.67Z" transform="translate(17.762 0)" fill="#098ce7"/>
  </g>
</svg>
