<svg width="34" height="34" viewBox="0 0 34 34" fill="none" xmlns="http://www.w3.org/2000/svg">
<path d="M13.5203 15.4176C13.8504 15.1786 14.0098 14.7839 14.0098 14.2413C14.0212 13.9833 13.9681 13.729 13.8542 13.4975C13.7518 13.3116 13.6 13.156 13.4141 13.046C13.2213 12.9291 13.0071 12.8517 12.7842 12.8183C12.5413 12.7728 12.2946 12.75 12.0518 12.7538H9.38415V15.7781H12.2719C12.769 15.7819 13.1902 15.6605 13.5203 15.4176ZM13.9681 18.1498C13.5962 17.8652 13.0991 17.7248 12.4806 17.7248H9.37656V21.2917H12.4199C12.7045 21.2917 12.9663 21.2652 13.2205 21.2121C13.4611 21.165 13.6904 21.0723 13.896 20.9388C14.0895 20.8136 14.2451 20.6429 14.3627 20.4228C14.4766 20.2027 14.5335 19.9219 14.5335 19.5842C14.5335 18.9125 14.3438 18.4382 13.9681 18.1498ZM17 0C7.61205 0 0 7.61205 0 17C0 26.3879 7.61205 34 17 34C26.3879 34 34 26.3879 34 17C34 7.61205 26.3879 0 17 0ZM20.2824 10.8868H25.5342V12.1656H20.2824V10.8868ZM17 21.4321C16.7544 21.8984 16.4036 22.3012 15.9754 22.6085C15.5277 22.9196 15.0306 23.1473 14.5031 23.2801C13.9513 23.428 13.382 23.5008 12.8107 23.4964H6.52679V10.5529H12.6362C13.2547 10.5529 13.8163 10.6098 14.3286 10.7161C14.8371 10.8223 15.2696 11.0045 15.6339 11.2511C15.9944 11.4978 16.279 11.8279 16.4801 12.2377C16.6775 12.6438 16.7799 13.1522 16.7799 13.7556C16.7799 14.4083 16.6319 14.9471 16.3359 15.3835C16.0362 15.8199 15.6036 16.1728 15.0154 16.4498C15.8161 16.6775 16.4042 17.0835 16.7913 17.6527C17.1859 18.2295 17.3795 18.9201 17.3795 19.7321C17.3795 20.3924 17.2542 20.9578 17 21.4321ZM27.5795 19.4286H20.8098C20.8098 20.1647 21.0641 20.8705 21.4473 21.25C21.8344 21.6257 22.3884 21.8154 23.1132 21.8154C23.6368 21.8154 24.0808 21.6826 24.4603 21.4208C24.8359 21.1589 25.0636 20.8819 25.1471 20.5935H27.4163C27.052 21.7205 26.498 22.525 25.7467 23.0107C25.0029 23.4964 24.0922 23.7393 23.0335 23.7393C22.2935 23.7393 21.6295 23.6179 21.0337 23.3864C20.4607 23.1625 19.9446 22.821 19.5196 22.3808C19.1006 21.9288 18.7767 21.3971 18.5672 20.8174C18.3357 20.1761 18.2219 19.5007 18.2295 18.8214C18.2295 18.1194 18.3471 17.4667 18.5748 16.8596C19.0112 15.6795 19.9181 14.7346 21.0754 14.2451C21.694 13.9871 22.358 13.858 23.0297 13.8656C23.8266 13.8656 24.5172 14.0174 25.1167 14.3286C25.6939 14.6257 26.1951 15.0515 26.5815 15.5732C26.9647 16.0931 27.2342 16.685 27.4049 17.3529C27.5681 18.0094 27.625 18.7 27.5795 19.4286ZM22.95 15.8009C22.5402 15.8009 22.1949 15.873 21.9292 16.0134C21.6636 16.1538 21.4435 16.3283 21.2766 16.5295C21.1176 16.7236 21 16.9484 20.9312 17.1897C20.8705 17.3908 20.8288 17.5958 20.8136 17.8045H25.0067C24.946 17.148 24.7183 16.6623 24.4147 16.3208C24.096 15.983 23.5837 15.8009 22.95 15.8009Z" fill="#1E8AFB"/>
</svg>
