<svg width="28" height="6" viewBox="0 0 28 6" fill="none" xmlns="http://www.w3.org/2000/svg">
<path d="M22 2.75C22 4.26878 23.2312 5.5 24.75 5.5C26.2688 5.5 27.5 4.26878 27.5 2.75C27.5 1.23122 26.2688 -5.38182e-08 24.75 -1.20206e-07C23.2312 -1.86594e-07 22 1.23122 22 2.75Z" fill="#B7B4B4"/>
<path d="M11 2.75C11 4.26878 12.2312 5.5 13.75 5.5C15.2688 5.5 16.5 4.26878 16.5 2.75C16.5 1.23122 15.2688 -5.38182e-08 13.75 -1.20206e-07C12.2312 -1.86594e-07 11 1.23122 11 2.75Z" fill="#B7B4B4"/>
<path d="M-1.20206e-07 2.75C-1.86594e-07 4.26878 1.23122 5.5 2.75 5.5C4.26878 5.5 5.5 4.26878 5.5 2.75C5.5 1.23122 4.26878 -5.38182e-08 2.75 -1.20206e-07C1.23122 -1.86594e-07 -5.38182e-08 1.23122 -1.20206e-07 2.75Z" fill="#B7B4B4"/>
</svg>
