<svg width="17" height="16" viewBox="0 0 17 16" fill="none" xmlns="http://www.w3.org/2000/svg">
<path fill-rule="evenodd" clip-rule="evenodd" d="M15.5551 10.0635C15.8885 10.088 16.1379 10.3733 16.1128 10.6996L15.9595 12.6823C15.8328 14.318 14.4228 15.599 12.748 15.599H3.38557C1.71082 15.599 0.300809 14.318 0.174093 12.6823L0.0207426 10.6996C-0.00427766 10.3733 0.245925 10.088 0.579261 10.0635C0.91421 10.0517 1.20315 10.2832 1.22898 10.6103L1.38152 12.5922C1.46062 13.6132 2.34037 14.4137 3.38557 14.4137H12.748C13.7932 14.4137 14.6738 13.6132 14.7521 12.5922L14.9054 10.6103C14.9312 10.2832 15.2274 10.0509 15.5551 10.0635ZM9.10812 0C10.3212 0 11.3261 0.889995 11.4775 2.03799L13.0671 2.03868C14.7588 2.03868 16.1341 3.38917 16.1341 5.05021V7.76777C16.1341 7.97875 16.0195 8.17315 15.8346 8.27904C13.8424 9.42129 11.3188 10.0875 8.67199 10.1764L8.67228 11.5977C8.67228 11.9249 8.40109 12.1904 8.06695 12.1904C7.73281 12.1904 7.46162 11.9249 7.46162 11.5977L7.4611 10.1766C4.81696 10.0885 2.29312 9.42215 0.299437 8.27904C0.113802 8.17315 0 7.97875 0 7.76777V5.0423C0 3.38601 1.37935 2.03868 3.07508 2.03868L4.65645 2.03799C4.80781 0.889995 5.81275 0 7.02578 0H9.10812ZM13.0671 3.22401H3.07508C2.04682 3.22401 1.21066 4.03952 1.21066 5.0423V7.42244C3.1265 8.44163 5.54178 9.00022 8.05573 9.00129L8.06695 9.00027L8.07591 9.00058L8.46022 8.99667C10.8378 8.94121 13.1059 8.38892 14.9234 7.42244V5.05021C14.9234 4.04268 14.0913 3.22401 13.0671 3.22401ZM9.10812 1.18533H7.02578C6.48232 1.18533 6.02357 1.54746 5.88805 2.03819H10.2459C10.1103 1.54746 9.65158 1.18533 9.10812 1.18533Z" fill="#AEB0B2"/>
</svg>
