<svg width="14" height="18" viewBox="0 0 14 18" fill="none" xmlns="http://www.w3.org/2000/svg">
<path d="M12.7275 6.99093C12.7275 5.47393 12.1241 4.01907 11.05 2.94638C9.97588 1.8737 8.51911 1.27108 7.00011 1.27108C5.48112 1.27108 4.02434 1.8737 2.95025 2.94638C1.87616 4.01907 1.27275 5.47393 1.27275 6.99093C1.27275 9.33734 3.1526 12.3956 7.00011 16.0588C10.8476 12.3956 12.7275 9.33734 12.7275 6.99093ZM7.00011 17.7951C2.33295 13.5586 0 9.95636 0 6.99093C0 5.13682 0.73751 3.35865 2.05029 2.0476C3.36306 0.736543 5.14357 0 7.00011 0C8.85666 0 10.6372 0.736543 11.9499 2.0476C13.2627 3.35865 14.0002 5.13682 14.0002 6.99093C14.0002 9.95636 11.6673 13.5586 7.00011 17.7951Z" fill="#AEB0B2"/>
<path d="M7.0006 8.89755C7.50693 8.89755 7.99252 8.69667 8.35055 8.33911C8.70858 7.98155 8.90972 7.49659 8.90972 6.99093C8.90972 6.48526 8.70858 6.00031 8.35055 5.64275C7.99252 5.28519 7.50693 5.08431 7.0006 5.08431C6.49426 5.08431 6.00867 5.28519 5.65064 5.64275C5.29261 6.00031 5.09147 6.48526 5.09147 6.99093C5.09147 7.49659 5.29261 7.98155 5.65064 8.33911C6.00867 8.69667 6.49426 8.89755 7.0006 8.89755ZM7.0006 10.1686C6.15671 10.1686 5.34739 9.83383 4.75067 9.2379C4.15396 8.64196 3.81873 7.83371 3.81873 6.99093C3.81873 6.14815 4.15396 5.33989 4.75067 4.74396C5.34739 4.14802 6.15671 3.81323 7.0006 3.81323C7.84448 3.81323 8.6538 4.14802 9.25052 4.74396C9.84723 5.33989 10.1825 6.14815 10.1825 6.99093C10.1825 7.83371 9.84723 8.64196 9.25052 9.2379C8.6538 9.83383 7.84448 10.1686 7.0006 10.1686Z" fill="#AEB0B2"/>
</svg>
