<svg width="25" height="14" viewBox="0 0 25 14" fill="none" xmlns="http://www.w3.org/2000/svg">
<path d="M23.4591 0H0.756744C0.556043 0 0.363562 0.101009 0.221645 0.280807C0.0797281 0.460605 0 0.704463 0 0.958735C0 1.21301 0.0797281 1.45687 0.221645 1.63666C0.363562 1.81646 0.556043 1.91747 0.756744 1.91747H23.4591C23.6598 1.91747 23.8523 1.81646 23.9942 1.63666C24.1361 1.45687 24.2158 1.21301 24.2158 0.958735C24.2158 0.704463 24.1361 0.460605 23.9942 0.280807C23.8523 0.101009 23.6598 0 23.4591 0Z" fill="#02A0FC"/>
<path d="M19.6753 5.75244H4.54044C4.33973 5.75244 4.14725 5.85345 4.00534 6.03325C3.86342 6.21305 3.78369 6.4569 3.78369 6.71118C3.78369 6.96545 3.86342 7.20931 4.00534 7.38911C4.14725 7.5689 4.33973 7.66991 4.54044 7.66991H19.6753C19.876 7.66991 20.0685 7.5689 20.2104 7.38911C20.3523 7.20931 20.4321 6.96545 20.4321 6.71118C20.4321 6.4569 20.3523 6.21305 20.2104 6.03325C20.0685 5.85345 19.876 5.75244 19.6753 5.75244Z" fill="#02A0FC"/>
<path d="M15.8911 11.5049H8.32364C8.12294 11.5049 7.93046 11.6059 7.78854 11.7857C7.64662 11.9655 7.56689 12.2093 7.56689 12.4636C7.56689 12.7179 7.64662 12.9617 7.78854 13.1415C7.93046 13.3213 8.12294 13.4224 8.32364 13.4224H15.8911C16.0918 13.4224 16.2843 13.3213 16.4262 13.1415C16.5681 12.9617 16.6478 12.7179 16.6478 12.4636C16.6478 12.2093 16.5681 11.9655 16.4262 11.7857C16.2843 11.6059 16.0918 11.5049 15.8911 11.5049Z" fill="#02A0FC"/>
</svg>
