<svg width="14" height="17" viewBox="0 0 14 17" fill="none" xmlns="http://www.w3.org/2000/svg">
<path d="M13 8.032L7.32667 14.7203C6.63165 15.5397 5.68899 16 4.70608 16C3.72317 16 2.78051 15.5397 2.08549 14.7203C1.39046 13.9009 1 12.7896 1 11.6309C1 10.4721 1.39046 9.36081 2.08549 8.54144L7.75881 1.85312C8.22216 1.30688 8.8506 1 9.50587 1C10.1611 1 10.7896 1.30688 11.2529 1.85312C11.7163 2.39937 11.9766 3.14024 11.9766 3.91275C11.9766 4.68526 11.7163 5.42613 11.2529 5.97237L5.57344 12.6607C5.34176 12.9338 5.02754 13.0873 4.69991 13.0873C4.37227 13.0873 4.05805 12.9338 3.82638 12.6607C3.5947 12.3876 3.46455 12.0171 3.46455 11.6309C3.46455 11.2446 3.5947 10.8742 3.82638 10.6011L9.06756 4.42947" stroke="#1A77F2" stroke-linecap="round" stroke-linejoin="round"/>
</svg>
