<svg width="29" height="28" viewBox="0 0 29 28" fill="none" xmlns="http://www.w3.org/2000/svg">
<path fill-rule="evenodd" clip-rule="evenodd" d="M14.0412 0C6.28343 0 0 6.42347 0 14.3541C0 20.7058 4.01929 26.0707 9.60065 27.9726C10.3027 28.0982 10.566 27.6676 10.566 27.2908C10.566 26.9498 10.5484 25.8195 10.5484 24.6173C7.02059 25.2812 6.10791 23.7381 5.82709 22.9307C5.66912 22.518 4.98462 21.2441 4.38787 20.9032C3.89643 20.634 3.19437 19.9702 4.37032 19.9522C5.47606 19.9343 6.26587 20.9929 6.52915 21.4235C7.79285 23.5946 9.81127 22.9845 10.6186 22.6077C10.7415 21.6747 11.1101 21.0467 11.5138 20.6879C8.3896 20.329 5.12503 19.091 5.12503 13.6005C5.12503 12.0395 5.66912 10.7476 6.56425 9.74285C6.42384 9.384 5.9324 7.9127 6.70466 5.93901C6.70466 5.93901 7.88061 5.56222 10.566 7.41031C11.6893 7.08734 12.8828 6.92586 14.0763 6.92586C15.2698 6.92586 16.4633 7.08734 17.5866 7.41031C20.2719 5.54428 21.4479 5.93901 21.4479 5.93901C22.2202 7.9127 21.7287 9.384 21.5883 9.74285C22.4834 10.7476 23.0275 12.0216 23.0275 13.6005C23.0275 19.1089 19.7454 20.329 16.6212 20.6879C17.1302 21.1364 17.569 21.9977 17.569 23.3434C17.569 25.2632 17.5515 26.8063 17.5515 27.2908C17.5515 27.6676 17.8147 28.1161 18.5168 27.9726C21.3042 27.0105 23.7263 25.1791 25.4422 22.7362C27.1581 20.2932 28.0815 17.3616 28.0824 14.3541C28.0824 6.42347 21.7989 0 14.0412 0Z" fill="black"/>
</svg>
