<svg width="19" height="16" viewBox="0 0 19 16" fill="none" xmlns="http://www.w3.org/2000/svg">
<path d="M0 4.8608V12.8C0 13.6487 0.33363 14.4626 0.927495 15.0627C1.52136 15.6629 2.32681 16 3.16667 16H15.8333C16.6732 16 17.4786 15.6629 18.0725 15.0627C18.6664 14.4626 19 13.6487 19 12.8V3.2C19 2.35131 18.6664 1.53737 18.0725 0.937258C17.4786 0.337142 16.6732 0 15.8333 0H3.16667C2.32681 0 1.52136 0.337142 0.927495 0.937258C0.33363 1.53737 0 2.35131 0 3.2V4.8608ZM3.16667 1.6H15.8333C16.2533 1.6 16.656 1.76857 16.9529 2.06863C17.2499 2.36869 17.4167 2.77565 17.4167 3.2V4.384L9.5 8.6912L1.58333 4.384V3.2C1.58333 2.77565 1.75015 2.36869 2.04708 2.06863C2.34401 1.76857 2.74674 1.6 3.16667 1.6ZM1.58333 6.2016L9.12475 10.304C9.24008 10.3667 9.36902 10.3996 9.5 10.3996C9.63098 10.3996 9.75992 10.3667 9.87525 10.304L17.4167 6.2016V12.8C17.4167 13.2243 17.2499 13.6313 16.9529 13.9314C16.656 14.2314 16.2533 14.4 15.8333 14.4H3.16667C2.74674 14.4 2.34401 14.2314 2.04708 13.9314C1.75015 13.6313 1.58333 13.2243 1.58333 12.8V6.2016Z" fill="#1A77F2"/>
</svg>
