<svg width="13" height="16" viewBox="0 0 13 16" fill="none" xmlns="http://www.w3.org/2000/svg">
<path d="M0 2.00003C0 1.46959 0.228273 0.960875 0.634602 0.585796C1.04093 0.210717 1.59203 0 2.16667 0L10.8333 0C11.408 0 11.9591 0.210717 12.3654 0.585796C12.7717 0.960875 13 1.46959 13 2.00003V15.5003C12.9999 15.5907 12.9733 15.6794 12.923 15.757C12.8726 15.8346 12.8004 15.8981 12.714 15.9408C12.6276 15.9835 12.5303 16.0038 12.4325 15.9994C12.3346 15.9951 12.2398 15.9664 12.1582 15.9163L6.5 13.1012L0.84175 15.9163C0.760181 15.9664 0.665416 15.9951 0.567549 15.9994C0.469682 16.0038 0.372378 15.9835 0.285999 15.9408C0.199621 15.8981 0.127404 15.8346 0.0770402 15.757C0.026676 15.6794 5.06138e-05 15.5907 0 15.5003V2.00003ZM2.16667 1.00002C1.87935 1.00002 1.6038 1.10537 1.40063 1.29291C1.19747 1.48045 1.08333 1.73481 1.08333 2.00003V14.5662L6.19992 12.0842C6.28882 12.0296 6.39322 12.0005 6.5 12.0005C6.60678 12.0005 6.71118 12.0296 6.80008 12.0842L11.9167 14.5662V2.00003C11.9167 1.73481 11.8025 1.48045 11.5994 1.29291C11.3962 1.10537 11.1207 1.00002 10.8333 1.00002H2.16667Z" fill="#1A77F2"/>
</svg>
