<svg xmlns="http://www.w3.org/2000/svg" xmlns:xlink="http://www.w3.org/1999/xlink" width="816.997" height="675.424" viewBox="0 0 816.997 675.424">
  <defs>
    <linearGradient id="linear-gradient" x1="-13.852" y1="3.512" x2="-13.852" y2="2.512" gradientUnits="objectBoundingBox">
      <stop offset="0" stop-color="gray" stop-opacity="0.251"/>
      <stop offset="0.54" stop-color="gray" stop-opacity="0.122"/>
      <stop offset="1" stop-color="gray" stop-opacity="0.102"/>
    </linearGradient>
    <linearGradient id="linear-gradient-2" x1="-14.487" y1="3.972" x2="-14.487" y2="2.972" xlink:href="#linear-gradient"/>
    <linearGradient id="linear-gradient-3" x1="-15.813" y1="3.547" x2="-15.813" y2="2.547" xlink:href="#linear-gradient"/>
    <linearGradient id="linear-gradient-4" x1="-16.199" y1="3.374" x2="-16.199" y2="2.375" xlink:href="#linear-gradient"/>
    <linearGradient id="linear-gradient-5" x1="0.5" y1="1" x2="0.5" y2="0" xlink:href="#linear-gradient"/>
  </defs>
  <g id="Group_21787" data-name="Group 21787" transform="translate(4071.998 -5506.5)">
    <g id="Group_21764" data-name="Group 21764" transform="translate(17634 -5235.686)">
      <path id="Intersection_4" data-name="Intersection 4" d="M1093.322,701.011q-12.817-7.042-24.925-14.594a333.49,333.49,0,0,1-32.378-22.681c-5.256-4.208-10.186-8.5-14.665-12.763q-2.976-2.828-5.755-5.707c-2.594-2.688-5.048-5.4-7.339-8.1l1.042-.4h0a124.592,124.592,0,0,1-19.7-32.225,87.067,87.067,0,0,1-6.339-29.308c-1.1-27.326,10.657-54.9,36.377-69.934q2.483-1.453,5.071-2.73c10.5-5.2,22.2-8.4,34.015-11.074,3.275-.741,6.56-1.442,9.831-2.133,25.045-5.3,50.486-10.539,73.076-21.327,13.63-6.505,28.729-16.56,38.008-28.709,6.611-8.655,10.269-18.374,8.341-28.631-2.309-12.346-4.405-23.993-3.533-35.09V375.6l0-.033c1.006-12.668,5.888-24.619,18.75-36.082,24.176-21.517,62.122-25.937,96.664-24.214a397.593,397.593,0,0,1,74.8,11.09l.013,0,.041.01c79.027,19.341,151.511,60.612,216.291,105.9,26.6,18.633,52.91,38.523,72.409,62.78l-1.344.093,0,0h0c2.665,3.371,5.171,6.793,7.462,10.193a138.712,138.712,0,0,1,17.536,36.573q1.826,5.891,3.145,11.979.392,1.8.737,3.623,1.121,5.915,1.748,11.949c-149.679,7.142-358.554,38.763-586.607,138.347Q1099.633,704.478,1093.322,701.011Z" transform="translate(-22689.188 10489.036)" fill="#fff" opacity="0.15"/>
      <path id="Subtraction_5" data-name="Subtraction 5" d="M1407.269,782.37c-21.174,0-43.871-1.743-71.428-5.484-49.4-6.7-96.527-17.373-140.062-31.73a638.654,638.654,0,0,1-65.9-25.774c-8.023-3.678-16.023-7.57-23.778-11.57,27.778-12.13,56.222-23.65,84.543-34.243,27.069-10.125,54.751-19.673,82.276-28.381,26.212-8.292,52.973-16.04,79.54-23.029,25.2-6.629,50.884-12.748,76.335-18.186a1641.573,1641.573,0,0,1,263.914-34.508c.355,3.414.591,6.876.7,10.291a148.712,148.712,0,0,1-1.454,26.035,152.215,152.215,0,0,1-50.265,92.5,217.746,217.746,0,0,1-31.374,22.645c-9.945,6.019-21.359,12.1-34.894,18.58a504.14,504.14,0,0,1-66.028,26.575c-11.709,3.711-23.374,6.818-34.671,9.234a318.026,318.026,0,0,1-35.652,5.572C1428.962,781.876,1418.262,782.37,1407.269,782.37Z" transform="translate(-22689.969 10489.036)" fill="#f5f5f5" opacity="0.15"/>
    </g>
    <g id="Group_21766" data-name="Group 21766" transform="translate(-4048.928 5506.5)">
      <ellipse id="Ellipse_4162" data-name="Ellipse 4162" cx="98.388" cy="22.453" rx="98.388" ry="22.453" transform="translate(278.243 630.518)" fill="#6c63ff" opacity="0.1"/>
      <path id="Path_65057" data-name="Path 65057" d="M331.716,227.152l-16.3,6.307-23.827,9.211c-.9-1.655-2.226-3.956-3.865-6.621-5.644-9.352-14.988-23.9-23.3-36.689-9.36-14.442-17.43-26.583-17.43-26.583l5.843-1.655L300.506,157.3Z" transform="translate(-141.715 -58.043)" fill="#e6ecf8"/>
      <path id="Path_65058" data-name="Path 65058" d="M332.933,227.139l-16.3,6.307A122.926,122.926,0,0,1,288.944,236c-5.644-9.352-14.988-23.9-23.3-36.689L254.06,171.051l47.663-13.821Z" transform="translate(-142.932 -58.031)" opacity="0.1"/>
      <path id="Path_65059" data-name="Path 65059" d="M344.572,221.805s-25.325,14.98-63.14,11.587L251.29,159.907l14.45-2.483,49.939-8.574L344,220.373Z" transform="translate(-142.455 -56.586)" fill="#6c63ff"/>
      <path id="Path_65060" data-name="Path 65060" d="M347.039,220.343a119.178,119.178,0,0,1-19.8-.563c-7.515-.886-15.071-2.7-21.518-6.042a65.143,65.143,0,0,1-14.07-9.46c-10.5-9.443-17-22.958-22.834-46.885l49.939-8.574Z" transform="translate(-145.476 -56.581)" opacity="0.1"/>
      <path id="Path_65061" data-name="Path 65061" d="M364.914,211.781s-18.68,3.658-37.665,1.407c-7.515-.886-15.071-2.706-21.518-6.042a65.65,65.65,0,0,1-14.07-9.46c-12.994-11.694-19.863-29.612-26.931-65.8,0,0,31.028,7.449,61.7-8.922C326.388,122.993,336.733,187.548,364.914,211.781Z" transform="translate(-144.771 -52.123)" fill="#f9fafb"/>
      <path id="Path_65062" data-name="Path 65062" d="M332.858,227.323c-7.515-.886-15.071-2.706-21.518-6.042a65.649,65.649,0,0,1-14.07-9.46c11.065-.9,12.654-6.952,12.654-6.952C318.093,217.872,332.858,227.323,332.858,227.323Z" transform="translate(-150.38 -66.243)" opacity="0.1"/>
      <path id="Path_65063" data-name="Path 65063" d="M284.07,148.361s25.234-1.424,32.277-6.861l1.076,3.426s-16.677,7.358-33.353,7.449Z" transform="translate(-148.104 -55.319)" fill="#6c63ff" opacity="0.3"/>
      <path id="Path_65064" data-name="Path 65064" d="M284.07,168.124s24.432-1.333,42.888-10.254l.629,1.432s-14.657,8.549-43.517,10.759Z" transform="translate(-148.104 -58.141)" fill="#6c63ff" opacity="0.3"/>
      <path id="Path_65065" data-name="Path 65065" d="M286.44,176.124s24.44-1.341,42.9-10.254l.621,1.424s-14.649,8.549-43.517,10.759Z" transform="translate(-148.513 -59.52)" fill="#6c63ff" opacity="0.3"/>
      <path id="Path_65066" data-name="Path 65066" d="M288.82,184.114s24.431-1.332,42.888-10.254l.629,1.432s-14.657,8.549-43.517,10.759Z" transform="translate(-148.924 -60.898)" fill="#6c63ff" opacity="0.3"/>
      <path id="Path_65067" data-name="Path 65067" d="M291.19,192.114s24.44-1.341,42.9-10.254l.621,1.424s-14.649,8.549-43.517,10.759Z" transform="translate(-149.332 -62.277)" fill="#6c63ff" opacity="0.3"/>
      <path id="Path_65068" data-name="Path 65068" d="M293.57,200.1S318,198.772,336.458,189.85l.629,1.432s-14.657,8.549-43.517,10.759Z" transform="translate(-149.742 -63.653)" fill="#6c63ff" opacity="0.3"/>
      <path id="Path_65069" data-name="Path 65069" d="M957.391,285.2l.488.356.074-.77-.323-.687-.521.083Z" transform="translate(-164.027 -48.972)" fill="#464a5f"/>
      <path id="Path_65070" data-name="Path 65070" d="M957.391,285.2l.488.356.074-.77-.323-.687-.521.083Z" transform="translate(-164.027 -48.972)" opacity="0.1"/>
      <path id="Path_65071" data-name="Path 65071" d="M957.354,285.43l.48.364-.331.555-.472-.1-.141-.19Z" transform="translate(-163.989 -49.201)" fill="#9c9ca1"/>
      <path id="Path_65072" data-name="Path 65072" d="M957.354,285.43l.48.364-.331.555-.472-.1-.141-.19Z" transform="translate(-163.989 -49.201)" opacity="0.1"/>
      <path id="Path_65073" data-name="Path 65073" d="M960.5,245.09l-38.816,53.994a4.536,4.536,0,0,0,1.018,6.307l82.862,60.061a4.527,4.527,0,0,0,6.306-.993l39.5-54.135Z" transform="translate(-257.866 -73.176)" fill="#9c9ca1"/>
      <path id="Path_65074" data-name="Path 65074" d="M960.5,245.09l-38.816,53.994a4.536,4.536,0,0,0,1.018,6.307l82.862,60.061a4.527,4.527,0,0,0,6.306-.993l39.5-54.135Z" transform="translate(-257.866 -73.176)" opacity="0.1"/>
      <path id="Path_65075" data-name="Path 65075" d="M960.319,244,921.5,297.994a4.527,4.527,0,0,0,1.018,6.3l82.837,60.052a4.527,4.527,0,0,0,6.306-1l39.5-54.127Z" transform="translate(-257.837 -72.988)" fill="#9c9ca1"/>
      <path id="Path_65076" data-name="Path 65076" d="M968,203.39l1.026,33.006,90.873,65.233-.861-33.585a4.809,4.809,0,0,0-2.036-3.815l-87.472-61.658a.96.96,0,0,0-1.531.819Z" transform="translate(-265.997 -65.813)" fill="#464a5f"/>
      <path id="Path_65077" data-name="Path 65077" d="M968,203.39l1.026,33.006,90.873,65.233-.861-33.585a4.809,4.809,0,0,0-2.036-3.815l-87.472-61.658a.96.96,0,0,0-1.531.819Z" transform="translate(-265.997 -65.813)" opacity="0.1"/>
      <path id="Path_65078" data-name="Path 65078" d="M967.34,203.887l1.026,33.031,90.873,65.233-.885-33.585a4.818,4.818,0,0,0-2.044-3.815l-87.463-61.658a.952.952,0,0,0-1.506.795Z" transform="translate(-265.883 -65.906)" fill="#464a5f"/>
      <g id="Group_20368" data-name="Group 20368" transform="translate(688.997 185.452)" opacity="0.1">
        <path id="Path_61098" data-name="Path 61098" d="M971.246,261.805l-2.35,3.311a.91.91,0,0,0,.207,1.258l3.31,2.483a.9.9,0,0,0,1.258-.182l2.375-3.112a.9.9,0,0,0-.157-1.266l-3.377-2.665a.9.9,0,0,0-1.266.174Z" transform="translate(-955.121 -261.447)"/>
        <path id="Path_61099" data-name="Path 61099" d="M978.646,267.123l-2.35,3.31a.91.91,0,0,0,.207,1.258l3.31,2.483a.9.9,0,0,0,1.258-.182l2.375-3.112a.9.9,0,0,0-.157-1.266l-3.344-2.657a.9.9,0,0,0-1.3.166Z" transform="translate(-956.396 -262.362)"/>
        <path id="Path_61100" data-name="Path 61100" d="M986.416,272.706l-2.35,3.311a.91.91,0,0,0,.207,1.258l3.31,2.483a.9.9,0,0,0,1.258-.182l2.375-3.112a.911.911,0,0,0-.157-1.266l-3.377-2.657a.9.9,0,0,0-1.266.166Z" transform="translate(-957.736 -263.327)"/>
        <path id="Path_61101" data-name="Path 61101" d="M994.275,278.357l-2.351,3.311a.91.91,0,0,0,.2,1.258l3.31,2.483a.9.9,0,0,0,1.258-.182l2.375-3.112a.91.91,0,0,0-.157-1.266l-3.377-2.657a.9.9,0,0,0-1.258.166Z" transform="translate(-959.09 -264.302)"/>
        <path id="Path_61102" data-name="Path 61102" d="M1002.135,284.006l-2.351,3.311a.91.91,0,0,0,.2,1.258l3.311,2.483a.91.91,0,0,0,1.266-.182l2.375-3.112a.91.91,0,0,0-.157-1.266l-3.377-2.657a.9.9,0,0,0-1.266.165Z" transform="translate(-960.445 -265.275)"/>
        <path id="Path_61103" data-name="Path 61103" d="M1010.247,289.188l-2.913,4.138a.43.43,0,0,0,.091.588l4.138,3.029a.422.422,0,0,0,.588-.083l2.955-3.873a.422.422,0,0,0-.075-.588l-4.138-3.31a.43.43,0,0,0-.646.1Z" transform="translate(-961.762 -266.194)"/>
        <path id="Path_61104" data-name="Path 61104" d="M1018.107,294.838l-2.913,4.138a.43.43,0,0,0,.091.588l4.138,3.029a.422.422,0,0,0,.588-.083l2.955-3.873a.422.422,0,0,0-.074-.588l-4.138-3.31a.43.43,0,0,0-.646.1Z" transform="translate(-963.117 -267.168)"/>
        <path id="Path_61105" data-name="Path 61105" d="M1025.065,299.836l-2.922,4.138a.422.422,0,0,0,.1.588l4.138,3.029a.43.43,0,0,0,.6-.083l2.955-3.865a.43.43,0,0,0-.074-.6l-4.138-3.311a.422.422,0,0,0-.654.1Z" transform="translate(-964.315 -268.028)"/>
        <path id="Path_61106" data-name="Path 61106" d="M1032.856,305.441l-2.913,4.138a.413.413,0,0,0,.091.588l4.138,3.029a.43.43,0,0,0,.6-.083l2.955-3.865a.43.43,0,0,0-.074-.6l-4.138-3.269a.422.422,0,0,0-.654.058Z" transform="translate(-965.658 -268.999)"/>
        <path id="Path_61107" data-name="Path 61107" d="M1040.377,310.872l-2.913,4.138a.422.422,0,0,0,.1.588l4.138,3.037a.422.422,0,0,0,.588-.091l2.955-3.865a.43.43,0,0,0-.074-.6l-4.138-3.269a.43.43,0,0,0-.654.058Z" transform="translate(-966.956 -269.935)"/>
        <path id="Path_61108" data-name="Path 61108" d="M1047.947,316.292l-2.913,4.138a.43.43,0,0,0,.091.588l4.138,3.029a.422.422,0,0,0,.588-.083l2.955-3.873a.422.422,0,0,0-.074-.588l-4.138-3.269a.422.422,0,0,0-.646.058Z" transform="translate(-968.26 -270.87)"/>
        <path id="Path_61109" data-name="Path 61109" d="M1055.5,321.716l-2.922,4.138a.422.422,0,0,0,.1.588l4.138,3.037a.43.43,0,0,0,.6-.091l2.955-3.865a.43.43,0,0,0-.074-.6l-4.138-3.311a.422.422,0,0,0-.654.1Z" transform="translate(-969.56 -271.799)"/>
        <path id="Path_61110" data-name="Path 61110" d="M966.077,268.986l-2.342,3.311a.91.91,0,0,0,.2,1.258l3.311,2.483a.919.919,0,0,0,1.266-.182l2.375-3.112a.91.91,0,0,0-.157-1.266l-3.377-2.665A.919.919,0,0,0,966.077,268.986Z" transform="translate(-954.231 -262.685)"/>
        <path id="Path_61111" data-name="Path 61111" d="M954.8,284.686,952.455,288a.911.911,0,0,0,.2,1.258l3.311,2.483a.919.919,0,0,0,1.266-.174l2.375-3.112a.911.911,0,0,0-.157-1.266l-3.377-2.665a.91.91,0,0,0-1.274.166Z" transform="translate(-952.286 -265.392)"/>
        <path id="Path_61112" data-name="Path 61112" d="M973.475,274.306l-2.351,3.31a.91.91,0,0,0,.2,1.258l3.311,2.483a.919.919,0,0,0,1.266-.182l2.375-3.112a.911.911,0,0,0-.157-1.266l-3.377-2.665A.91.91,0,0,0,973.475,274.306Z" transform="translate(-955.505 -263.603)"/>
        <path id="Path_61113" data-name="Path 61113" d="M981.247,279.926l-2.342,3.31a.91.91,0,0,0,.2,1.258l3.31,2.483a.919.919,0,0,0,1.266-.174l2.375-3.112a.91.91,0,0,0-.157-1.266l-3.377-2.665A.91.91,0,0,0,981.247,279.926Z" transform="translate(-956.846 -264.572)"/>
        <path id="Path_61114" data-name="Path 61114" d="M989.107,285.546l-2.342,3.31a.91.91,0,0,0,.2,1.258l3.311,2.483a.919.919,0,0,0,1.266-.174l2.375-3.12a.9.9,0,0,0-.157-1.258l-3.377-2.665A.91.91,0,0,0,989.107,285.546Z" transform="translate(-958.201 -265.54)"/>
        <path id="Path_61115" data-name="Path 61115" d="M962.377,289.756l-2.342,3.311a.91.91,0,0,0,.2,1.258l3.311,2.483a.919.919,0,0,0,1.266-.174l2.375-3.12a.9.9,0,0,0-.157-1.258l-3.377-2.665A.911.911,0,0,0,962.377,289.756Z" transform="translate(-953.593 -266.266)"/>
        <path id="Path_61116" data-name="Path 61116" d="M970.147,295.336l-2.342,3.31a.91.91,0,0,0,.2,1.258l3.311,2.483a.919.919,0,0,0,1.266-.182l2.375-3.112a.911.911,0,0,0-.157-1.266l-3.377-2.665a.919.919,0,0,0-1.274.174Z" transform="translate(-954.932 -267.227)"/>
        <path id="Path_61117" data-name="Path 61117" d="M978.007,300.985l-2.342,3.31a.91.91,0,0,0,.2,1.258l3.311,2.483a.919.919,0,0,0,1.266-.182l2.375-3.112a.91.91,0,0,0-.166-1.266l-3.368-2.665A.91.91,0,0,0,978.007,300.985Z" transform="translate(-956.287 -268.201)"/>
        <path id="Path_61118" data-name="Path 61118" d="M996.967,291.185l-2.342,3.31a.91.91,0,0,0,.2,1.258l3.31,2.483a.919.919,0,0,0,1.266-.174l2.375-3.12a.9.9,0,0,0-.157-1.258l-3.344-2.723a.91.91,0,0,0-1.308.223Z" transform="translate(-959.555 -266.503)"/>
        <path id="Path_61119" data-name="Path 61119" d="M1004.827,296.836l-2.342,3.31a.911.911,0,0,0,.2,1.258l3.31,2.483a.919.919,0,0,0,1.266-.174l2.375-3.12a.9.9,0,0,0-.157-1.258l-3.377-2.665A.91.91,0,0,0,1004.827,296.836Z" transform="translate(-960.91 -267.486)"/>
        <path id="Path_61120" data-name="Path 61120" d="M1012.945,302.016l-2.922,4.138a.422.422,0,0,0,.1.588l4.138,3.029a.431.431,0,0,0,.6-.083l2.955-3.865a.43.43,0,0,0-.075-.6l-4.138-3.311a.422.422,0,0,0-.654.1Z" transform="translate(-962.226 -268.404)"/>
        <path id="Path_61121" data-name="Path 61121" d="M1019.9,307.017l-2.913,4.138a.422.422,0,0,0,.1.588l4.138,3.029a.414.414,0,0,0,.588-.083l2.954-3.865a.43.43,0,0,0-.074-.6l-4.138-3.311a.43.43,0,0,0-.654.1Z" transform="translate(-963.425 -269.266)"/>
        <path id="Path_61122" data-name="Path 61122" d="M1027.7,312.622l-2.922,4.138a.422.422,0,0,0,.1.588l4.138,3.029a.414.414,0,0,0,.588-.083l2.955-3.865a.43.43,0,0,0-.074-.6l-4.138-3.269a.422.422,0,0,0-.646.058Z" transform="translate(-964.768 -270.237)"/>
        <path id="Path_61123" data-name="Path 61123" d="M1035.237,318.048l-2.913,4.138a.43.43,0,0,0,.091.588l4.138,3.029a.422.422,0,0,0,.588-.083l2.955-3.873a.422.422,0,0,0-.074-.588l-4.138-3.31a.43.43,0,0,0-.646.1Z" transform="translate(-966.07 -271.169)"/>
        <path id="Path_61124" data-name="Path 61124" d="M975.885,287.349l-2.35,3.31a.91.91,0,0,0,.2,1.258l3.31,2.483a.91.91,0,0,0,1.266-.182l2.375-3.112a.91.91,0,0,0-.157-1.266l-3.327-2.673a.9.9,0,0,0-1.316.182Z" transform="translate(-955.92 -265.845)"/>
        <path id="Path_61125" data-name="Path 61125" d="M983.745,293.006l-2.35,3.311a.91.91,0,0,0,.2,1.258l3.311,2.483a.91.91,0,0,0,1.266-.182l2.375-3.112a.911.911,0,0,0-.157-1.266l-3.377-2.657a.9.9,0,0,0-1.266.165Z" transform="translate(-957.275 -266.826)"/>
        <path id="Path_61126" data-name="Path 61126" d="M991.6,298.656l-2.342,3.31a.91.91,0,0,0,.2,1.258l3.31,2.483a.91.91,0,0,0,1.266-.182l2.375-3.112a.919.919,0,0,0-.157-1.266l-3.377-2.657A.91.91,0,0,0,991.6,298.656Z" transform="translate(-958.63 -267.8)"/>
        <path id="Path_61127" data-name="Path 61127" d="M999.477,304.306l-2.342,3.311a.91.91,0,0,0,.2,1.258l3.31,2.483a.91.91,0,0,0,1.266-.182l2.375-3.112a.91.91,0,0,0-.157-1.266l-3.377-2.657A.91.91,0,0,0,999.477,304.306Z" transform="translate(-959.988 -268.774)"/>
        <path id="Path_61128" data-name="Path 61128" d="M1007.576,309.491l-2.913,4.138a.414.414,0,0,0,.091.588l4.138,3.029a.43.43,0,0,0,.6-.083l2.955-3.873a.422.422,0,0,0-.074-.588l-4.138-3.269a.422.422,0,0,0-.654.058Z" transform="translate(-961.3 -269.697)"/>
        <path id="Path_61129" data-name="Path 61129" d="M1014.535,314.491l-2.921,4.138a.422.422,0,0,0,.1.588l4.138,3.029a.43.43,0,0,0,.6-.083l2.946-3.865a.414.414,0,0,0-.075-.6l-4.138-3.269a.414.414,0,0,0-.645.058Z" transform="translate(-962.5 -270.559)"/>
        <path id="Path_61130" data-name="Path 61130" d="M1022.375,320.085l-2.922,4.138a.422.422,0,0,0,.1.588l4.138,3.029a.43.43,0,0,0,.6-.083l2.955-3.865a.431.431,0,0,0-.074-.6l-4.138-3.31a.414.414,0,0,0-.654.1Z" transform="translate(-963.851 -271.517)"/>
        <path id="Path_61131" data-name="Path 61131" d="M1029.867,325.519l-2.913,4.138a.439.439,0,0,0,.091.6l4.138,3.029a.431.431,0,0,0,.588-.083l2.954-3.873a.422.422,0,0,0-.074-.588l-4.138-3.31a.43.43,0,0,0-.645.091Z" transform="translate(-965.144 -272.457)"/>
        <path id="Path_61132" data-name="Path 61132" d="M1042.785,323.472l-2.922,4.138a.422.422,0,0,0,.1.588l4.138,3.029a.422.422,0,0,0,.6-.083l2.955-3.865a.43.43,0,0,0-.075-.6l-4.138-3.269a.43.43,0,0,0-.654.058Z" transform="translate(-967.369 -272.107)"/>
        <path id="Path_61133" data-name="Path 61133" d="M1050.377,328.9l-2.913,4.138a.439.439,0,0,0,.091.6l4.138,3.029a.43.43,0,0,0,.588-.083l2.954-3.873a.422.422,0,0,0-.075-.588l-4.138-3.31a.43.43,0,0,0-.646.091Z" transform="translate(-968.679 -273.04)"/>
        <path id="Path_61134" data-name="Path 61134" d="M1016.516,328.2l-2.748,3.865a.563.563,0,0,0,.132.786l3.873,2.864a.563.563,0,0,0,.827-.108l2.781-3.642a.563.563,0,0,0-.1-.828l-3.915-3.1a.571.571,0,0,0-.852.157Z" transform="translate(-962.866 -272.905)"/>
        <path id="Path_61135" data-name="Path 61135" d="M1024.065,333.622l-2.748,3.873a.563.563,0,0,0,.124.786l3.882,2.864a.579.579,0,0,0,.828-.116l2.781-3.642a.571.571,0,0,0-.1-.828l-3.923-3.087a.563.563,0,0,0-.844.149Z" transform="translate(-964.167 -273.84)"/>
        <path id="Path_61136" data-name="Path 61136" d="M1031.6,339.052l-2.748,3.873a.571.571,0,0,0,.132.828l3.882,2.864a.563.563,0,0,0,.828-.108l2.781-3.65a.555.555,0,0,0-.1-.786l-3.915-3.1a.579.579,0,0,0-.861.075Z" transform="translate(-965.464 -274.784)"/>
        <path id="Path_61137" data-name="Path 61137" d="M1039.227,344.338l-2.913,4.138a.43.43,0,0,0,.1.6l4.138,3.029a.422.422,0,0,0,.588-.083l2.955-3.873a.422.422,0,0,0-.074-.588l-4.138-3.31a.431.431,0,0,0-.654.091Z" transform="translate(-966.757 -275.701)"/>
        <path id="Path_61138" data-name="Path 61138" d="M960.448,276.4l-2.483,3.551a.91.91,0,0,0,.215,1.266l9.716,6.919a.9.9,0,0,0,1.241-.19l2.648-3.451a.9.9,0,0,0-.2-1.291l-9.874-7.018a.9.9,0,0,0-1.266.215Z" transform="translate(-953.237 -263.958)"/>
        <path id="Path_61139" data-name="Path 61139" d="M1037.238,331.019l-3.054,4.345a.422.422,0,0,0,.1.588l10.5,7.449a.431.431,0,0,0,.588-.091l3.227-4.221a.422.422,0,0,0-.091-.6l-10.676-7.589a.422.422,0,0,0-.6.124Z" transform="translate(-966.39 -273.405)"/>
        <path id="Path_61140" data-name="Path 61140" d="M985.905,306.222l-2.922,4.039a.439.439,0,0,0,.091.6l22.76,16.784a.43.43,0,0,0,.588-.083l3.211-4.213a.422.422,0,0,0-.091-.6l-23.025-16.61a.422.422,0,0,0-.612.091Z" transform="translate(-957.564 -269.134)"/>
      </g>
      <path id="Path_65079" data-name="Path 65079" d="M971.125,261.066l-2.351,3.311a.91.91,0,0,0,.2,1.258l3.31,2.483a.91.91,0,0,0,1.266-.174l2.375-3.112a.9.9,0,0,0-.157-1.266l-3.377-2.665a.9.9,0,0,0-1.266.166Z" transform="translate(-266.101 -75.868)" fill="#464a5f"/>
      <path id="Path_65080" data-name="Path 65080" d="M978.525,266.387l-2.351,3.311a.91.91,0,0,0,.2,1.258l3.311,2.483a.9.9,0,0,0,1.258-.174l2.375-3.112a.9.9,0,0,0-.157-1.266l-3.377-2.665A.9.9,0,0,0,978.525,266.387Z" transform="translate(-267.377 -76.786)" fill="#464a5f"/>
      <path id="Path_65081" data-name="Path 65081" d="M986.3,271.924l-2.334,3.31a.91.91,0,0,0,.2,1.258l3.31,2.483a.919.919,0,0,0,1.266-.182l2.375-3.112a.9.9,0,0,0-.157-1.266l-3.377-2.665a.91.91,0,0,0-1.283.174Z" transform="translate(-268.719 -77.739)" fill="#464a5f"/>
      <path id="Path_65082" data-name="Path 65082" d="M994.155,277.615l-2.351,3.311a.911.911,0,0,0,.2,1.258l3.311,2.483a.918.918,0,0,0,1.266-.182l2.375-3.112a.9.9,0,0,0-.157-1.266l-3.377-2.665a.9.9,0,0,0-1.266.174Z" transform="translate(-270.071 -78.72)" fill="#464a5f"/>
      <path id="Path_65083" data-name="Path 65083" d="M1002.007,283.266l-2.342,3.31a.91.91,0,0,0,.2,1.258l3.311,2.483a.919.919,0,0,0,1.266-.182l2.375-3.112a.91.91,0,0,0-.157-1.266l-3.377-2.665a.919.919,0,0,0-1.274.174Z" transform="translate(-271.426 -79.694)" fill="#464a5f"/>
      <path id="Path_65084" data-name="Path 65084" d="M1010.126,288.447l-2.913,4.138a.422.422,0,0,0,.091.588l4.138,3.029a.43.43,0,0,0,.6-.083l2.955-3.873a.422.422,0,0,0-.074-.588l-4.138-3.31a.43.43,0,0,0-.654.1Z" transform="translate(-272.743 -80.613)" fill="#464a5f"/>
      <path id="Path_65085" data-name="Path 65085" d="M1017.986,294.1l-2.913,4.138a.422.422,0,0,0,.091.6l4.138,3.029a.438.438,0,0,0,.6-.083l2.955-3.873a.422.422,0,0,0-.075-.588l-4.138-3.311a.43.43,0,0,0-.654.091Z" transform="translate(-274.096 -81.589)" fill="#464a5f"/>
      <path id="Path_65086" data-name="Path 65086" d="M1024.945,299.1l-2.922,4.138a.422.422,0,0,0,.1.588l4.138,3.029a.43.43,0,0,0,.6-.083l2.954-3.873a.422.422,0,0,0-.074-.588L1025.6,299a.422.422,0,0,0-.654.1Z" transform="translate(-275.296 -82.449)" fill="#464a5f"/>
      <path id="Path_65087" data-name="Path 65087" d="M1032.735,304.7l-2.922,4.138a.422.422,0,0,0,.1.588l4.138,3.029a.43.43,0,0,0,.6-.083l2.955-3.873a.422.422,0,0,0-.074-.588l-4.138-3.311a.43.43,0,0,0-.654.1Z" transform="translate(-276.64 -83.414)" fill="#464a5f"/>
      <path id="Path_65088" data-name="Path 65088" d="M1040.277,310.123l-2.913,4.138a.43.43,0,0,0,.091.588l4.138,3.029a.414.414,0,0,0,.588-.083l2.955-3.865a.43.43,0,0,0-.074-.6l-4.138-3.269a.43.43,0,0,0-.646.058Z" transform="translate(-277.941 -84.356)" fill="#464a5f"/>
      <path id="Path_65089" data-name="Path 65089" d="M1047.826,315.547l-2.913,4.138a.413.413,0,0,0,.091.588l4.138,3.029a.431.431,0,0,0,.6-.083l2.954-3.873a.422.422,0,0,0-.074-.588l-4.138-3.31a.43.43,0,0,0-.654.1Z" transform="translate(-279.241 -85.285)" fill="#464a5f"/>
      <path id="Path_65090" data-name="Path 65090" d="M1055.375,320.962l-2.922,4.138a.422.422,0,0,0,.1.588l4.138,3.029a.422.422,0,0,0,.588-.083l2.955-3.865a.422.422,0,0,0-.075-.6l-4.138-3.269a.422.422,0,0,0-.646.058Z" transform="translate(-280.542 -86.223)" fill="#464a5f"/>
      <path id="Path_65091" data-name="Path 65091" d="M965.957,268.246l-2.342,3.31a.91.91,0,0,0,.2,1.258l3.311,2.483a.919.919,0,0,0,1.266-.182L970.766,272a.911.911,0,0,0-.157-1.266l-3.377-2.665A.919.919,0,0,0,965.957,268.246Z" transform="translate(-265.211 -77.106)" fill="#464a5f"/>
      <path id="Path_65092" data-name="Path 65092" d="M954.677,283.926l-2.35,3.311a.919.919,0,0,0,.207,1.258l3.31,2.483a.9.9,0,0,0,1.258-.174l2.384-3.12a.9.9,0,0,0-.166-1.258l-3.368-2.665a.91.91,0,0,0-1.274.166Z" transform="translate(-263.267 -79.809)" fill="#464a5f"/>
      <path id="Path_65093" data-name="Path 65093" d="M973.357,273.566l-2.342,3.31a.91.91,0,0,0,.2,1.258l3.31,2.483a.919.919,0,0,0,1.266-.182l2.375-3.112a.91.91,0,0,0-.157-1.266l-3.377-2.665A.919.919,0,0,0,973.357,273.566Z" transform="translate(-266.487 -78.022)" fill="#464a5f"/>
      <path id="Path_65094" data-name="Path 65094" d="M981.127,279.141l-2.342,3.311a.91.91,0,0,0,.2,1.258l3.311,2.483a.91.91,0,0,0,1.266-.182l2.375-3.112a.919.919,0,0,0-.157-1.266l-3.344-2.673a.91.91,0,0,0-1.308.182Z" transform="translate(-267.828 -78.979)" fill="#464a5f"/>
      <path id="Path_65095" data-name="Path 65095" d="M988.987,284.8l-2.342,3.311a.91.91,0,0,0,.2,1.258l3.311,2.483a.91.91,0,0,0,1.266-.182l2.375-3.112a.919.919,0,0,0-.157-1.266l-3.377-2.657a.91.91,0,0,0-1.275.165Z" transform="translate(-269.182 -79.959)" fill="#464a5f"/>
      <path id="Path_65096" data-name="Path 65096" d="M962.257,289.006l-2.342,3.31a.911.911,0,0,0,.2,1.258l3.31,2.483a.91.91,0,0,0,1.266-.182l2.375-3.112a.91.91,0,0,0-.166-1.266l-3.368-2.657a.91.91,0,0,0-1.275.166Z" transform="translate(-264.575 -80.685)" fill="#464a5f"/>
      <path id="Path_65097" data-name="Path 65097" d="M970.027,294.594l-2.342,3.311a.9.9,0,0,0,.2,1.25l3.311,2.483a.91.91,0,0,0,1.258-.182l2.384-3.112a.911.911,0,0,0-.165-1.266l-3.369-2.665a.91.91,0,0,0-1.275.182Z" transform="translate(-265.914 -81.646)" fill="#464a5f"/>
      <path id="Path_65098" data-name="Path 65098" d="M977.887,300.239l-2.35,3.31a.91.91,0,0,0,.207,1.25l3.31,2.483a.91.91,0,0,0,1.258-.182l2.384-3.112a.911.911,0,0,0-.166-1.266l-3.327-2.673a.91.91,0,0,0-1.316.19Z" transform="translate(-267.269 -82.614)" fill="#464a5f"/>
      <path id="Path_65099" data-name="Path 65099" d="M996.847,290.436l-2.342,3.31a.911.911,0,0,0,.2,1.258l3.31,2.483a.91.91,0,0,0,1.266-.182l2.375-3.112a.91.91,0,0,0-.166-1.266l-3.294-2.673a.911.911,0,0,0-1.349.182Z" transform="translate(-270.537 -80.923)" fill="#464a5f"/>
      <path id="Path_65100" data-name="Path 65100" d="M1004.707,296.1l-2.342,3.31a.91.91,0,0,0,.2,1.258l3.31,2.483a.9.9,0,0,0,1.258-.182l2.383-3.112a.91.91,0,0,0-.166-1.266l-3.368-2.657a.91.91,0,0,0-1.274.166Z" transform="translate(-271.892 -81.907)" fill="#464a5f"/>
      <path id="Path_65101" data-name="Path 65101" d="M1012.825,301.281l-2.921,4.138a.422.422,0,0,0,.1.588l4.138,3.029a.43.43,0,0,0,.6-.083l2.955-3.873a.414.414,0,0,0-.083-.588l-4.138-3.269a.414.414,0,0,0-.646.058Z" transform="translate(-273.207 -82.829)" fill="#464a5f"/>
      <path id="Path_65102" data-name="Path 65102" d="M1019.777,306.282l-2.913,4.138a.43.43,0,0,0,.091.588l4.138,3.029a.422.422,0,0,0,.588-.083l2.955-3.865a.43.43,0,0,0-.074-.6l-4.138-3.269a.422.422,0,0,0-.646.058Z" transform="translate(-274.407 -83.693)" fill="#464a5f"/>
      <path id="Path_65103" data-name="Path 65103" d="M1027.567,311.882l-2.913,4.138a.43.43,0,0,0,.091.588l4.138,3.029a.422.422,0,0,0,.588-.083l2.955-3.865a.43.43,0,0,0-.074-.6l-4.138-3.269a.422.422,0,0,0-.646.058Z" transform="translate(-275.75 -84.658)" fill="#464a5f"/>
      <path id="Path_65104" data-name="Path 65104" d="M1035.116,317.313l-2.913,4.138a.422.422,0,0,0,.091.588l4.138,3.037a.43.43,0,0,0,.588-.083l2.955-3.873a.43.43,0,0,0-.074-.6l-4.138-3.269a.43.43,0,0,0-.646.058Z" transform="translate(-277.049 -85.594)" fill="#464a5f"/>
      <path id="Path_65105" data-name="Path 65105" d="M975.757,286.616l-2.342,3.311a.91.91,0,0,0,.2,1.258l3.311,2.483a.91.91,0,0,0,1.266-.182l2.375-3.112a.91.91,0,0,0-.157-1.266l-3.377-2.657a.91.91,0,0,0-1.274.166Z" transform="translate(-266.902 -80.273)" fill="#464a5f"/>
      <path id="Path_65106" data-name="Path 65106" d="M983.617,292.266l-2.342,3.311a.911.911,0,0,0,.2,1.258l3.311,2.483a.911.911,0,0,0,1.266-.182l2.375-3.112a.91.91,0,0,0-.157-1.266l-3.377-2.657A.91.91,0,0,0,983.617,292.266Z" transform="translate(-268.256 -81.246)" fill="#464a5f"/>
      <path id="Path_65107" data-name="Path 65107" d="M991.477,297.926l-2.342,3.31a.91.91,0,0,0,.2,1.258l3.31,2.483a.919.919,0,0,0,1.266-.182l2.375-3.112a.91.91,0,0,0-.157-1.266l-3.377-2.665A.919.919,0,0,0,991.477,297.926Z" transform="translate(-269.611 -82.222)" fill="#464a5f"/>
      <path id="Path_65108" data-name="Path 65108" d="M999.337,303.566l-2.342,3.311a.91.91,0,0,0,.2,1.258l3.311,2.483a.919.919,0,0,0,1.266-.182l2.375-3.112a.911.911,0,0,0-.157-1.266l-3.377-2.665a.919.919,0,0,0-1.274.174Z" transform="translate(-270.966 -83.194)" fill="#464a5f"/>
      <path id="Path_65109" data-name="Path 65109" d="M1007.455,308.747l-2.921,4.138a.422.422,0,0,0,.1.588l4.138,3.029a.43.43,0,0,0,.6-.083l2.955-3.873a.422.422,0,0,0-.075-.588l-4.138-3.31a.43.43,0,0,0-.654.1Z" transform="translate(-272.281 -84.113)" fill="#464a5f"/>
      <path id="Path_65110" data-name="Path 65110" d="M1014.377,313.747l-2.913,4.138a.422.422,0,0,0,.1.588l4.138,3.029a.422.422,0,0,0,.588-.083l2.955-3.873a.422.422,0,0,0-.074-.588l-4.138-3.311a.431.431,0,0,0-.654.1Z" transform="translate(-273.476 -84.975)" fill="#464a5f"/>
      <path id="Path_65111" data-name="Path 65111" d="M1022.205,319.347l-2.922,4.138a.422.422,0,0,0,.1.588l4.138,3.029a.422.422,0,0,0,.588-.083l2.955-3.873a.414.414,0,0,0-.074-.588l-4.138-3.311a.422.422,0,0,0-.645.1Z" transform="translate(-274.824 -85.939)" fill="#464a5f"/>
      <path id="Path_65112" data-name="Path 65112" d="M1029.747,324.778l-2.913,4.138a.43.43,0,0,0,.091.588l4.138,3.037a.422.422,0,0,0,.588-.091l2.955-3.865a.43.43,0,0,0-.074-.6l-4.138-3.31a.43.43,0,0,0-.645.1Z" transform="translate(-276.125 -86.877)" fill="#464a5f"/>
      <path id="Path_65113" data-name="Path 65113" d="M1042.665,322.73l-2.921,4.138a.422.422,0,0,0,.1.588l4.138,3.029a.43.43,0,0,0,.6-.083l2.955-3.865a.43.43,0,0,0-.074-.6l-4.138-3.269a.414.414,0,0,0-.654.058Z" transform="translate(-278.351 -86.526)" fill="#464a5f"/>
      <path id="Path_65114" data-name="Path 65114" d="M1050.207,328.158l-2.913,4.138a.43.43,0,0,0,.091.588l4.138,3.037a.422.422,0,0,0,.588-.091l2.955-3.865a.43.43,0,0,0-.074-.6l-4.138-3.31a.43.43,0,0,0-.645.1Z" transform="translate(-279.652 -87.459)" fill="#464a5f"/>
      <path id="Path_65115" data-name="Path 65115" d="M1016.405,327.453l-2.748,3.873a.563.563,0,0,0,.124.786l3.882,2.864a.579.579,0,0,0,.828-.116l2.781-3.642a.571.571,0,0,0-.1-.828l-3.915-3.087a.579.579,0,0,0-.852.149Z" transform="translate(-273.848 -87.326)" fill="#464a5f"/>
      <path id="Path_65116" data-name="Path 65116" d="M1023.934,332.886l-2.74,3.865a.58.58,0,0,0,.124.828l3.881,2.864a.563.563,0,0,0,.828-.116l2.789-3.642a.571.571,0,0,0-.108-.828l-3.915-3.087a.571.571,0,0,0-.861.116Z" transform="translate(-275.145 -88.264)" fill="#464a5f"/>
      <path id="Path_65117" data-name="Path 65117" d="M1031.486,338.3l-2.748,3.873a.571.571,0,0,0,.132.786l3.873,2.864a.571.571,0,0,0,.828-.116l2.781-3.642a.563.563,0,0,0-.1-.828l-3.915-3.087a.579.579,0,0,0-.853.149Z" transform="translate(-276.449 -89.196)" fill="#464a5f"/>
      <path id="Path_65118" data-name="Path 65118" d="M1039.107,343.6l-2.913,4.138a.43.43,0,0,0,.091.588l4.138,3.037a.422.422,0,0,0,.588-.091l2.955-3.865a.43.43,0,0,0-.074-.6l-4.138-3.311a.43.43,0,0,0-.645.1Z" transform="translate(-277.738 -90.121)" fill="#464a5f"/>
      <path id="Path_65119" data-name="Path 65119" d="M960.278,275.659l-2.483,3.551a.91.91,0,0,0,.215,1.266l9.724,6.919a.911.911,0,0,0,1.25-.19l2.648-3.451a.9.9,0,0,0-.2-1.291l-9.873-7.018a.911.911,0,0,0-1.283.215Z" transform="translate(-264.209 -78.378)" fill="#464a5f"/>
      <path id="Path_65120" data-name="Path 65120" d="M1037.118,330.279l-3.054,4.345a.422.422,0,0,0,.1.588l10.5,7.449a.422.422,0,0,0,.579-.091l3.236-4.221a.422.422,0,0,0-.091-.6l-10.676-7.589a.422.422,0,0,0-.6.124Z" transform="translate(-277.371 -87.826)" fill="#464a5f"/>
      <path id="Path_65121" data-name="Path 65121" d="M985.782,305.483l-2.938,4.039a.439.439,0,0,0,.091.6l22.76,16.784a.422.422,0,0,0,.588-.091l3.211-4.213a.422.422,0,0,0-.091-.6l-23.025-16.6a.422.422,0,0,0-.6.091Z" transform="translate(-268.542 -83.556)" fill="#464a5f"/>
      <path id="Path_65122" data-name="Path 65122" d="M967.516,310.956l-12.878,17.819a2.309,2.309,0,0,0,.5,3.211l33.237,24.572a2.317,2.317,0,0,0,3.244-.5l13.292-18.208a2.309,2.309,0,0,0-.513-3.244L970.744,310.4a2.317,2.317,0,0,0-3.228.555Z" transform="translate(-263.619 -84.361)" opacity="0.1"/>
      <path id="Path_65123" data-name="Path 65123" d="M967.4,310.216l-12.886,17.81a2.326,2.326,0,0,0,.5,3.219l33.237,24.572a2.317,2.317,0,0,0,3.244-.5l13.292-18.208a2.317,2.317,0,0,0-.521-3.244l-33.643-24.208A2.317,2.317,0,0,0,967.4,310.216Z" transform="translate(-263.596 -84.233)" fill="#939498"/>
      <path id="Path_65124" data-name="Path 65124" d="M972.18,210.387l.555,27.866L1056.68,298.4l-.745-27.6a4.833,4.833,0,0,0-1.97-3.79l-80.28-57.421a.96.96,0,0,0-1.506.8Z" transform="translate(-266.717 -67.026)" fill="#dbdbdb"/>
      <rect id="Rectangle_4711" data-name="Rectangle 4711" width="50.518" height="75.115" rx="2.91" transform="translate(0 293.401) rotate(-35.68)" fill="#3a3768"/>
      <rect id="Rectangle_4712" data-name="Rectangle 4712" width="41.894" height="14.765" rx="0.18" transform="translate(7.516 295.95) rotate(-35.68)" opacity="0.1"/>
      <rect id="Rectangle_4713" data-name="Rectangle 4713" width="41.265" height="14.285" rx="3.35" transform="translate(7.901 296.02) rotate(-35.68)" fill="#e6e8ec"/>
      <rect id="Rectangle_4714" data-name="Rectangle 4714" width="8.334" height="9.261" rx="1.39" transform="translate(20.906 312.088) rotate(-35.68)" opacity="0.1"/>
      <rect id="Rectangle_4715" data-name="Rectangle 4715" width="8.303" height="9.226" rx="1.385" transform="translate(27.79 305.815) rotate(-35.605)" opacity="0.1"/>
      <rect id="Rectangle_4716" data-name="Rectangle 4716" width="8.334" height="9.261" rx="1.39" transform="translate(37.449 300.208) rotate(-35.68)" opacity="0.1"/>
      <rect id="Rectangle_4717" data-name="Rectangle 4717" width="8.334" height="9.261" rx="1.59" transform="translate(45.839 294.432) rotate(-35.68)" opacity="0.1"/>
      <rect id="Rectangle_4718" data-name="Rectangle 4718" width="8.334" height="9.261" rx="1.39" transform="translate(26.837 320.366) rotate(-35.68)" opacity="0.1"/>
      <rect id="Rectangle_4719" data-name="Rectangle 4719" width="8.334" height="9.261" rx="1.39" transform="translate(35.118 314.419) rotate(-35.68)" opacity="0.1"/>
      <rect id="Rectangle_4720" data-name="Rectangle 4720" width="8.334" height="9.261" rx="1.39" transform="translate(43.383 308.478) rotate(-35.68)" opacity="0.1"/>
      <rect id="Rectangle_4721" data-name="Rectangle 4721" width="8.334" height="9.261" rx="1.39" transform="translate(33.404 329.49) rotate(-35.68)" opacity="0.1"/>
      <rect id="Rectangle_4722" data-name="Rectangle 4722" width="8.334" height="9.261" rx="1.39" transform="translate(41.67 323.548) rotate(-35.68)" opacity="0.1"/>
      <rect id="Rectangle_4723" data-name="Rectangle 4723" width="8.334" height="9.261" rx="1.39" transform="translate(49.946 317.617) rotate(-35.68)" opacity="0.1"/>
      <rect id="Rectangle_4724" data-name="Rectangle 4724" width="8.334" height="9.261" rx="1.39" transform="translate(56.499 326.745) rotate(-35.68)" opacity="0.1"/>
      <rect id="Rectangle_4725" data-name="Rectangle 4725" width="8.334" height="9.261" rx="0.91" transform="translate(51.771 302.698) rotate(-35.68)" opacity="0.1"/>
      <rect id="Rectangle_4726" data-name="Rectangle 4726" width="18.514" height="9.261" rx="2.18" transform="translate(39.951 338.619) rotate(-35.68)" opacity="0.1"/>
      <rect id="Rectangle_4727" data-name="Rectangle 4727" width="9.129" height="20.5" rx="2.07" transform="translate(57.564 312.135) rotate(-35.68)" opacity="0.1"/>
      <rect id="Rectangle_4728" data-name="Rectangle 4728" width="3.65" height="0.397" transform="translate(43.83 284.746) rotate(-35.68)" fill="#6c63ff"/>
      <rect id="Rectangle_4729" data-name="Rectangle 4729" width="3.65" height="0.397" transform="translate(39.491 287.859) rotate(-35.68)" fill="#6c63ff"/>
      <rect id="Rectangle_4730" data-name="Rectangle 4730" width="3.65" height="0.397" transform="translate(35.15 290.971) rotate(-35.68)" fill="#6c63ff"/>
      <rect id="Rectangle_4731" data-name="Rectangle 4731" width="3.65" height="0.397" transform="translate(30.817 294.09) rotate(-35.68)" fill="#6c63ff"/>
      <g id="Group_20369" data-name="Group 20369" transform="translate(469.68 56.18)" opacity="0.1">
        <path id="Path_61187" data-name="Path 61187" d="M741.673,105.25H689.988a2.706,2.706,0,0,0-2.7,2.7v32.683a2.715,2.715,0,0,0,2.7,2.706h40.554s1.051,5.57-2.4,6.174c0,0,7.73.554,6.381-6.174h7.151a2.715,2.715,0,0,0,2.706-2.706V107.948A2.715,2.715,0,0,0,741.673,105.25Z" transform="translate(-687.29 -105.25)"/>
        <g id="Group_18712" data-name="Group 18712" transform="translate(7.614 8.665)" opacity="0.2">
          <rect id="Rectangle_3775" data-name="Rectangle 3775" width="41.861" height="2.549" rx="1.275"/>
          <rect id="Rectangle_3776" data-name="Rectangle 3776" width="41.861" height="2.549" rx="1.275" transform="translate(0 11.405)"/>
          <rect id="Rectangle_3777" data-name="Rectangle 3777" width="35.108" height="2.549" rx="1.275" transform="translate(0 17.107)"/>
          <rect id="Rectangle_3778" data-name="Rectangle 3778" width="18.15" height="2.549" rx="1.275" transform="translate(0 5.702)"/>
        </g>
      </g>
      <path id="Path_65125" data-name="Path 65125" d="M742.213,105H690.536a2.706,2.706,0,0,0-2.706,2.7v32.65a2.706,2.706,0,0,0,2.706,2.723H731.09s1.051,5.578-2.4,6.174c0,0,7.722.555,6.373-6.174h7.167a2.706,2.706,0,0,0,2.7-2.7V107.682A2.706,2.706,0,0,0,742.213,105Z" transform="translate(-217.703 -49.028)" fill="#f9fafb"/>
      <g id="Group_20370" data-name="Group 20370" transform="translate(477.741 64.621)" opacity="0.2">
        <rect id="Rectangle_3779" data-name="Rectangle 3779" width="41.861" height="2.549" rx="1.275" fill="#6c63ff"/>
        <rect id="Rectangle_3780" data-name="Rectangle 3780" width="41.861" height="2.549" rx="1.275" transform="translate(0 11.405)" fill="#6c63ff"/>
        <rect id="Rectangle_3781" data-name="Rectangle 3781" width="35.108" height="2.549" rx="1.275" transform="translate(0 17.099)" fill="#6c63ff"/>
        <rect id="Rectangle_3782" data-name="Rectangle 3782" width="18.15" height="2.549" rx="1.275" transform="translate(0 5.702)" fill="#6c63ff"/>
      </g>
      <g id="Group_20371" data-name="Group 20371" transform="translate(508.553 0.522)" opacity="0.1">
        <path id="Path_61189" data-name="Path 61189" d="M799.659,38H737.5a3.252,3.252,0,0,0-3.244,3.31V80.54a3.252,3.252,0,0,0,3.244,3.253h48.764s1.258,6.7-2.888,7.449c0,0,9.294.662,7.664-7.449h8.616a3.261,3.261,0,0,0,3.252-3.253V41.31A3.253,3.253,0,0,0,799.659,38Z" transform="translate(-734.259 -38)"/>
        <g id="Group_18715" data-name="Group 18715" transform="translate(9.154 10.445)" opacity="0.2">
          <rect id="Rectangle_3783" data-name="Rectangle 3783" width="50.353" height="3.07" rx="1.535"/>
          <rect id="Rectangle_3784" data-name="Rectangle 3784" width="41.547" height="3.07" rx="1.535" transform="translate(0 13.714)"/>
          <rect id="Rectangle_3785" data-name="Rectangle 3785" width="29.91" height="3.07" rx="1.535" transform="translate(0 6.861)"/>
        </g>
      </g>
      <path id="Path_65126" data-name="Path 65126" d="M800.639,37.37H738.484a3.253,3.253,0,0,0-3.244,3.253V79.893a3.253,3.253,0,0,0,3.244,3.244h48.764s1.258,6.7-2.888,7.449c0,0,9.294.67,7.672-7.449h8.607a3.261,3.261,0,0,0,3.252-3.244V40.623A3.261,3.261,0,0,0,800.639,37.37Z" transform="translate(-225.874 -37.37)" fill="#f9fafb"/>
      <g id="Group_20372" data-name="Group 20372" transform="translate(518.519 10.428)" opacity="0.2">
        <rect id="Rectangle_3786" data-name="Rectangle 3786" width="50.353" height="3.07" rx="1.535" fill="#6c63ff"/>
        <rect id="Rectangle_3787" data-name="Rectangle 3787" width="41.547" height="3.07" rx="1.535" transform="translate(0 13.714)" fill="#6c63ff"/>
        <rect id="Rectangle_3788" data-name="Rectangle 3788" width="29.91" height="3.07" rx="1.535" transform="translate(0 6.853)" fill="#6c63ff"/>
      </g>
      <path id="Path_65127" data-name="Path 65127" d="M321.053,549.121l56.138-20.972a5.33,5.33,0,0,1,6.869,3.137h0a5.338,5.338,0,0,1-3.128,6.869l-56.138,20.972-12.034-1.208Z" transform="translate(-153.051 -121.91)" fill="#be8b87"/>
      <path id="Path_65128" data-name="Path 65128" d="M382.363,529.795h0a5.347,5.347,0,0,1-3.128,6.878L323.1,557.644l-9.029-.91-1.308,1.382,12.034,1.208,56.138-20.972a5.338,5.338,0,0,0,3.128-6.869h0a5.322,5.322,0,0,0-2.185-2.673,5.2,5.2,0,0,1,.488.985Z" transform="translate(-153.051 -122.082)" fill="#fff" opacity="0.1"/>
      <path id="Path_65129" data-name="Path 65129" d="M200.123,516.19l3.741,10.006-9.874-.993-2.16-.215,2.946-3.128Z" transform="translate(-32.112 -88.978)" fill="#efc8c4"/>
      <path id="Path_65130" data-name="Path 65130" d="M315.715,560.41a2.169,2.169,0,0,1,.571.629.9.9,0,0,1,0,.977,2.3,2.3,0,0,1-.538.389,1.8,1.8,0,0,0-.828,1.349l-2.16-.215Z" transform="translate(-153.051 -127.529)" fill="#727a9c"/>
      <g id="Group_20373" data-name="Group 20373" transform="translate(509.635 381.716)" opacity="0.5">
        <rect id="Rectangle_3789" data-name="Rectangle 3789" width="18.454" height="60.353" transform="translate(0 4.606) rotate(-14.452)" fill="url(#linear-gradient)"/>
      </g>
      <rect id="Rectangle_4732" data-name="Rectangle 4732" width="17.542" height="59.541" transform="translate(510.312 386.568) rotate(-14.452)" fill="#f9fafb"/>
      <rect id="Rectangle_4733" data-name="Rectangle 4733" width="12.402" height="12.402" transform="translate(513.043 386.831) rotate(-14.452)" fill="#f7b643"/>
      <rect id="Rectangle_4734" data-name="Rectangle 4734" width="12.381" height="12.381" transform="translate(516.317 398.965) rotate(-14.61)" fill="#f7b643" opacity="0.5"/>
      <rect id="Rectangle_4735" data-name="Rectangle 4735" width="12.381" height="12.381" transform="translate(520.084 413.43) rotate(-14.61)" fill="#f7b643" opacity="0.3"/>
      <g id="Group_20374" data-name="Group 20374" transform="translate(493.457 387.707)" opacity="0.5">
        <rect id="Rectangle_3794" data-name="Rectangle 3794" width="18.423" height="60.028" transform="translate(0 10.02) rotate(-32.95)" fill="url(#linear-gradient-2)"/>
      </g>
      <rect id="Rectangle_4736" data-name="Rectangle 4736" width="17.513" height="59.217" transform="translate(494.172 397.734) rotate(-32.95)" fill="#f9fafb"/>
      <rect id="Rectangle_4737" data-name="Rectangle 4737" width="12.381" height="12.381" transform="translate(496.858 397.137) rotate(-32.95)" fill="#f97878"/>
      <rect id="Rectangle_4738" data-name="Rectangle 4738" width="12.381" height="12.381" transform="translate(504.994 409.672) rotate(-32.95)" fill="#f97878" opacity="0.5"/>
      <rect id="Rectangle_4739" data-name="Rectangle 4739" width="12.381" height="12.381" transform="translate(513.126 422.219) rotate(-32.95)" fill="#f97878" opacity="0.3"/>
      <g id="Group_20375" data-name="Group 20375" transform="translate(486.356 394.453)" opacity="0.5">
        <rect id="Rectangle_3799" data-name="Rectangle 3799" width="18.423" height="60.028" transform="translate(0 12.947) rotate(-44.65)" fill="url(#linear-gradient-3)"/>
      </g>
      <rect id="Rectangle_4740" data-name="Rectangle 4740" width="17.513" height="59.217" transform="translate(487.073 407.258) rotate(-44.65)" fill="#f9fafb"/>
      <rect id="Rectangle_4741" data-name="Rectangle 4741" width="12.381" height="12.381" transform="translate(489.579 406.139) rotate(-44.65)" fill="#73b53b"/>
      <rect id="Rectangle_4742" data-name="Rectangle 4742" width="12.381" height="12.381" transform="translate(500.079 416.769) rotate(-44.65)" fill="#73b53b" opacity="0.5"/>
      <rect id="Rectangle_4743" data-name="Rectangle 4743" width="12.381" height="12.381" transform="translate(510.575 427.4) rotate(-44.65)" fill="#73b53b" opacity="0.3"/>
      <g id="Group_20376" data-name="Group 20376" transform="translate(483.073 400.55)" opacity="0.5">
        <rect id="Rectangle_3804" data-name="Rectangle 3804" width="18.423" height="60.028" transform="translate(0 14.488) rotate(-51.85)" fill="url(#linear-gradient-4)"/>
      </g>
      <rect id="Rectangle_4744" data-name="Rectangle 4744" width="17.513" height="59.217" transform="translate(483.756 414.807) rotate(-51.85)" fill="#fff"/>
      <rect id="Rectangle_4745" data-name="Rectangle 4745" width="12.381" height="12.381" transform="translate(486.099 413.381) rotate(-51.85)" fill="#6c63ff"/>
      <rect id="Rectangle_4746" data-name="Rectangle 4746" width="12.381" height="12.381" transform="translate(497.849 422.614) rotate(-51.85)" fill="#6c63ff" opacity="0.5"/>
      <rect id="Rectangle_4747" data-name="Rectangle 4747" width="12.381" height="12.381" transform="translate(509.613 431.841) rotate(-51.85)" fill="#6c63ff" opacity="0.3"/>
      <path id="Path_65131" data-name="Path 65131" d="M941.511,598.374a12.778,12.778,0,1,0,6.232,16.975A12.778,12.778,0,0,0,941.511,598.374Zm-8.7,18.787a7.912,7.912,0,1,1,6.055.25A7.92,7.92,0,0,1,932.813,617.161Z" transform="translate(-258.304 -133.869)" fill="#f0cbc6"/>
      <path id="Path_65132" data-name="Path 65132" d="M920.191,559l-23.778,16.726a11.644,11.644,0,0,0-5.024,9.526c0,6.009,2.74,15.03,15.849,23.174a11.86,11.86,0,0,0,12.837-.207l23.173-15.5Z" transform="translate(-252.791 -127.285)" fill="#f0cbc6"/>
      <path id="Path_65133" data-name="Path 65133" d="M952.04,591.353c-3.815,3.17-12.861-1.473-20.219-10.362s-10.238-18.646-6.422-21.808,12.878,1.481,20.235,10.362c.464.571.927,1.142,1.349,1.713l.48.654a34.089,34.089,0,0,1,5.893,11.943c.083.4.166.786.215,1.167C954.01,587.827,953.546,590.12,952.04,591.353Z" transform="translate(-258.363 -127.146)" fill="#f0cbc6"/>
      <ellipse id="Ellipse_4163" data-name="Ellipse 4163" cx="7.25" cy="16.892" rx="7.25" ry="16.892" transform="translate(664.002 439.71) rotate(-39.63)" fill="#f9fafb"/>
      <path id="Path_65134" data-name="Path 65134" d="M950.855,588.029c-.058.108-.124.207-.182.306a3.306,3.306,0,0,1-.588.629c-1.879,1.564-5.338.778-9.1-1.655l-.389-.265a30.779,30.779,0,0,1-3.509-2.83,37.968,37.968,0,0,1-3.36-3.584,30.329,30.329,0,0,1-1.978-2.6,32.419,32.419,0,0,1-2.359-3.923,1.352,1.352,0,0,1-.083-.149c-2.483-4.875-2.905-9.2-.77-10.966,3.087-2.557,10.411,1.2,16.362,8.384a29.118,29.118,0,0,1,1.97,2.607c.132.174.257.356.372.538C950.912,579.959,952.369,585.33,950.855,588.029Z" transform="translate(-258.957 -127.836)" opacity="0.1"/>
      <path id="Path_65135" data-name="Path 65135" d="M954.414,586.585a5.3,5.3,0,0,1-2.715,2.549l-.381.132a4.224,4.224,0,0,1-.828.165,6.892,6.892,0,0,1-2.9-.339c-3.906-1.233-5.711-1.208-6.53-.828a30.752,30.752,0,0,1-3.509-2.831,37.967,37.967,0,0,1-3.36-3.584,30.379,30.379,0,0,1-1.978-2.6,32.411,32.411,0,0,1-2.359-3.923c3.948,1.572,11.645,4.353,14.235,3.17a8.1,8.1,0,0,0,2.979-2.88h0l.256-.4.108-.174c.207-.339.414-.67.6-1.018A34.208,34.208,0,0,1,954.414,586.585Z" transform="translate(-259.421 -129.877)" opacity="0.1"/>
      <path id="Path_65136" data-name="Path 65136" d="M954.629,587.88a5.346,5.346,0,0,1-3.31,3.12,4.137,4.137,0,0,1-.828.166h0a6.893,6.893,0,0,1-2.9-.339,16.564,16.564,0,0,0-5.595-1.051,2.734,2.734,0,0,0-.935.2,30.759,30.759,0,0,1-3.509-2.831,37.958,37.958,0,0,1-3.36-3.584,30.356,30.356,0,0,1-1.978-2.6,31.818,31.818,0,0,1-2.359-3.923c.174.074.348.149.546.215,4.08,1.606,11.214,4.08,13.689,2.963a8.135,8.135,0,0,0,2.988-2.9l.257-.4.108-.174a2.626,2.626,0,0,0,.157-.257,18.987,18.987,0,0,0,.919-1.713,34.091,34.091,0,0,1,5.893,11.943C954.5,587.11,954.579,587.5,954.629,587.88Z" transform="translate(-259.421 -130.004)" opacity="0.1"/>
      <path id="Path_65137" data-name="Path 65137" d="M964.081,558.17a11.729,11.729,0,0,1-3.062,1.754,9.932,9.932,0,0,0-5.893,11.289l.05.207c1.349,5.686.761,13.631-3.857,14.955a4.239,4.239,0,0,1-.828.166,6.892,6.892,0,0,1-2.9-.339c-3.907-1.233-5.711-1.208-6.53-.828a30.779,30.779,0,0,1-3.509-2.831,37.935,37.935,0,0,1-3.36-3.584,30.327,30.327,0,0,1-1.978-2.6,32.417,32.417,0,0,1-2.359-3.923c3.948,1.572,11.645,4.353,14.235,3.178a8.136,8.136,0,0,0,2.988-2.905l.257-.4.108-.174a20.019,20.019,0,0,0,2.954-9.278c.306-4.469,2.284-12.232,12.547-9.8a2.905,2.905,0,0,1,1.142,5.107Z" transform="translate(-259.421 -126.183)" fill="#59393c"/>
      <path id="Path_65138" data-name="Path 65138" d="M658.635,292.318s1.291-3.865-.513-5.868l-3.741-4.138L635.345,254.7s-4.635-5.5-3.865-8.74-4.378-6.745-4.378-6.745,2.8-3.468,1.159-5.537-4.254-5.247-4.254-6.373-9.89-15.725-22.776-19.284l.4-.29a20.406,20.406,0,0,0-2.259-.372c-9.327-1.026-13.739-1.556-21.758-4.966l-.43.455-1.109-.455c-2.259-.96-4.8-2.135-7.813-3.617s-6.249-3.128-10.2-5.181a27.18,27.18,0,0,1-4.966-9.178c-.141-.414-.265-.828-.381-1.283a28.321,28.321,0,0,0,14.417-24.523,27.684,27.684,0,0,0-3.791-14.012c-.157-.273-.339-.53-.5-.828.058-.066.116-.124.166-.19a6.544,6.544,0,0,0,.463-.712,11.363,11.363,0,0,0,.687-1.556c.1-.265.19-.53.281-.828.372-1.084.745-2.168,1.126-3.253l1.117-3.253a21.6,21.6,0,0,0,1.366-6.108,7.912,7.912,0,0,0-.315-2.615,6.7,6.7,0,0,0-.513-1.208,6.15,6.15,0,0,0-.364-.579c-1.887-2.665-5.934-3.782-6.8-6.9a5.8,5.8,0,0,1-.174-1.515v-2.309a4.507,4.507,0,0,0-.066-.67,5.319,5.319,0,0,0-.174-.737.189.189,0,0,0-.058-.166,5.867,5.867,0,0,0-.281-.662h0a5.451,5.451,0,0,0-.405-.662.614.614,0,0,0-.066-.091,10.858,10.858,0,0,0-5.7-3.642,22.462,22.462,0,0,0-15.41.993,5.023,5.023,0,0,1-2.168.646c-1.225,0-2.168-1.01-3.228-1.606-3.41-1.928-7.68.116-10.958,2.251a16.8,16.8,0,0,0-4.362,3.658c-1.076,1.424-1.655,3.128-2.673,4.6-3.145,4.676-9.418,6.182-13.962,9.609-4.916,3.708-7.656,9.675-8.334,15.675s.538,12.075,2.367,17.852a19.97,19.97,0,0,0,.687,1.9c-.7,7.97,2.6,18.117,3.071,19.863.778,2.872-9.269,11.992-9.269,11.992l-30.928,26.774s-.124-.77-4.088-.488-11.4,9.278-11.4,9.278l.6.05c-.381.439-.6.7-.6.7l1.614.132c-4.8,4.138-10.461,9.1-13.4,12.009-.828.778-1.49,1.448-1.97,1.97-4.138,4.494-1.415,16.867-1.415,16.867s-.646,7.614,11.339,8.616c0,0,13.912,2.748,20.74,0s19.8-3.435,19.8-3.435-5.305,17.8-4.966,23.049-3.542,23.894-3.542,23.894l-11.852,62.3s-11.09,21.651,22.346,24.829v1.01s.828.124,2.127.265c-.058.712-.116,1.457-.174,2.226-.43,5.462-.894,12.034-.67,12.745a5.876,5.876,0,0,0,2.069,2.375L485.8,429.7s1.283,9.468,2.483,12.232,4.138,10.13,3.608,12.505,1.928,10.238,1.928,10.238,1.159,7.622,1.548,9.493,0,20.484,0,20.484a35.464,35.464,0,0,0,7.606,2.731c.075.3.149.613.232.927,1.217,4.966,2.922,11.852,3.857,15.435,1.539,5.992,4.891,16.486,4.891,16.486s.381,13.623,2.7,16.246,1.8,28.354,11.587,44.088c7.026,11.3,15.642,32.683,19.946,43.864-.157,5.049-.4,10.561-.745,15.27a10.956,10.956,0,0,0-2.682,4.85c-1.159,5.62-8.367,15.1-8.367,15.1s-7.341,6.124-10.436,7a5.48,5.48,0,0,0-1.556.828c-3.178,2.259-6.911,8.218.654,10.561,2.9.894,7.026.828,11.512.157a14.71,14.71,0,0,0,0,2.342s-3.865,9.493-5.545,13.118c-.612,1.324-1.986,3.228-3.2,5.239-2.135,3.526-3.782,7.374,0,9,1.159.5,21.129-.372,27.825,1.746S565.1,714.78,565.1,714.78s.513-7.118,2.061-10.114c.877-1.713.257-5.471-.439-8.4h0c-.538-2.218-1.109-3.956-1.109-3.956a119.856,119.856,0,0,1-1.655-18.05l9.857-7.184a8.872,8.872,0,0,0,3.46-9.311l-.331-1.316c-1.531-6.009-3.931-14.243-6.472-18.208a17.127,17.127,0,0,1,1.655-4.229c3.087-4.494,8.765-32.352,10.18-36.606a42.061,42.061,0,0,0,1.026-4.486c1.779-8.773,4.477-30.126.1-40.007l-2.243-24.134s-1.283-18.481.132-25.6a119.849,119.849,0,0,0,1.473-13.912v-.331l13.35.654V427.229l1.167-21.9.116-2.218h0a14.076,14.076,0,0,0,1.8.5c2.533-1.614,3.17-5.545,3.054-9.576a40.209,40.209,0,0,0-.447-6.455A15.666,15.666,0,0,0,606.155,380L634.1,354.738l.116-.223c.629-1.266,3.8-7.656,5.015-11.024,1.117-3.112.381-19.863.091-25.425,1.829.157,4.047.331,6.158.439,3.211.174,6.149.19,7.076-.207,2.326-1,5.28-8,7.6-12.241S658.635,292.318,658.635,292.318Zm-146.192-97.9s.654-6.215.728-13.888l4.138-1.374a22.954,22.954,0,0,0,1.953,1.655q.166.828.3,1.738a40.68,40.68,0,0,1-.166,15.162c-.2.141-5.669,3.84-7,7.8-.7,2.11-2.855,3.013-4.759,3.4a14.839,14.839,0,0,1-3.261.257s-2.019.331-5.073.828ZM539.986,492.7c-.174-.472-.323-.894-.464-1.266l.356-.215V488.35h0c.033,1.117.058,2.615.108,4.32Z" transform="translate(-172.641 -49.063)" fill="url(#linear-gradient-5)"/>
      <path id="Path_65139" data-name="Path 65139" d="M602.434,228.761s-13.962,17.827-25.143,31.88c-7.209,9.046-13.242,16.552-13.7,16.677a7.106,7.106,0,0,1-1.357-.066c-5.628-.5-27.005-3.476-36.73-4.85l-4.866-.687s.306-8.409,1.6-18.605c1.531-12.232,4.486-27.03,9.981-32.939a16.8,16.8,0,0,0,3.534-6.017c1.953-5.545,1.655-12.166.877-17.62a66.433,66.433,0,0,0-2.541-10.759s35.48-20.914,33.61-1.862A36.232,36.232,0,0,0,569,198.42c2.681,8.624,8.044,12.414,8.044,12.414l.149.108Z" transform="translate(-188.884 -61.249)" fill="#ffb9b9"/>
      <path id="Path_65140" data-name="Path 65140" d="M571.806,198.453a28.4,28.4,0,0,1-32.335-1.92,66.428,66.428,0,0,0-2.541-10.759s35.48-20.914,33.61-1.862a36.232,36.232,0,0,0,1.266,14.541Z" transform="translate(-191.692 -61.249)" opacity="0.1"/>
      <path id="Path_65141" data-name="Path 65141" d="M583.645,166.176a28.363,28.363,0,1,1-3.691-13.97A28.363,28.363,0,0,1,583.645,166.176Z" transform="translate(-189.965 -54.687)" fill="#ffb9b9"/>
      <path id="Path_65142" data-name="Path 65142" d="M579.951,152.216a4.723,4.723,0,0,1-.323.5c-1.87,2.541-5.5,2.955-8.64,2.69-3.716-.323-7.829-1.655-9.418-5.015-1.465-3.112-1.059-6.447-5.09-6.911-3.493-.406-8.177-2.847-11.587-1.448-2.69,1.117-3.766,4.378-4.014,7.291s0,6-1.357,8.591c-1.283,2.441-3.782,4.064-5.082,6.5-1.457,2.748-1.15,6.058-.77,9.154s.77,6.373-.579,9.178a5.99,5.99,0,0,1-.4.712,28.388,28.388,0,1,1,47.258-31.243Z" transform="translate(-189.963 -54.696)" opacity="0.1"/>
      <path id="Path_65143" data-name="Path 65143" d="M558.261,143.718c1.589,3.368,5.7,4.693,9.418,5.007,3.145.273,6.77-.141,8.64-2.69a10.85,10.85,0,0,0,1.382-3.054l2.168-6.489c1.142-3.435,2.218-7.449.174-10.469-1.829-2.657-5.744-3.766-6.58-6.886-.389-1.448,0-3-.207-4.477-.48-3.054-3.517-5.04-6.472-5.951a21.038,21.038,0,0,0-14.9.993,4.817,4.817,0,0,1-2.094.637c-1.184,0-2.094-1-3.12-1.6-3.311-1.92-7.449.116-10.585,2.243a16.262,16.262,0,0,0-4.221,3.65c-1.035,1.415-1.655,3.112-2.582,4.585-3.046,4.66-9.1,6.158-13.49,9.576-4.759,3.691-7.407,9.634-8.053,15.617s.513,12.034,2.276,17.794a12.679,12.679,0,0,0,1.366,3.236c1.788,2.715,5.346,3.873,7.085,6.621,1.4,2.21,1.531,5.305,3.658,6.836,2.524,1.813,6.331,0,7.672-2.839s.96-6.1.579-9.187-.687-6.406.77-9.154c1.291-2.433,3.807-4.055,5.082-6.5,1.349-2.59,1.117-5.678,1.357-8.591s1.324-6.166,4.022-7.283c3.385-1.407,8.069,1.043,11.587,1.44C557.2,137.271,556.8,140.6,558.261,143.718Z" transform="translate(-186.63 -49.509)" fill="#303030"/>
      <g id="Group_20377" data-name="Group 20377" transform="translate(323.255 62.238)" opacity="0.1">
        <path id="Path_61211" data-name="Path 61211" d="M517.463,179.547c-1.746-2.748-5.305-3.906-7.093-6.621a.479.479,0,0,1,0-.066c.05.19.108.381.166.571a12.678,12.678,0,0,0,1.366,3.236c1.788,2.715,5.346,3.873,7.084,6.621.1.157.2.323.29.5A28.979,28.979,0,0,0,517.463,179.547Z" transform="translate(-510.369 -122.963)"/>
        <path id="Path_61212" data-name="Path 61212" d="M585.355,116.236a5.114,5.114,0,0,0,1.316,2.226,19.755,19.755,0,0,0,0-2.971,5.745,5.745,0,0,0-1.424-2.921A15.468,15.468,0,0,0,585.355,116.236Z" transform="translate(-523.265 -112.57)"/>
        <path id="Path_61213" data-name="Path 61213" d="M554.09,137.94c-3.493-.4-8.185-2.847-11.587-1.44-2.7,1.117-3.774,4.37-4.014,7.283s0,6-1.366,8.591c-1.275,2.442-3.782,4.064-5.073,6.5-1.465,2.748-1.15,6.058-.77,9.154s.761,6.373-.579,9.187-5.156,4.651-7.68,2.839a5.132,5.132,0,0,1-1.481-1.779c.827,1.995,1.25,4.271,2.979,5.512,2.524,1.813,6.331,0,7.672-2.839s.96-6.1.579-9.187-.687-6.406.77-9.154c1.291-2.433,3.807-4.055,5.082-6.5,1.349-2.59,1.117-5.678,1.357-8.591s1.324-6.166,4.022-7.283c3.385-1.407,8.069,1.043,11.587,1.44a3.964,3.964,0,0,1,2.963,1.539C557.716,140.655,557.409,138.329,554.09,137.94Z" transform="translate(-512.294 -116.621)"/>
        <path id="Path_61214" data-name="Path 61214" d="M590.389,129.717c-.124-.174-.248-.339-.381-.5a18.6,18.6,0,0,1-1.291,7.233l-2.16,6.489a10.646,10.646,0,0,1-1.39,3.054c-1.862,2.541-5.5,2.955-8.64,2.69-3.393-.29-7.126-1.424-8.947-4.2a21.766,21.766,0,0,0,1.026,2.93c1.589,3.368,5.7,4.693,9.418,5.007,3.145.273,6.77-.141,8.64-2.69a10.847,10.847,0,0,0,1.382-3.054c.72-2.16,1.448-4.32,2.168-6.489C591.358,136.751,592.434,132.7,590.389,129.717Z" transform="translate(-520.23 -115.44)"/>
      </g>
      <rect id="Rectangle_4748" data-name="Rectangle 4748" width="18.704" height="39.519" rx="4.67" transform="translate(322.044 98.132) rotate(-18.77)" fill="#464a5f"/>
      <rect id="Rectangle_4749" data-name="Rectangle 4749" width="18.704" height="39.519" rx="4.67" transform="translate(321.375 98.133) rotate(-18.77)" fill="#9c9ca1"/>
      <circle id="Ellipse_4164" data-name="Ellipse 4164" cx="2.938" cy="2.938" r="2.938" transform="translate(330.705 103.23)" fill="#939498"/>
      <path id="Path_65144" data-name="Path 65144" d="M520.49,574.415S524.1,589.6,525.6,595.577s4.734,16.437,4.734,16.437.372,13.565,2.607,16.18,1.746,28.263,11.206,43.947,21.916,50.924,21.916,50.924l1.655,11.951,15.94-18.547L570.412,648.6s-7.713-27.51-5.355-36.1-9.832-41.952-9.832-41.952Z" transform="translate(-188.858 -129.276)" fill="#ffb9b9"/>
      <path id="Path_65145" data-name="Path 65145" d="M583.6,716.46l-15.94,18.555-1.655-11.951s-12.414-35.232-21.916-50.924-8.963-41.323-11.206-43.939-2.607-16.188-2.607-16.188-3.236-10.461-4.734-16.437c-.894-3.567-2.541-10.445-3.724-15.377-.828-3.31-1.382-5.793-1.382-5.793l34.76-3.857s.389,1.051,1,2.83c2.872,8.235,10.759,32.054,8.831,39.122-2.367,8.591,5.363,36.1,5.363,36.1Z" transform="translate(-188.849 -129.276)" opacity="0.05"/>
      <path id="Path_65146" data-name="Path 65146" d="M592.1,777.787,578.175,788.24c-6.729,7.225-26.484,13.2-35.108,10.461-7.316-2.334-3.708-8.276-.629-10.527a5.107,5.107,0,0,1,1.5-.828c2.988-.877,10.089-6.977,10.089-6.977s6.969-9.46,8.086-15.063,9.1-10.213,9.1-10.213,10.7-10.453,15.559-8.342c3.17,1.39,6.447,12.721,8.351,20.409l.314,1.316A8.98,8.98,0,0,1,592.1,777.787Z" transform="translate(-192.01 -159.601)" fill="#1f2657"/>
      <path id="Path_65147" data-name="Path 65147" d="M592.1,782.1l-13.921,10.453c-6.729,7.225-26.484,13.2-35.108,10.461-7.316-2.334-3.708-8.276-.629-10.527,2.971,4.643,13.821,3.807,13.821,3.807l19.3-8.591,19.557-16.2.315,1.316A8.98,8.98,0,0,1,592.1,782.1Z" transform="translate(-192.01 -163.917)" opacity="0.1"/>
      <path id="Path_65148" data-name="Path 65148" d="M566.9,721.983s-12.414-35.24-21.907-50.924-8.963-41.332-11.206-43.947-2.615-16.18-2.615-16.18-3.236-10.461-4.726-16.437c-.9-3.575-2.549-10.445-3.733-15.377-.828-3.311-1.382-5.793-1.382-5.793l32.584-3.625-.091-.24-34.76,3.865s.579,2.483,1.382,5.793c1.175,4.966,2.831,11.8,3.724,15.377,1.49,5.975,4.726,16.437,4.726,16.437s.372,13.565,2.615,16.18,1.738,28.263,11.206,43.947,21.907,50.924,21.907,50.924l1.655,11.951,1.937-2.251Z" transform="translate(-188.611 -129.088)" opacity="0.05"/>
      <rect id="Rectangle_4750" data-name="Rectangle 4750" width="38.84" height="44.866" transform="translate(421.768 221.986)" fill="#caa8b1"/>
      <path id="Path_65149" data-name="Path 65149" d="M669.771,384.281c-1.175,3.352-4.237,9.716-4.85,10.974-.066.157-.108.232-.108.232L636.9,421.474l-.67.621-.174-.571c-1.473-4.966-11.976-40.181-13.242-42.1-1.01-1.514-.521-7.73-.207-10.858.116-1.109.207-1.821.207-1.821l-.811-24.4,4.138-7.945,38.327,12.133,5.371,10.552S671.078,380.54,669.771,384.281Z" transform="translate(-206.355 -88.57)" fill="#caa8b1"/>
      <path id="Path_65150" data-name="Path 65150" d="M664.424,401.831c-.066.157-.108.232-.108.232L636.4,428.051l-.828.05-9.534.571L619.12,372.55s1.134,1.035,3.021,2.59c5.5,4.527,17.38,13.507,26.484,14.69C657.58,391,662.454,398.1,664.424,401.831Z" transform="translate(-205.859 -95.146)" fill="none"/>
      <path id="Path_65151" data-name="Path 65151" d="M664.424,401.831c-.066.157-.108.232-.108.232L636.4,428.051l-.828.05-9.534.571L619.12,372.55s1.134,1.035,3.021,2.59c5.5,4.527,17.38,13.507,26.484,14.69C657.58,391,662.454,398.1,664.424,401.831Z" transform="translate(-205.859 -95.146)" opacity="0.1"/>
      <path id="Path_65152" data-name="Path 65152" d="M673.778,389.011s-5.793-.563-8.276-2.847-8.872-5.934-8.872-5.934l9.054,9.989S672.562,392.454,673.778,389.011Z" transform="translate(-212.325 -96.47)" opacity="0.1"/>
      <path id="Path_65153" data-name="Path 65153" d="M650.05,398.51s.555,10.172,6.72,10.271S650.05,398.51,650.05,398.51Z" transform="translate(-211.19 -99.621)" opacity="0.1"/>
      <path id="Path_65154" data-name="Path 65154" d="M657.72,398.51s4.668,8.491,6.911,7.374S657.72,398.51,657.72,398.51Z" transform="translate(-212.512 -99.621)" opacity="0.1"/>
      <path id="Path_65155" data-name="Path 65155" d="M491.123,291.4l-6.513,2.408s-12.539.687-19.135,3.426-20.045,0-20.045,0,23.405-30.506,23.778-30.622,24.779-9.1,24.779-9.1Z" transform="translate(-175.919 -75.316)" fill="#cbcdda"/>
      <path id="Path_65156" data-name="Path 65156" d="M491.123,291.4l-6.513,2.408s-12.539.687-19.135,3.426-20.045,0-20.045,0,23.405-30.506,23.778-30.622,24.779-9.1,24.779-9.1Z" transform="translate(-175.919 -75.316)" fill="#273068" opacity="0.03"/>
      <path id="Path_65157" data-name="Path 65157" d="M604.619,676.153c-1.366,4.237-6.844,32-9.832,36.482s-6.472,30.25-6.472,30.25l-.67.472-1.448,1.018s-21.427-.993-18.944-4.85a11.223,11.223,0,0,0,.935-3.608c1.655-10.478,1.8-38.344,1.8-38.344l.248-44.2s5.628-14.26,1.738-24.771a54.954,54.954,0,0,1-3.484-19.416s.621-10.213-2.119-14.318c-2.218-3.311-2.64-20.922-2.715-27.394v-2.4l3.476-5.189,38.071,2.615s-.083,3.07-.315,7.051a119.4,119.4,0,0,1-1.423,13.863c-1.366,7.093-.124,25.516-.124,25.516l2.119,24C610.47,644.538,605.993,671.924,604.619,676.153Z" transform="translate(-196.299 -127.437)" fill="#ffb9b9"/>
      <path id="Path_65158" data-name="Path 65158" d="M556.227,573.409v.281c-13.706,8.74-26.352,8.276-34.355,6.53-.828-3.31-1.382-5.793-1.382-5.793l34.76-3.857S555.614,571.613,556.227,573.409Z" transform="translate(-188.858 -129.28)" opacity="0.05"/>
      <path id="Path_65159" data-name="Path 65159" d="M608.117,455.551l-.5,9.667L606.5,487.042l-54.4,8.847v54.9c-23.041,14.682-43.036,3.476-43.036,3.476s.372-18.547,0-20.417-1.5-9.46-1.5-9.46-2.367-7.846-1.862-10.2-2.375-9.708-3.493-12.414-2.359-12.191-2.359-12.191l-1.275-11a5.793,5.793,0,0,1-1.995-2.375c-.215-.7.232-7.25.646-12.7.315-4.039.6-7.449.6-7.449l50.791-9.584Z" transform="translate(-184.726 -107.89)" fill="#1f2657"/>
      <path id="Path_65160" data-name="Path 65160" d="M560.8,514.033V557.07c-1.018-.6-2.433-2.077-2.574-5.694-.223-5.727-.679-19.292-1.49-25.392s3.1-12.7,3.1-12.7Z" transform="translate(-195.087 -119.405)" opacity="0.05"/>
      <path id="Path_65161" data-name="Path 65161" d="M524.1,493.09s2.483,5.6,10.585,7.093S524.1,493.09,524.1,493.09Z" transform="translate(-189.48 -115.925)" opacity="0.1"/>
      <path id="Path_65162" data-name="Path 65162" d="M514.63,506.63s17.173,2.864,21.286,2.739" transform="translate(-187.847 -118.258)" opacity="0.1"/>
      <path id="Path_65163" data-name="Path 65163" d="M520.94,521.327s9.675.124,15.237-2.367" transform="translate(-188.935 -120.384)" opacity="0.1"/>
      <path id="Path_65164" data-name="Path 65164" d="M518.54,554.157s24.9-9.5,27.883-14.467" transform="translate(-188.521 -123.957)" opacity="0.1"/>
      <path id="Path_65165" data-name="Path 65165" d="M525.61,568.409c.828-.124,22.776-13.325,24.647-16.809" transform="translate(-189.74 -126.01)" opacity="0.1"/>
      <path id="Path_65166" data-name="Path 65166" d="M605.245,562.455s-.083,3.071-.315,7.051l-41.241-2.077h0v-2.4l3.476-5.189Z" transform="translate(-196.304 -127.431)" opacity="0.1"/>
      <path id="Path_65167" data-name="Path 65167" d="M573.17,502.842s20.989-5.181,25.408-1.846S573.17,502.842,573.17,502.842Z" transform="translate(-197.938 -117.094)" opacity="0.1"/>
      <path id="Path_65168" data-name="Path 65168" d="M547.87,459.09s4.229,39.594,7.722,42.209,18.3-42.209,18.3-42.209Z" transform="translate(-193.577 -110.064)" opacity="0.1"/>
      <path id="Path_65169" data-name="Path 65169" d="M548.77,457.29s4.237,39.594,7.722,42.209,18.3-42.209,18.3-42.209Z" transform="translate(-193.732 -109.754)" fill="#1f2657"/>
      <path id="Path_65170" data-name="Path 65170" d="M608.263,455.554l-.5,9.667a35.589,35.589,0,0,1-10.7-6.182,4.567,4.567,0,0,0-.521-.4c-4.246-3.037-9.8-1.92-13.424-.637a26.246,26.246,0,0,0-3.733,1.655s-55.029,1.87-55.029.372c0-1.1-7.788.579-13.027,2.028a39.214,39.214,0,0,0-4.138,1.332h0c-1.986.828-6.844.463-9.642.141h-.174c.314-4.039.6-7.449.6-7.449l50.791-9.584Z" transform="translate(-184.872 -107.893)" opacity="0.1"/>
      <path id="Path_65171" data-name="Path 65171" d="M609.226,430.2a14.141,14.141,0,0,1-1.746-.5,35.2,35.2,0,0,1-10.825-6.224c-.174-.141-.339-.273-.521-.4-4.246-3.029-9.8-1.92-13.424-.629a25.162,25.162,0,0,0-3.733,1.655s-55.029,1.87-55.029.372c0-1.1-7.788.579-13.027,2.028a41.81,41.81,0,0,0-4.138,1.324h0c-1.986.828-6.844.463-9.642.149-1.225-.149-2.061-.273-2.061-.273v-.422L497.8,358.23l7.838-61.493,2.872-25.772,9.311-4.535,9.36-4.56a24.366,24.366,0,0,0,3.576,3.973c4.759,4.312,14.02,9.692,26.385,2.417a37.905,37.905,0,0,0,3.906-2.648c4.221-3.253,8.185.422,11.827,8.351,14.235,30.887,23.529,126.229,23.529,126.229l14.07,9.1s.48,1.8.943,4.353C612.363,418.953,613.19,427.594,609.226,430.2Z" transform="translate(-184.478 -76.068)" opacity="0.1"/>
      <path id="Path_65172" data-name="Path 65172" d="M609.233,432a13,13,0,0,1-1.746-.5,35.588,35.588,0,0,1-10.825-6.224,5.787,5.787,0,0,0-.521-.4c-4.246-3.029-9.8-1.92-13.424-.637a25.652,25.652,0,0,0-3.733,1.655s-55,1.912-55,.381c0-1.109-7.788.571-13.027,2.019a41.262,41.262,0,0,0-4.138,1.332h0c-1.986.828-6.844.463-9.642.141-1.225-.141-2.061-.265-2.061-.265v-.43l2.723-69.04,7.838-61.5,2.872-25.772,9.311-4.535,9.36-4.552a24.146,24.146,0,0,0,3.575,3.964c4.759,4.32,14.02,9.7,26.385,2.425a38.074,38.074,0,0,0,3.906-2.657c4.221-3.253,8.185.43,11.827,8.351,14.227,30.879,23.521,126.229,23.521,126.229l14.07,9.1s.48,1.8.943,4.345C612.37,420.763,613.2,429.4,609.233,432Z" transform="translate(-184.484 -76.381)" fill="#fff"/>
      <path id="Path_65173" data-name="Path 65173" d="M624.292,407.021c-3.658,4.626-9.733,7.6-15.286,9.451a66.862,66.862,0,0,1-12.572,2.963l-.828-3.567c-2.028-8.136-7.142-28.139-10.08-35.588a85.036,85.036,0,0,1-4.742-20.409,106.9,106.9,0,0,0-5.529-29.381c-2.408-7-3.766-26.873-4.535-46.5-.306-7.738-.521-15.444-.679-22.3-.306-14.128-.331-24.688-.331-24.688l4.477-7.1a14.567,14.567,0,0,1,2.028-9.1,23.43,23.43,0,0,1,4.569-5.719c1.755.935,3.369,1.8,4.891,2.6l25.243,17.819s-13.962,17.827-25.143,31.88C600,298.246,609.3,393.6,609.3,393.6l14.07,9.1S623.828,404.538,624.292,407.021Z" transform="translate(-197.341 -68.001)" opacity="0.1"/>
      <path id="Path_65174" data-name="Path 65174" d="M620.914,359.484c-.753,14.434,8.458,38.584,8.458,38.584-1.49,17.182-31.119,20.426-31.119,20.426s-7.225-29.629-10.958-39.1a85.455,85.455,0,0,1-4.734-20.418,107.035,107.035,0,0,0-5.537-29.372c-5.3-15.444-5.545-93.522-5.545-93.522l4.486-7.093a14.566,14.566,0,0,1,2.019-9.1,23.56,23.56,0,0,1,4.577-5.719c3.815,2.044,7.051,3.741,9.857,5.164s5.371,2.648,7.556,3.608c7.747,3.377,12.009,3.9,21.022,4.924a17.455,17.455,0,0,1,2.185.372c12.985,2.971,23.124,18.448,23.124,19.507s2.524,4.3,4.138,6.348-1.126,5.512-1.126,5.512,4.966,3.493,4.237,6.729,3.733,8.715,3.733,8.715L629.4,296.212S621.659,345.034,620.914,359.484Z" transform="translate(-197.647 -67.845)" fill="#1f2657"/>
      <circle id="Ellipse_4165" data-name="Ellipse 4165" cx="1.539" cy="1.539" r="1.539" transform="translate(376.63 180.63)" fill="#767d9f"/>
      <circle id="Ellipse_4166" data-name="Ellipse 4166" cx="1.539" cy="1.539" r="1.539" transform="translate(376.63 201.171)" fill="#767d9f"/>
      <circle id="Ellipse_4167" data-name="Ellipse 4167" cx="1.539" cy="1.539" r="1.539" transform="translate(382.051 250.067)" fill="#767d9f"/>
      <circle id="Ellipse_4168" data-name="Ellipse 4168" cx="1.539" cy="1.539" r="1.539" transform="translate(385.974 275.094)" fill="#767d9f"/>
      <circle id="Ellipse_4169" data-name="Ellipse 4169" cx="1.539" cy="1.539" r="1.539" transform="translate(389.797 301.512)" fill="#767d9f"/>
      <circle id="Ellipse_4170" data-name="Ellipse 4170" cx="1.539" cy="1.539" r="1.539" transform="translate(379.709 225.214)" fill="#767d9f"/>
      <path id="Path_65175" data-name="Path 65175" d="M593.77,221.157a34.01,34.01,0,0,1-7.829,6.621c-1.407,0-4.809-3.915-6.621-6.108a23.619,23.619,0,0,1,4.577-5.711C587.729,218.046,590.965,219.742,593.77,221.157Z" transform="translate(-198.998 -68.154)" opacity="0.1"/>
      <path id="Path_65176" data-name="Path 65176" d="M593.77,219.364a34.749,34.749,0,0,1-7.829,6.662c-1.407,0-4.809-3.915-6.621-6.108A23.562,23.562,0,0,1,583.9,214.2C587.729,216.244,590.965,217.941,593.77,219.364Z" transform="translate(-198.998 -67.851)" fill="#273068"/>
      <path id="Path_65177" data-name="Path 65177" d="M538.153,244.577s-3.749,8.988-7.374,15.543a28.666,28.666,0,0,1-3.948,5.868c-2.086,2.086-4.138,8.359-5.719,14.012-1.506,5.479-2.483,10.387-2.483,10.387-2.119,3.244-2.119,43.45-2.119,43.45,3.617,15.443-2.988,59.258-2.988,59.258l-1.945,21.27-.6,6.406-.108,1.217c-1.4.058-2.748.1-4.039.116h0a92.753,92.753,0,0,1-9.6-.339c-.72-.058-1.415-.132-2.086-.215l2.723-69.041,7.838-61.5,2.872-25.772,9.311-4.535c1.531-12.232,4.486-27.03,9.981-32.939a16.8,16.8,0,0,0,3.534-6.017,27.507,27.507,0,0,1,2.226-1.763s.96,1.846,2.094,4.055c1.217,2.375,2.64,5.173,3.311,6.621C540.4,233.371,538.153,244.577,538.153,244.577Z" transform="translate(-184.49 -68.848)" opacity="0.1"/>
      <path id="Path_65178" data-name="Path 65178" d="M531.8,243.686s-7.217,17.306-11.322,21.411-8.218,24.4-8.218,24.4c-2.119,3.244-2.119,43.45-2.119,43.45,3.608,15.443-2.988,59.258-2.988,59.258l-2.682,28.884c-49.368,2.284-35.828-25.019-35.828-25.019L480.1,334s3.8-18.588,3.426-23.819,4.759-22.967,4.759-22.967-9.054-47.059-8.119-49.2,32.493-7.449,32.493-7.449a13.878,13.878,0,0,0,3.153-.257c1.837-.381,3.915-1.283,4.593-3.385,1.316-4.022,6.795-7.788,6.795-7.788s.952,1.846,2.086,4.064c1.217,2.375,2.648,5.173,3.36,6.621C534.029,232.48,531.8,243.686,531.8,243.686Z" transform="translate(-179.627 -68.701)" fill="#1f2657"/>
      <path id="Path_65179" data-name="Path 65179" d="M539.507,224.945c-4.891,4.411-10.147,20.285-10.147,20.285l-3.31-13.176c1.837-.381,3.915-1.283,4.593-3.385,1.316-4.014,6.795-7.78,6.795-7.78Z" transform="translate(-189.816 -69.004)" opacity="0.1"/>
      <path id="Path_65180" data-name="Path 65180" d="M539.507,223.154c-4.891,4.411-10.147,20.285-10.147,20.285l-3.31-13.176c1.837-.381,3.915-1.283,4.593-3.385,1.316-4.022,6.795-7.788,6.795-7.788Z" transform="translate(-189.816 -68.694)" fill="#273068"/>
      <path id="Path_65181" data-name="Path 65181" d="M472.24,435.551s.654,7.565,16.155,2.9S472.24,435.551,472.24,435.551Z" transform="translate(-180.541 -105.95)" opacity="0.1"/>
      <path id="Path_65182" data-name="Path 65182" d="M693.347,338.491c-2.243,4.229-5.106,11.206-7.341,12.2-.9.4-3.741.381-6.844.215-4.643-.248-9.84-.828-9.84-.828s11.694-25.449-4.246-31.93H650.65l-9.22-9.617L665.7,285.25l3.617,2.119,18.423,27.469s1.87,2.11,3.617,4.138.488,5.851.488,5.851S695.59,334.262,693.347,338.491Z" transform="translate(-209.704 -80.098)" fill="#1f2657"/>
      <path id="Path_65183" data-name="Path 65183" d="M596.355,300.831s6.994-54.872,27.858-69.843a18.98,18.98,0,0,0-2.177-.372c-9.013-1.026-13.242-1.548-21.03-4.966A54.623,54.623,0,0,0,586.242,266.2c1.531,28.015,0,34.553,0,34.553h2.483c4.453,9.021,23.356,46.5,33.85,54.367l1.117-9.534s-27.245-31.45-29.6-44.832Z" transform="translate(-200.176 -69.825)" opacity="0.1"/>
      <path id="Path_65184" data-name="Path 65184" d="M599.965,299.94s6.993-54.88,27.858-69.843a17.317,17.317,0,0,0-2.177-.372c-9.013-1.026-13.242-1.548-21.03-4.924a54.623,54.623,0,0,0-14.765,40.554c1.531,28.015,0,34.553,0,34.553h2.483c4.453,9.021,23.356,46.488,33.85,54.358l1.117-9.526s-27.245-31.45-29.6-44.832Z" transform="translate(-200.798 -69.678)" opacity="0.1"/>
      <path id="Path_65185" data-name="Path 65185" d="M589.86,313s22.859,47.357,34.81,56.279l1.117-9.526s-32.054-36.995-29.629-47.82Z" transform="translate(-200.815 -84.697)" fill="#caa8b1"/>
      <path id="Path_65186" data-name="Path 65186" d="M626.063,230.1C605.19,245.067,598.2,299.947,598.2,299.947H588.042s1.531-6.538,0-34.553a54.624,54.624,0,0,1,14.773-40.554c7.747,3.377,12.009,3.9,21.022,4.924A17.459,17.459,0,0,1,626.063,230.1Z" transform="translate(-200.487 -69.685)" fill="#caa8b1"/>
      <path id="Path_65187" data-name="Path 65187" d="M498.854,342.86l-.654,38.1,6.439,3.269Z" transform="translate(-84.922 -59.1)" opacity="0.1"/>
      <path id="Path_65188" data-name="Path 65188" d="M637.07,281.224c4.3-1.026,15.311-4.668,15.725-8.276S637.07,281.224,637.07,281.224Z" transform="translate(-208.953 -77.86)" opacity="0.1"/>
      <path id="Path_65189" data-name="Path 65189" d="M637.829,290.04s13.631-5.611,15.783-7.846S635.777,285.563,637.829,290.04Z" transform="translate(-209.058 -79.484)" opacity="0.1"/>
      <path id="Path_65190" data-name="Path 65190" d="M521.568,243.68s-5.951,11.736-2.367,12.961S521.568,243.68,521.568,243.68Z" transform="translate(-188.438 -72.932)" opacity="0.1"/>
      <path id="Path_65191" data-name="Path 65191" d="M569.2,398.51s-47.8,28.23-37.723,29.844S569.2,398.51,569.2,398.51Z" transform="translate(-190.511 -99.621)" opacity="0.1"/>
      <path id="Path_65192" data-name="Path 65192" d="M612,470.67s12.572,2.367,12.075,6.232" transform="translate(-204.632 -112.06)" opacity="0.1"/>
      <path id="Path_65193" data-name="Path 65193" d="M667.311,327.324l-.563,14.533s-3.542,6.158-6.124,6.935a3.31,3.31,0,0,1-.952.066h0c-5.073-.273-24.225-5.876-25.938-9.054-1.87-3.451-30.159-15.866-30.159-15.866s-23.8-36.142-5.975-44.915,16.991,34.082,16.991,34.082,16.155,2.425,18.208,3.733c1.722,1.126,17.6.339,22.346.074l1.233-.041,5.04.927Z" transform="translate(-201.008 -78.82)" fill="#ffb9b9"/>
      <path id="Path_65194" data-name="Path 65194" d="M680.668,335.453l-.563,14.533s-3.542,6.158-6.124,6.935a3.311,3.311,0,0,1-.952.066h0l-.5-.058s11.587-25.259-4.064-31.888l1.275-.041,5.04.927Z" transform="translate(-214.364 -86.95)" opacity="0.1"/>
      <path id="Path_65195" data-name="Path 65195" d="M684.991,357.5c-4.635-.248-9.832-.828-9.832-.828s11.686-25.441-4.229-31.955h0L683.4,323.48C699.011,333.842,688.211,352.6,684.991,357.5Z" transform="translate(-214.789 -86.688)" opacity="0.1"/>
      <path id="Path_65196" data-name="Path 65196" d="M684.07,357.5c-4.643-.248-9.841-.828-9.841-.828s11.711-25.449-4.229-31.93h0l12.505-1.217C698.139,333.85,687.306,352.6,684.07,357.5Z" transform="translate(-214.629 -86.697)" fill="#273068"/>
      <path id="Path_65197" data-name="Path 65197" d="M460.49,237.644l36.093-32.112s9.708-9.1,8.963-11.951-8.839-28.139,4.726-29.629,9.1,42.325,9.1,42.325l-38.716,47.555Z" transform="translate(-178.515 -59.183)" fill="#ffb9b9"/>
      <path id="Path_65198" data-name="Path 65198" d="M432.924,286.52s-2.615-12.323,1.366-16.8,22.04-20.169,22.04-20.169,9.063,14.07,25.143,12.017l-18.009,24.084s-7.97,10.461-19.548,9.46S432.924,286.52,432.924,286.52Z" transform="translate(-173.617 -73.945)" opacity="0.1"/>
      <path id="Path_65199" data-name="Path 65199" d="M432.015,287.428s-2.615-12.323,1.374-16.809S455.42,250.45,455.42,250.45s15.444,15.559,24.283,17.43l-17.181,18.671s-7.97,10.461-19.548,9.468S432.015,287.428,432.015,287.428Z" transform="translate(-173.461 -74.1)" fill="#1f2657"/>
      <path id="Path_65200" data-name="Path 65200" d="M466.016,257.314l-16.106-1.432s7.184-8.963,11.016-9.245,3.948.488,3.948.488l-5.082,4.519Z" transform="translate(-176.691 -73.431)" opacity="0.1"/>
      <path id="Path_65201" data-name="Path 65201" d="M466.016,256.413l-16.106-1.432s7.184-8.963,11.016-9.245,3.948.488,3.948.488l-5.082,4.519Z" transform="translate(-176.691 -73.277)" fill="#273068"/>
      <path id="Path_65202" data-name="Path 65202" d="M472.885,263.28s-4.138,14.666,10.2,15.65l4.577-14.227S478.38,266.524,472.885,263.28Z" transform="translate(-180.556 -76.311)" opacity="0.1"/>
      <path id="Path_65203" data-name="Path 65203" d="M473.792,262.38s-4.18,14.624,10.2,15.65l4.577-14.252S479.288,265.624,473.792,262.38Z" transform="translate(-180.711 -76.155)" fill="#273068"/>
      <path id="Path_65204" data-name="Path 65204" d="M606.468,631.576l-2.119-24s-1.242-18.423.124-25.516a121.167,121.167,0,0,0,1.432-13.863c.223-3.981.314-7.051.314-7.051l-38.071-2.615-.1.149L604,561.162s-.091,3.07-.314,7.051a123.108,123.108,0,0,1-1.424,13.863c-1.374,7.093-.132,25.516-.132,25.516l2.127,24c4.966,11.587.488,38.965-.877,43.194s-6.853,32-9.841,36.482-6.5,30.233-6.5,30.233l-1.945,1.374,2.061.124,2.127-1.5s3.476-25.764,6.464-30.25,8.475-32.277,9.841-36.482S611.451,643.155,606.468,631.576Z" transform="translate(-197.055 -127.205)" opacity="0.1"/>
      <path id="Path_65205" data-name="Path 65205" d="M488.267,452.41l7.713,4.726v62.13l-56.055-2.822L436.06,470.8l9.187-11.173Z" transform="translate(-74.211 -77.984)" fill="#1f2657"/>
      <path id="Path_65206" data-name="Path 65206" d="M570.58,532.35s23.662,19.292,30.879,20.542" transform="translate(-197.492 -122.692)" opacity="0.1"/>
      <path id="Path_65207" data-name="Path 65207" d="M589.021,778.027a11.428,11.428,0,0,0-.67,1.97l-1.448,1.018s-21.427-1-18.944-4.858a11.221,11.221,0,0,0,.935-3.609c5.007-1.159,13.5,4.6,13.5,4.6Z" transform="translate(-197.005 -164.069)" opacity="0.1"/>
      <path id="Path_65208" data-name="Path 65208" d="M586.624,820.043c-1.49,2.988-1.986,10.08-1.986,10.08s-4.61,6.969-11.082,4.858-25.772-1.25-26.9-1.738c-3.633-1.655-2.044-5.462,0-8.971,1.184-2.011,2.483-3.906,3.1-5.222,1.655-3.617,5.355-13.076,5.355-13.076-.5-7.722,5.23-14.318,5.23-14.318l2.483-16.188c4.2-4.221,15.559,3.493,15.559,3.493l6.621.877c-3.36,7.341.124,27.883.124,27.883s.546,1.721,1.068,3.931h0C586.873,814.589,587.477,818.338,586.624,820.043Z" transform="translate(-192.994 -164.382)" fill="#1f2657"/>
      <path id="Path_65209" data-name="Path 65209" d="M586.624,827.846c-1.49,2.988-1.986,10.08-1.986,10.08s-4.61,6.969-11.082,4.858-25.772-1.25-26.9-1.738c-3.633-1.655-2.044-5.462,0-8.971,8.765.48,28.371,1.4,32.733-.248,5.595-2.11,6.853-9.4,6.795-12.356C586.873,822.392,587.477,826.141,586.624,827.846Z" transform="translate(-192.994 -172.184)" opacity="0.1"/>
      <circle id="Ellipse_4171" data-name="Ellipse 4171" cx="1.283" cy="1.283" r="1.283" transform="translate(381.414 630.262)" fill="#605b89"/>
      <circle id="Ellipse_4172" data-name="Ellipse 4172" cx="1.283" cy="1.283" r="1.283" transform="translate(366.086 630.262)" fill="#605b89"/>
      <circle id="Ellipse_4173" data-name="Ellipse 4173" cx="1.283" cy="1.283" r="1.283" transform="translate(381.414 637.213)" fill="#605b89"/>
      <circle id="Ellipse_4174" data-name="Ellipse 4174" cx="1.283" cy="1.283" r="1.283" transform="translate(365.764 637.213)" fill="#605b89"/>
      <circle id="Ellipse_4175" data-name="Ellipse 4175" cx="1.283" cy="1.283" r="1.283" transform="translate(377.565 652.971)" fill="#605b89"/>
      <circle id="Ellipse_4176" data-name="Ellipse 4176" cx="1.283" cy="1.283" r="1.283" transform="translate(364.48 652.971)" fill="#605b89"/>
      <circle id="Ellipse_4177" data-name="Ellipse 4177" cx="1.283" cy="1.283" r="1.283" transform="translate(378.186 649.438)" fill="#605b89"/>
      <circle id="Ellipse_4178" data-name="Ellipse 4178" cx="1.283" cy="1.283" r="1.283" transform="translate(364.804 649.438)" fill="#605b89"/>
      <circle id="Ellipse_4179" data-name="Ellipse 4179" cx="1.283" cy="1.283" r="1.283" transform="translate(378.849 645.357)" fill="#605b89"/>
      <circle id="Ellipse_4180" data-name="Ellipse 4180" cx="1.283" cy="1.283" r="1.283" transform="translate(366.086 645.357)" fill="#605b89"/>
      <circle id="Ellipse_4181" data-name="Ellipse 4181" cx="1.283" cy="1.283" r="1.283" transform="translate(380.131 641.286)" fill="#605b89"/>
      <circle id="Ellipse_4182" data-name="Ellipse 4182" cx="1.283" cy="1.283" r="1.283" transform="translate(366.086 641.286)" fill="#605b89"/>
      <path id="Path_65210" data-name="Path 65210" d="M567,789s6.356,7.887,14.442,1.655" transform="translate(-196.875 -166.932)" fill="none" stroke="#000" stroke-miterlimit="10" stroke-width="1" opacity="0.1"/>
      <path id="Path_65211" data-name="Path 65211" d="M563.33,800.45s16.611,4.138,15.328,6.952c0,0-14.607-2.1-15.65,0s14.368,4.072,14.368,4.072-12.671,1.978-14.07,0,12.762,4.072,12.762,4.072-12.762-1.283-12.762,0,12.1,4.08,12.1,4.08-11.305-1.192-12.1,0,11.256,1.655,11.479,3.534-13.085-1.283-13.085,0,16.933-22.71,16.933-22.71" transform="translate(-195.961 -168.906)" fill="none" stroke="#605b89" stroke-miterlimit="10" stroke-width="1" opacity="0.2"/>
    </g>
  </g>
</svg>
