<svg width="34" height="34" viewBox="0 0 34 34" fill="none" xmlns="http://www.w3.org/2000/svg">
<path d="M17 0C7.61104 0 0 7.61104 0 17C0 26.389 7.61104 34 17 34C26.389 34 34 26.389 34 17C34 7.61104 26.389 0 17 0ZM12.8385 24.0461H9.39604V12.9678H12.8385V24.0461ZM11.096 11.6078C10.0087 11.6078 9.30573 10.8375 9.30573 9.88479C9.30573 8.9126 10.03 8.16531 11.1403 8.16531C12.2506 8.16531 12.9306 8.9126 12.9519 9.88479C12.9519 10.8375 12.2506 11.6078 11.096 11.6078ZM25.4115 24.0461H21.969V17.9067C21.969 16.4776 21.4696 15.5072 20.2247 15.5072C19.2738 15.5072 18.7089 16.1642 18.4592 16.7964C18.3671 17.0212 18.3441 17.34 18.3441 17.657V24.0444H14.8998V16.5006C14.8998 15.1176 14.8555 13.9612 14.8095 12.966H17.8004L17.958 14.5049H18.0271C18.4804 13.7824 19.5907 12.7164 21.4483 12.7164C23.7132 12.7164 25.4115 14.234 25.4115 17.4958V24.0461Z" fill="#0A66C2"/>
</svg>
