<svg width="17" height="21" viewBox="0 0 17 21" fill="none" xmlns="http://www.w3.org/2000/svg">
<path d="M8.15114 11.0341C9.66251 11.0341 10.8877 9.80887 10.8877 8.2975C10.8877 6.78612 9.66251 5.56091 8.15114 5.56091C6.63976 5.56091 5.41455 6.78612 5.41455 8.2975C5.41455 9.80887 6.63976 11.0341 8.15114 11.0341Z" stroke="#1A77F2" stroke-width="1.66667" stroke-linecap="round" stroke-linejoin="round"/>
<path d="M8.15108 1C6.21564 1 4.35948 1.76885 2.99092 3.13741C1.62236 4.50596 0.853516 6.36213 0.853516 8.29756C0.853516 10.0234 1.22022 11.1527 2.22181 12.4024L8.15108 19.2439L14.0803 12.4024C15.0819 11.1527 15.4486 10.0234 15.4486 8.29756C15.4486 6.36213 14.6798 4.50596 13.3112 3.13741C11.9427 1.76885 10.0865 1 8.15108 1V1Z" stroke="#1A77F2" stroke-width="1.66667" stroke-linecap="round" stroke-linejoin="round"/>
</svg>
