<svg width="14" height="15" viewBox="0 0 14 15" fill="none" xmlns="http://www.w3.org/2000/svg">
<path d="M11.6667 4.59184C11.1125 4.59184 10.6011 4.40051 10.2006 4.08099L6.17167 6.94898C6.23913 7.31333 6.23913 7.68667 6.17167 8.05102L10.2006 10.919C10.6011 10.5995 11.1125 10.4082 11.6667 10.4082C12.9539 10.4082 14 11.4375 14 12.7041C14 13.9707 12.9539 15 11.6667 15C10.3794 15 9.33333 13.9707 9.33333 12.7041C9.33333 12.4821 9.36444 12.2698 9.42472 12.067L5.59806 9.34056C5.03028 10.081 4.12806 10.5612 3.11111 10.5612C1.39222 10.5612 0 9.19133 0 7.5C0 5.80867 1.39222 4.43878 3.11111 4.43878C4.12806 4.43878 5.03028 4.919 5.59806 5.65944L9.42472 2.93303C9.36444 2.73023 9.33333 2.51594 9.33333 2.29592C9.33333 1.02934 10.3794 0 11.6667 0C12.9539 0 14 1.02934 14 2.29592C14 3.5625 12.9539 4.59184 11.6667 4.59184ZM11.6667 13.699C12.2247 13.699 12.6778 13.2532 12.6778 12.7041C12.6778 12.155 12.2247 11.7092 11.6667 11.7092C11.1086 11.7092 10.6556 12.155 10.6556 12.7041C10.6556 13.2532 11.1086 13.699 11.6667 13.699ZM3.11111 5.81633C2.16806 5.81633 1.4 6.57207 1.4 7.5C1.4 8.42793 2.16806 9.18367 3.11111 9.18367C4.05417 9.18367 4.82222 8.42793 4.82222 7.5C4.82222 6.57207 4.05417 5.81633 3.11111 5.81633ZM11.6667 1.30102C11.1086 1.30102 10.6556 1.74681 10.6556 2.29592C10.6556 2.84503 11.1086 3.29082 11.6667 3.29082C12.2247 3.29082 12.6778 2.84503 12.6778 2.29592C12.6778 1.74681 12.2247 1.30102 11.6667 1.30102Z" fill="#1A77F2"/>
</svg>
