<svg width="70" height="70" viewBox="0 0 70 70" fill="none" xmlns="http://www.w3.org/2000/svg">
<circle cx="35" cy="35" r="35" fill="#1679EA" fill-opacity="0.05"/>
<path d="M24.4909 39.1701L23.2319 44.0035L18.6307 44.1036C17.2556 41.4805 16.4756 38.4794 16.4756 35.2902C16.4756 32.2062 17.2049 29.298 18.4975 26.7372H18.4985L22.5949 27.5096L24.3894 31.6973C24.0138 32.8234 23.8091 34.0323 23.8091 35.2902C23.8093 36.6554 24.0497 37.9634 24.4909 39.1701Z" fill="#FBBB00"/>
<path d="M53.0211 31.8135C53.2344 32.9338 53.3457 34.0906 53.3457 35.273C53.3457 36.5988 53.2058 37.8921 52.9395 39.1395C52.0352 43.3845 49.6723 47.0912 46.399 49.7143L46.398 49.7133L41.0976 49.4437L40.3475 44.7754C42.5194 43.5056 44.2169 41.5184 45.111 39.1395H35.1777V31.8135H45.2559H53.0211Z" fill="#518EF8"/>
<path d="M46.398 49.6328L46.3991 49.6339C43.239 52.1916 39.2248 53.722 34.855 53.722C27.8327 53.722 21.7273 49.7696 18.6128 43.9531L24.5885 39.0273C26.1457 43.2124 30.1549 46.1916 34.855 46.1916C36.8752 46.1916 38.7679 45.6416 40.3919 44.6816L46.398 49.6328Z" fill="#28B446"/>
<path d="M46.6662 21.0447L40.7126 25.8752C39.0374 24.8375 37.0572 24.238 34.9357 24.238C30.1454 24.238 26.075 27.2942 24.6007 31.5463L18.6138 26.6888H18.6128C21.6714 20.8446 27.833 16.8517 34.9357 16.8517C39.3949 16.8517 43.4834 18.4258 46.6662 21.0447Z" fill="#F14336"/>
</svg>
