<svg width="70" height="70" viewBox="0 0 70 70" fill="none" xmlns="http://www.w3.org/2000/svg">
<circle cx="35" cy="35" r="35" fill="#1679EA" fill-opacity="0.05"/>
<path d="M25.7156 22.446C25.7152 23.3594 25.361 24.2353 24.731 24.8809C24.1009 25.5265 23.2467 25.889 22.3561 25.8885C21.4656 25.8881 20.6117 25.5247 19.9823 24.8785C19.3529 24.2322 18.9996 23.356 19 22.4425C19.0004 21.5291 19.3546 20.6532 19.9847 20.0076C20.6147 19.362 21.4689 18.9995 22.3595 19C23.25 19.0005 24.1039 19.3638 24.7333 20.01C25.3627 20.6563 25.7161 21.5325 25.7156 22.446ZM25.8164 28.439H19.1007V50H25.8164V28.439ZM36.4271 28.439H29.745V50H36.3599V38.6856C36.3599 32.3826 44.3683 31.7971 44.3683 38.6856V50H51V36.3435C51 25.718 39.1469 26.1141 36.3599 31.3321L36.4271 28.439Z" fill="#0A66C2"/>
</svg>
