<svg id="Group_14670" data-name="Group 14670" xmlns="http://www.w3.org/2000/svg" width="21.502" height="16.379" viewBox="0 0 21.502 16.379">
  <g id="Group_94" data-name="Group 94" transform="translate(1.08)">
    <path id="Path_2033" data-name="Path 2033" d="M44.253,61H26.531a1.868,1.868,0,0,0-.81.189l9.629,9.629,2.158-2.074h0l7.555-7.554A1.868,1.868,0,0,0,44.253,61Z" transform="translate(-25.721 -61)" fill="#fff"/>
  </g>
  <g id="Group_96" data-name="Group 96" transform="translate(14.203 1.08)">
    <path id="Path_2034" data-name="Path 2034" d="M345.322,86.728l-7.109,7.109,7.109,7.109a1.868,1.868,0,0,0,.189-.81v-12.6A1.868,1.868,0,0,0,345.322,86.728Z" transform="translate(-338.213 -86.728)" fill="#fff"/>
  </g>
  <g id="Group_98" data-name="Group 98" transform="translate(0 1.08)">
    <path id="Path_2035" data-name="Path 2035" d="M.189,86.721a1.868,1.868,0,0,0-.189.81v12.6a1.868,1.868,0,0,0,.189.809L7.3,93.83Z" transform="translate(0 -86.721)" fill="#fff"/>
  </g>
  <g id="Group_100" data-name="Group 100" transform="translate(1.08 9.08)">
    <path id="Path_2036" data-name="Path 2036" d="M37.947,277.211l-2.158,2.074a.63.63,0,0,1-.891,0l-2.074-2.074-7.109,7.109a1.868,1.868,0,0,0,.81.19H44.246a1.868,1.868,0,0,0,.81-.189Z" transform="translate(-25.714 -277.211)" fill="#fff"/>
  </g>
</svg>
