<svg xmlns="http://www.w3.org/2000/svg" width="18.045" height="18.045" viewBox="0 0 18.045 18.045">
  <path id="Path_19171" data-name="Path 19171" d="M16.314,11.643a10.071,10.071,0,0,1-3.163-.5,1.446,1.446,0,0,0-1.406.3L9.751,12.941A11.022,11.022,0,0,1,4.8,7.986L6.257,6.044A1.434,1.434,0,0,0,6.61,4.591,10.086,10.086,0,0,1,6.1,1.423,1.425,1.425,0,0,0,4.681,0H1.423A1.425,1.425,0,0,0,0,1.423,16.333,16.333,0,0,0,16.314,17.738a1.425,1.425,0,0,0,1.423-1.423V13.066A1.425,1.425,0,0,0,16.314,11.643Z" transform="matrix(1, -0.017, 0.017, 1, 0, 0.31)" fill="#fff"/>
</svg>
