<svg width="22" height="16" viewBox="0 0 22 16" fill="none" xmlns="http://www.w3.org/2000/svg">
<path d="M20.625 0H1.375C1.01033 0 0.660591 0.140476 0.402728 0.390524C0.144866 0.640573 0 0.979711 0 1.33333V14.6667C0 15.0203 0.144866 15.3594 0.402728 15.6095C0.660591 15.8595 1.01033 16 1.375 16H20.625C20.9897 16 21.3394 15.8595 21.5973 15.6095C21.8551 15.3594 22 15.0203 22 14.6667V1.33333C22 0.979711 21.8551 0.640573 21.5973 0.390524C21.3394 0.140476 20.9897 0 20.625 0ZM19.5662 14.6667H2.51625L7.32875 9.84L6.33875 8.91333L1.375 13.8933V2.34667L9.92063 10.5933C10.1782 10.8417 10.5267 10.9811 10.89 10.9811C11.2533 10.9811 11.6018 10.8417 11.8594 10.5933L20.625 2.14V13.8067L15.565 8.9L14.5956 9.84L19.5662 14.6667ZM2.27562 1.33333H19.5112L10.89 9.64667L2.27562 1.33333Z" fill="white"/>
</svg>
