<svg width="21" height="28" viewBox="0 0 21 28" fill="none" xmlns="http://www.w3.org/2000/svg">
<path d="M6.125 12.25C5.89294 12.25 5.67038 12.3422 5.50628 12.5063C5.34219 12.6704 5.25 12.8929 5.25 13.125C5.25 13.3571 5.34219 13.5796 5.50628 13.7437C5.67038 13.9078 5.89294 14 6.125 14H14.875C15.1071 14 15.3296 13.9078 15.4937 13.7437C15.6578 13.5796 15.75 13.3571 15.75 13.125C15.75 12.8929 15.6578 12.6704 15.4937 12.5063C15.3296 12.3422 15.1071 12.25 14.875 12.25H6.125ZM5.25 16.625C5.25 16.3929 5.34219 16.1704 5.50628 16.0063C5.67038 15.8422 5.89294 15.75 6.125 15.75H14.875C15.1071 15.75 15.3296 15.8422 15.4937 16.0063C15.6578 16.1704 15.75 16.3929 15.75 16.625C15.75 16.8571 15.6578 17.0796 15.4937 17.2437C15.3296 17.4078 15.1071 17.5 14.875 17.5H6.125C5.89294 17.5 5.67038 17.4078 5.50628 17.2437C5.34219 17.0796 5.25 16.8571 5.25 16.625ZM5.25 20.125C5.25 19.8929 5.34219 19.6704 5.50628 19.5063C5.67038 19.3422 5.89294 19.25 6.125 19.25H9.625C9.85706 19.25 10.0796 19.3422 10.2437 19.5063C10.4078 19.6704 10.5 19.8929 10.5 20.125C10.5 20.3571 10.4078 20.5796 10.2437 20.7437C10.0796 20.9078 9.85706 21 9.625 21H6.125C5.89294 21 5.67038 20.9078 5.50628 20.7437C5.34219 20.5796 5.25 20.3571 5.25 20.125Z" fill="#AEB0B2"/>
<path d="M13.125 0H3.5C2.57174 0 1.6815 0.368749 1.02513 1.02513C0.368749 1.6815 0 2.57174 0 3.5V24.5C0 25.4283 0.368749 26.3185 1.02513 26.9749C1.6815 27.6313 2.57174 28 3.5 28H17.5C18.4283 28 19.3185 27.6313 19.9749 26.9749C20.6313 26.3185 21 25.4283 21 24.5V7.875L13.125 0ZM13.125 1.75V5.25C13.125 5.94619 13.4016 6.61387 13.8938 7.10616C14.3861 7.59844 15.0538 7.875 15.75 7.875H19.25V24.5C19.25 24.9641 19.0656 25.4092 18.7374 25.7374C18.4092 26.0656 17.9641 26.25 17.5 26.25H3.5C3.03587 26.25 2.59075 26.0656 2.26256 25.7374C1.93437 25.4092 1.75 24.9641 1.75 24.5V3.5C1.75 3.03587 1.93437 2.59075 2.26256 2.26256C2.59075 1.93437 3.03587 1.75 3.5 1.75H13.125Z" fill="#AEB0B2"/>
</svg>
