<svg width="28" height="28" viewBox="0 0 28 28" fill="none" xmlns="http://www.w3.org/2000/svg">
<path d="M11.1344 12.6969C11.4062 12.5 11.5375 12.175 11.5375 11.7281C11.5469 11.5156 11.5031 11.3063 11.4094 11.1156C11.325 10.9625 11.2 10.8344 11.0469 10.7437C10.8881 10.6475 10.7118 10.5837 10.5281 10.5562C10.3281 10.5187 10.125 10.5 9.925 10.5031H7.72812V12.9937H10.1062C10.5156 12.9969 10.8625 12.8969 11.1344 12.6969ZM11.5031 14.9469C11.1969 14.7125 10.7875 14.5969 10.2781 14.5969H7.72188V17.5344H10.2281C10.4625 17.5344 10.6781 17.5125 10.8875 17.4688C11.0856 17.43 11.2744 17.3536 11.4438 17.2437C11.6031 17.1406 11.7312 17 11.8281 16.8188C11.9219 16.6375 11.9688 16.4062 11.9688 16.1281C11.9688 15.575 11.8125 15.1844 11.5031 14.9469ZM14 0C6.26875 0 0 6.26875 0 14C0 21.7313 6.26875 28 14 28C21.7313 28 28 21.7313 28 14C28 6.26875 21.7313 0 14 0ZM16.7031 8.96562H21.0281V10.0188H16.7031V8.96562ZM14 17.65C13.7977 18.034 13.5088 18.3657 13.1562 18.6187C12.7875 18.875 12.3781 19.0625 11.9438 19.1719C11.4893 19.2937 11.0205 19.3536 10.55 19.35H5.375V8.69063H10.4062C10.9156 8.69063 11.3781 8.7375 11.8 8.825C12.2188 8.9125 12.575 9.0625 12.875 9.26562C13.1719 9.46875 13.4062 9.74063 13.5719 10.0781C13.7344 10.4125 13.8188 10.8313 13.8188 11.3281C13.8188 11.8656 13.6969 12.3094 13.4531 12.6687C13.2063 13.0281 12.85 13.3188 12.3656 13.5469C13.025 13.7344 13.5094 14.0688 13.8281 14.5375C14.1531 15.0125 14.3125 15.5813 14.3125 16.25C14.3125 16.7938 14.2094 17.2594 14 17.65ZM22.7125 16H17.1375C17.1375 16.6063 17.3469 17.1875 17.6625 17.5C17.9813 17.8094 18.4375 17.9656 19.0344 17.9656C19.4656 17.9656 19.8312 17.8563 20.1437 17.6406C20.4531 17.425 20.6406 17.1969 20.7094 16.9594H22.5781C22.2781 17.8875 21.8219 18.55 21.2031 18.95C20.5906 19.35 19.8406 19.55 18.9688 19.55C18.3594 19.55 17.8125 19.45 17.3219 19.2594C16.85 19.075 16.425 18.7937 16.075 18.4312C15.7299 18.059 15.4632 17.6211 15.2906 17.1437C15.1 16.6156 15.0063 16.0594 15.0125 15.5C15.0125 14.9219 15.1094 14.3844 15.2969 13.8844C15.6562 12.9125 16.4031 12.1344 17.3563 11.7312C17.8656 11.5188 18.4125 11.4125 18.9656 11.4187C19.6219 11.4187 20.1906 11.5438 20.6844 11.8C21.1597 12.0447 21.5724 12.3954 21.8906 12.825C22.2062 13.2531 22.4281 13.7406 22.5688 14.2906C22.7031 14.8312 22.75 15.4 22.7125 16ZM18.9 13.0125C18.5625 13.0125 18.2781 13.0719 18.0594 13.1875C17.8406 13.3031 17.6594 13.4469 17.5219 13.6125C17.3909 13.7724 17.2941 13.9575 17.2375 14.1562C17.1875 14.3219 17.1531 14.4906 17.1406 14.6625H20.5938C20.5438 14.1219 20.3563 13.7219 20.1063 13.4406C19.8438 13.1625 19.4219 13.0125 18.9 13.0125Z" fill="#1E8AFB"/>
</svg>
