<svg width="15" height="15" viewBox="0 0 15 15" fill="none" xmlns="http://www.w3.org/2000/svg">
<path d="M12.75 1.50001H11.25V0.750007C11.25 0.551095 11.171 0.360329 11.0303 0.219677C10.8897 0.0790248 10.6989 7.16236e-06 10.5 7.16236e-06C10.3011 7.16236e-06 10.1103 0.0790248 9.96967 0.219677C9.82902 0.360329 9.75 0.551095 9.75 0.750007V1.50001H5.25V0.750007C5.25 0.551095 5.17098 0.360329 5.03033 0.219677C4.88968 0.0790248 4.69891 7.16236e-06 4.5 7.16236e-06C4.30109 7.16236e-06 4.11032 0.0790248 3.96967 0.219677C3.82902 0.360329 3.75 0.551095 3.75 0.750007V1.50001H2.25C1.65326 1.50001 1.08097 1.73706 0.65901 2.15902C0.237053 2.58097 0 3.15327 0 3.75001V12.75C0 13.3467 0.237053 13.919 0.65901 14.341C1.08097 14.763 1.65326 15 2.25 15H12.75C13.3467 15 13.919 14.763 14.341 14.341C14.7629 13.919 15 13.3467 15 12.75V3.75001C15 3.15327 14.7629 2.58097 14.341 2.15902C13.919 1.73706 13.3467 1.50001 12.75 1.50001ZM13.9286 12.75C13.9286 13.5714 13.6407 13.6052 13.5 13.7458C13.3593 13.8865 13.0561 13.9286 12.8571 13.9286H2.14286C1.94394 13.9286 1.56922 13.7121 1.42857 13.5714C1.28792 13.4308 1.07143 13.0561 1.07143 12.8572V7.50001H7.5H13.9286V12.75ZM13.9286 6.42858H1.07143V3.57144C1.07143 3.37252 1.28792 3.14066 1.42857 3.00001C1.56922 2.85935 1.94394 2.91535 2.14286 2.91535H3.75V3.75001C3.75 3.94892 3.82902 4.13968 3.96967 4.28034C4.11032 4.42099 4.30109 4.50001 4.5 4.50001C4.69891 4.50001 4.88968 4.42099 5.03033 4.28034C5.17098 4.13968 5.25 3.94892 5.25 3.75001V2.85715H9.75V3.75001C9.75 3.94892 9.82902 4.13968 9.96967 4.28034C10.1103 4.42099 10.3011 4.50001 10.5 4.50001C10.6989 4.50001 10.8897 4.42099 11.0303 4.28034C11.171 4.13968 11.25 3.94892 11.25 3.75001V2.85715H12.8571C13.0561 2.85715 13.4691 2.85935 13.6098 3.00001C13.91 3.30028 13.9286 3.55109 13.9286 3.75001V6.42858Z" fill="#AEB0B2"/>
</svg>
