<svg width="22" height="20" viewBox="0 0 22 20" fill="none" xmlns="http://www.w3.org/2000/svg">
<path d="M19.6734 5.9743C18.5333 4.40988 16.9404 3.36456 15.1935 2.89286V2.89524C14.7882 2.44487 14.3307 2.03006 13.8187 1.66029C9.93848 -1.1604 4.49146 -0.299972 1.65892 3.58026C-0.623714 6.7328 -0.52653 10.9733 1.80114 13.986L1.8201 17.1291C1.8201 17.2049 1.83195 17.2808 1.85565 17.3519C1.98128 17.7525 2.40794 17.9729 2.80616 17.8473L5.807 16.9015C6.60106 17.1836 7.42119 17.3448 8.23659 17.3898L8.22473 17.3993C10.3367 18.9376 13.1052 19.3999 15.6439 18.5608L18.6566 19.5421C18.7324 19.5658 18.8106 19.58 18.8912 19.58C19.3108 19.58 19.6497 19.241 19.6497 18.8215V15.6452C21.738 12.8103 21.7925 8.89217 19.6734 5.9743ZM6.13884 15.2186L5.8544 15.1001L3.50777 15.8349L3.48407 13.3697L3.29444 13.1564C1.28914 10.7102 1.15641 7.18554 3.03371 4.5995C5.31871 1.46593 9.69908 0.773789 12.8232 3.03508C15.9568 5.31297 16.6513 9.68624 14.3876 12.8009C12.489 15.4058 9.08991 16.3682 6.13884 15.2186ZM18.109 14.8156L17.9194 15.0527L17.9431 17.5178L15.6202 16.7356L15.3357 16.8541C14.0083 17.3471 12.5933 17.3874 11.2825 17.02L11.2777 17.0177C13.0294 16.4796 14.6175 15.3893 15.7624 13.8201C17.5733 11.3241 17.8672 8.18819 16.8148 5.51445L16.829 5.52393C17.3742 5.91504 17.8744 6.40333 18.2986 6.99354C20.0195 9.35439 19.9223 12.5686 18.109 14.8156Z" fill="#A2BFF3"/>
</svg>
