<svg xmlns="http://www.w3.org/2000/svg" xmlns:xlink="http://www.w3.org/1999/xlink" version="1.1" width="1000" height="1000" viewBox="0 0 1000 1000" xml:space="preserve">
<desc>Created with Fabric.js 3.5.0</desc>
<defs>
</defs>
<rect x="0" y="0" width="100%" height="100%" fill="#ffffff"/>
<g transform="matrix(-45.4547 0 0 -45.4547 499.9996 499.9996)" id="493250">
<path style="stroke: none; stroke-width: 1; stroke-dasharray: none; stroke-linecap: butt; stroke-dashoffset: 0; stroke-linejoin: miter; stroke-miterlimit: 4; is-custom-font: none; font-file-url: none; fill: rgb(162,191,243); fill-rule: nonzero; opacity: 1;" vector-effect="non-scaling-stroke" transform=" translate(-9.5455, -10)" d="M 1.36627 9.49503 V 16.652 H 4.41069 L 4.56441 16.67 C 7.39079 17.326 9.26366 17.799 10.1971 18.092 C 11.4369 18.481 11.8991 18.576 12.7401 18.632 C 13.3691 18.675 14.0835 18.434 14.409 18.104 C 14.5889 17.922 14.7235 17.548 14.7768 16.968 C 14.7878 16.8464 14.8315 16.73 14.9032 16.6309 C 14.975 16.5319 15.0722 16.4539 15.1847 16.405 C 15.4349 16.297 15.6429 16.121 15.8167 15.865 C 15.9774 15.631 16.0819 15.195 16.101 14.564 C 16.1044 14.448 16.1374 14.3348 16.197 14.2351 C 16.2566 14.1353 16.3408 14.0524 16.4416 13.994 C 17.0264 13.657 17.3158 13.277 17.3761 12.831 C 17.4424 12.338 17.2816 11.783 16.8606 11.151 C 16.7618 11.0028 16.7251 10.8221 16.7581 10.6473 C 16.7911 10.4725 16.8913 10.3174 17.0375 10.215 C 17.4404 9.93303 17.6614 9.54103 17.7167 8.98503 C 17.8051 8.09903 17.2374 7.44403 15.9523 7.31303 C 14.8078 7.20036 13.6522 7.29627 12.5422 7.59603 C 12.4163 7.62878 12.2836 7.62506 12.1597 7.5853 C 12.0358 7.54554 11.926 7.4714 11.843 7.3716 C 11.76 7.2718 11.7075 7.1505 11.6914 7.02196 C 11.6754 6.89342 11.6965 6.763 11.7524 6.64603 C 12.2548 5.58803 12.5341 4.71503 12.5994 4.03902 C 12.6849 3.14202 12.4769 2.49202 11.9906 1.95602 C 11.6218 1.55002 11.032 1.31802 10.811 1.36602 C 10.5196 1.42802 10.3297 1.59602 10.0825 2.18402 C 9.93684 2.53202 9.86651 2.82802 9.74594 3.51902 C 9.63039 4.17502 9.56709 4.47102 9.43547 4.85903 C 9.03859 6.03503 8.06498 7.25403 6.7578 8.09503 C 5.84165 8.68375 4.84876 9.1447 3.80683 9.46503 C 3.74173 9.485 3.67399 9.49512 3.60588 9.49503 H 1.36627 Z M 1.32407 18.015 C 0.999538 18.024 0.708159 17.952 0.464003 17.782 C 0.152529 17.565 0.00583458 17.223 0.00282032 16.829 L 0.00583458 9.50603 C -0.0283271 9.11603 0.0872198 8.75803 0.360513 8.49203 C 0.616726 8.24203 0.95131 8.12403 1.30498 8.13203 H 3.50038 C 4.38844 7.8504 5.23511 7.45295 6.01829 6.95003 C 7.07128 6.27203 7.84695 5.30003 8.14335 4.42402 C 8.24483 4.12202 8.29909 3.87202 8.40158 3.28402 C 8.54023 2.49502 8.62664 2.12802 8.82558 1.65602 C 9.23753 0.674019 9.77809 0.194019 10.5236 0.0330184 C 11.2571 -0.124982 12.3251 0.296019 13.0003 1.04002 C 13.7489 1.86402 14.0795 2.89502 13.9569 4.16902 C 13.9046 4.71703 13.7519 5.33003 13.5007 6.01303 C 14.3586 5.8886 15.2285 5.86979 16.091 5.95703 C 18.1075 6.16203 19.2399 7.46903 19.0751 9.12103 C 19.0028 9.83303 18.7435 10.438 18.3024 10.913 C 18.6732 11.624 18.8209 12.327 18.7285 13.013 C 18.622 13.803 18.1799 14.461 17.4444 14.972 C 17.3871 15.665 17.2274 16.218 16.944 16.632 C 16.7208 16.9665 16.4295 17.2506 16.089 17.466 C 15.9805 18.15 15.7524 18.685 15.3796 19.061 C 14.7617 19.687 13.6575 20.06 12.6487 19.992 C 11.6911 19.928 11.1245 19.812 9.78814 19.392 C 8.90697 19.115 7.08233 18.655 4.33231 18.015 H 1.32307 H 1.32407 Z M 3.03316 9.18403 C 3.0329 9.09456 3.05038 9.00593 3.08459 8.92319 C 3.11881 8.84046 3.1691 8.76526 3.23257 8.7019 C 3.29604 8.63855 3.37145 8.58828 3.45447 8.55398 C 3.5375 8.51968 3.62651 8.50203 3.7164 8.50203 C 3.80612 8.50229 3.89492 8.52014 3.97771 8.55456 C 4.0605 8.58897 4.13567 8.63928 4.19893 8.70261 C 4.26219 8.76594 4.31229 8.84105 4.34639 8.92365 C 4.38048 9.00626 4.39789 9.09473 4.39762 9.18403 V 16.862 C 4.39776 16.9513 4.38021 17.0398 4.346 17.1223 C 4.31179 17.2049 4.26157 17.2799 4.19822 17.3432 C 4.13487 17.4064 4.05962 17.4566 3.97678 17.4909 C 3.89394 17.5252 3.80512 17.5429 3.71539 17.543 C 3.62567 17.5429 3.53685 17.5252 3.45401 17.4909 C 3.37116 17.4566 3.29592 17.4064 3.23257 17.3432 C 3.16922 17.2799 3.119 17.2049 3.08479 17.1223 C 3.05057 17.0398 3.03303 16.9513 3.03316 16.862 V 9.18403 Z" stroke-linecap="round"/>
</g>
</svg>