<svg width="19" height="19" viewBox="0 0 19 19" fill="none" xmlns="http://www.w3.org/2000/svg">
<path d="M2.07005 19H1.63423e-05V8.68193C-0.00188177 7.97708 0.161591 7.28156 0.477371 6.65095C0.906111 5.70754 1.59818 4.90715 2.4709 4.34544C3.34361 3.78373 4.36006 3.48444 5.39879 3.48333H10.8197V0H12.5013L19 6.48019L12.4782 12.9833H10.8197V9.5H7.29411C6.55667 9.50179 5.83991 9.74331 5.25254 10.1879C4.66516 10.6326 4.23921 11.256 4.03925 11.9638L2.07005 19ZM5.39879 4.75C4.60259 4.75085 3.82356 4.98077 3.15517 5.41218C2.48678 5.84359 1.95743 6.45815 1.63064 7.18212L1.61905 7.20642C1.38828 7.66415 1.26881 8.16962 1.27032 8.68193V17.1452L2.81571 11.6234C3.09081 10.6495 3.67689 9.79162 4.48507 9.17985C5.29324 8.56808 6.27944 8.23578 7.29411 8.23333H12.09V11.5791L17.2036 6.48019L12.09 1.38122V4.75H5.39879Z" fill="#A2BFF3"/>
</svg>
