<svg width="29" height="29" viewBox="0 0 29 29" fill="none" xmlns="http://www.w3.org/2000/svg">
<path d="M14.3408 0C6.43328 0 0 6.33935 0 14.1314C0 21.9235 6.43328 28.2628 14.3408 28.2628C22.2483 28.2628 28.6816 21.9235 28.6816 14.1314C28.6816 6.33935 22.2483 0 14.3408 0ZM14.3408 25.4365C8.01507 25.4365 2.86816 20.3648 2.86816 14.1314C2.86816 7.89804 8.01507 2.82628 14.3408 2.82628C20.6665 2.82628 25.8134 7.89804 25.8134 14.1314C25.8134 20.3648 20.6665 25.4365 14.3408 25.4365Z" fill="white"/>
<path d="M15.7754 7.06567H12.9072V14.7164L17.6297 19.3699L19.6575 17.3717L15.7754 13.5463V7.06567Z" fill="white"/>
</svg>
