<svg xmlns="http://www.w3.org/2000/svg" viewBox="0 0 142.23 142.28"><defs><style>.cls-1{fill:#8c8c8c;}</style></defs><g id="Layer_2" data-name="Layer 2"><g id="Layer_1-2" data-name="Layer 1"><path class="cls-1" d="M104.32,64.14h34.87c2.46,0,3,.58,3,3v72.13c0,2.48-.52,3-3,3H3.08c-2.59,0-3.08-.48-3.08-3.07V37.54c0-2.57.53-3.11,3.07-3.11H37.92V32.79q0-14.91,0-29.83c0-2.4.55-3,2.9-3h60.65c2.26,0,2.85.59,2.85,2.87V64.14Zm-51,74V93.33c0-2.67.49-3.14,3.19-3.14H85.58c2.9,0,3.33.42,3.33,3.3v44.64h11.22V4.17h-58v134ZM37.84,38.6H4.16v99.52H37.84Zm66.55,99.52h33.68V68.32H104.39ZM57.47,94.34V138H84.75V94.34Z"/><path class="cls-1" d="M49.33,46.43c0-2,0-4,0-6,0-1.63.7-2.35,2.32-2.37q6.09,0,12.18,0c1.7,0,2.37.73,2.38,2.47q0,6,0,12c0,1.72-.71,2.41-2.4,2.42q-6,0-12,0c-1.71,0-2.42-.69-2.44-2.38C49.3,50.54,49.33,48.48,49.33,46.43ZM62,50.82V42.2H53.46v8.62Z"/><path class="cls-1" d="M84.48,55c-2,0-4.1,0-6.16,0-1.53,0-2.27-.71-2.29-2.23q0-6.24,0-12.48a2,2,0,0,1,2.18-2.21q6.23-.06,12.47,0c1.53,0,2.21.76,2.22,2.31q0,6.16,0,12.33c0,1.58-.75,2.26-2.39,2.28C88.49,55,86.49,55,84.48,55ZM80.14,42.16v8.62h8.61V42.16Z"/><path class="cls-1" d="M66.22,73.08c0,2,0,4,0,6,0,1.75-.66,2.46-2.36,2.48q-6.09,0-12.18,0c-1.64,0-2.33-.72-2.34-2.34q0-6.17,0-12.33a2,2,0,0,1,2.27-2.25q6.15,0,12.32,0a2,2,0,0,1,2.27,2.25C66.25,69,66.21,71,66.22,73.08Zm-4.14,4.38V68.83H53.46v8.63Z"/><path class="cls-1" d="M92.91,73.23c0,2,0,3.92,0,5.87,0,1.75-.66,2.46-2.36,2.48q-6.09,0-12.18,0c-1.63,0-2.32-.72-2.33-2.35q0-6.09,0-12.18c0-1.71.7-2.38,2.43-2.39q6,0,12,0c1.7,0,2.39.7,2.41,2.41C92.92,69.12,92.91,71.18,92.91,73.23ZM80.15,68.79v8.67h8.58V68.79Z"/><path class="cls-1" d="M49.33,19.83c0-2,0-4,0-6,0-1.64.7-2.33,2.32-2.34q6.09,0,12.18,0c1.65,0,2.36.67,2.37,2.28q.06,6.16,0,12.33c0,1.56-.68,2.27-2.24,2.29q-6.16.07-12.33,0c-1.64,0-2.28-.74-2.3-2.39C49.31,23.94,49.33,21.88,49.33,19.83Zm4.14,4.42h8.59V15.63H53.47Z"/><path class="cls-1" d="M84.52,11.46c2,0,4,0,6,0,1.63,0,2.35.69,2.36,2.3q0,6.16,0,12.32c0,1.54-.68,2.27-2.25,2.28q-6.17.07-12.32,0c-1.64,0-2.28-.74-2.29-2.4q0-6.09,0-12.18c0-1.65.7-2.31,2.33-2.33C80.41,11.44,82.47,11.46,84.52,11.46Zm4.23,12.81V15.61H80.18v8.66Z"/><path class="cls-1" d="M29.43,115.07c0,2,0,4,0,6,0,1.6-.75,2.34-2.35,2.35-4.06,0-8.12,0-12.18,0-1.61,0-2.36-.71-2.38-2.32q-.06-6.16,0-12.34a2,2,0,0,1,2.28-2.28q6.16-.07,12.33,0c1.6,0,2.28.78,2.3,2.4C29.45,111,29.43,113,29.43,115.07Zm-4.15,4.21v-8.61H16.64v8.61Z"/><path class="cls-1" d="M29.43,61.74c0,2.06,0,4.11,0,6.17a2.06,2.06,0,0,1-2.35,2.33q-6.1,0-12.19,0a2.06,2.06,0,0,1-2.36-2.35c0-4.06,0-8.12,0-12.19,0-1.68.76-2.41,2.45-2.42q6,0,12,0c1.69,0,2.4.76,2.42,2.44C29.45,57.72,29.43,59.73,29.43,61.74Zm-4.2,4.34V57.45h-8.6v8.63Z"/><path class="cls-1" d="M29.43,88.48c0,2,0,3.92,0,5.87,0,1.75-.65,2.46-2.36,2.47q-6.09,0-12.18,0c-1.65,0-2.35-.7-2.37-2.32,0-4.11,0-8.22,0-12.33,0-1.55.74-2.23,2.29-2.24,4.11,0,8.22,0,12.33,0,1.58,0,2.26.74,2.28,2.38C29.45,84.37,29.43,86.43,29.43,88.48ZM16.62,92.69h8.66V84.12H16.62Z"/><path class="cls-1" d="M112.8,114.93c0-2,0-4,0-6,0-1.68.71-2.41,2.42-2.42q6,0,12,0c1.7,0,2.42.72,2.43,2.43q.06,6.09,0,12.19c0,1.62-.76,2.32-2.37,2.33q-6.09,0-12.18,0a2.05,2.05,0,0,1-2.34-2.34C112.78,119,112.8,117,112.8,114.93Zm12.83-4.26H117v8.57h8.67Z"/><path class="cls-1" d="M121.37,79.92c2,0,4,0,6,0,1.57,0,2.29.66,2.31,2.21.05,4.16,0,8.32,0,12.48a1.94,1.94,0,0,1-2.18,2.19q-6.24.06-12.47,0c-1.55,0-2.22-.73-2.23-2.29q0-6.17,0-12.32a2,2,0,0,1,2.25-2.27C117.16,79.9,119.26,79.92,121.37,79.92ZM117,84.07v8.61h8.6V84.07Z"/></g></g></svg>