<svg width="21" height="27" viewBox="0 0 21 27" fill="none" xmlns="http://www.w3.org/2000/svg">
<path d="M10.375 26.0235L2.41833 16.7768C2.30777 16.638 2.19836 16.4982 2.0901 16.3576C0.730958 14.5934 -0.00328339 12.4385 1.10379e-05 10.2235C1.10379e-05 7.51208 1.09309 4.91169 3.03878 2.9944C4.98446 1.07712 7.62338 0 10.375 0C13.1266 0 15.7655 1.07712 17.7112 2.9944C19.6569 4.91169 20.75 7.51208 20.75 10.2235C20.7533 12.4375 20.0194 14.5914 18.6608 16.3549L18.6599 16.3576C18.6599 16.3576 18.3769 16.7238 18.3345 16.7731L10.375 26.0235ZM3.59542 15.2377C3.5973 15.2377 3.81612 15.524 3.86611 15.5853L10.375 23.1498L16.8924 15.5751C16.9339 15.524 17.1546 15.2358 17.1555 15.2349C18.2658 13.7935 18.8658 12.0331 18.8636 10.2235C18.8636 8.00507 17.9693 5.87748 16.3774 4.30879C14.7854 2.7401 12.6263 1.85882 10.375 1.85882C8.12368 1.85882 5.96456 2.7401 4.37263 4.30879C2.78071 5.87748 1.88637 8.00507 1.88637 10.2235C1.88439 12.0342 2.48508 13.7956 3.59636 15.2377H3.59542Z" fill="white"/>
<path d="M15.092 14.8705H13.2056V7.43524H7.54652V14.8705H5.66016V7.43524C5.66066 6.9424 5.85956 6.46989 6.21321 6.1214C6.56686 5.77291 7.04638 5.57691 7.54652 5.57642H13.2056C13.7057 5.57691 14.1853 5.77291 14.5389 6.1214C14.8926 6.46989 15.0915 6.9424 15.092 7.43524V14.8705Z" fill="white"/>
<path d="M9.43164 13.0117H11.318V14.8706H9.43164V13.0117Z" fill="white"/>
<path d="M9.43164 9.29419H11.318V11.153H9.43164V9.29419Z" fill="white"/>
</svg>
