<svg xmlns="http://www.w3.org/2000/svg" viewBox="0 0 119.02 122.37"><defs><style>.cls-1{fill:#8c8c8c;}</style></defs><g id="Layer_2" data-name="Layer 2"><g id="Layer_1-2" data-name="Layer 1"><path class="cls-1" d="M25.59,0A11.15,11.15,0,0,1,31,2.65a9.61,9.61,0,0,1,3,6.81c0,.71,0,1.42,0,2.18H68.75c-.2-3.86.66-7.31,4-9.7A9.14,9.14,0,0,1,78.9.21c5.48.37,8.25,3.88,8.92,11.43a30.24,30.24,0,0,1,3.15.18c7.14,1.07,11.76,6.55,11.78,14q0,14.46,0,28.93a2.28,2.28,0,0,0,1.06,2c11.14,8.43,16.41,19.61,15,33.56A35.78,35.78,0,0,1,88.17,122c-12.37,1.73-22.94-2.08-31.62-11a4.32,4.32,0,0,0-3.47-1.53c-13,.07-26,0-39,0-5.85,0-10.25-2.48-12.76-7.79A13.74,13.74,0,0,1,.07,96Q0,60.56,0,25.11A13.34,13.34,0,0,1,13.4,11.71h1.38c0-.48,0-.9,0-1.32A9.68,9.68,0,0,1,23,.12c.07,0,.13-.08.2-.12ZM5.33,38.89c0,.35,0,.59,0,.83q0,28,0,55.93a9.44,9.44,0,0,0,.33,2.48c1,3.83,4.14,6,8.54,6h36c.37,0,.75,0,1.09-.05-7.12-15.14-6.27-29.46,5-42s25.52-14.75,41.16-9.22v-14Zm77.54,78.25A30.91,30.91,0,1,0,52,86.23,31.05,31.05,0,0,0,82.87,117.14ZM68.75,17.08H34v4.63c0,2.53-.86,3.41-3.35,3.41H18.07c-2.41,0-3.28-.9-3.29-3.34V17.06c-5.39-.5-9.36,3-9.49,8.2,0,2,0,4,0,6v2.24H97.37c0-3.09.16-6.12,0-9.13a8,8,0,0,0-9.59-7.22c0,1.61,0,3.23,0,4.86,0,2.19-.94,3.13-3.13,3.13H71.82c-2.16,0-3-.86-3.06-3.05C68.73,20.44,68.75,18.81,68.75,17.08Zm-40,2.74c0-3.38,0-6.64,0-9.89a4.33,4.33,0,1,0-8.65,0c0,3,0,6,0,9,0,.3.06.6.09.92Zm53.76,0c0-3.36,0-6.61,0-9.87,0-2.68-1.74-4.5-4.2-4.52S74.09,7.15,74,9.89s0,5.49,0,8.24v1.68Z"/><path class="cls-1" d="M83.75,86.25h7.43c1.28,0,2.55,0,3.82,0,1.76,0,2.85,1,2.9,2.53a2.64,2.64,0,0,1-2.84,2.72c-1.91.06-3.82,0-5.74,0-2.46,0-4.93,0-7.4,0s-3.43-1-3.44-3.4q0-8.55,0-17.08c0-2.08,1.15-3.36,2.82-3.24a2.61,2.61,0,0,1,2.44,2.86c0,3.58,0,7.17,0,10.75Z"/></g></g></svg>