<svg xmlns="http://www.w3.org/2000/svg" viewBox="0 0 112.62 112.65"><defs><style>.cls-1{fill:#8c8c8c;}</style></defs><g id="Layer_2" data-name="Layer 2"><g id="Layer_1-2" data-name="Layer 1"><path class="cls-1" d="M112.62,53v6.6a6.39,6.39,0,0,0-.19,1,53.43,53.43,0,0,1-2.92,14.16A56.23,56.23,0,0,1,87,103.55a54.59,54.59,0,0,1-26.28,8.92A55.82,55.82,0,0,1,37,109.26,55.16,55.16,0,0,1,11.69,90.6,55,55,0,0,1,.29,50.7,54.36,54.36,0,0,1,14,19.21,55.23,55.23,0,0,1,46.6.88C48.71.5,50.86.29,53,0h6.6a6.11,6.11,0,0,0,.85.18A53.67,53.67,0,0,1,85,7.93c14.59,8.94,23.56,21.83,26.72,38.69C112.14,48.73,112.33,50.88,112.62,53ZM69.81,80.33c.22,3,1.13,5.69,3.44,7.5A25.5,25.5,0,0,0,78.71,91c3.39,1.47,6.9,2.64,10.33,4a1.56,1.56,0,0,0,2-.3c14.25-13.64,19.87-30.21,15.8-49.53C100.92,17.21,73-.46,45.14,5.73a51.8,51.8,0,0,0-23.59,89,1.48,1.48,0,0,0,2,.33,35,35,0,0,1,3.34-1.38c3.13-1.24,6.32-2.34,9.37-3.75a10.52,10.52,0,0,0,6.51-9.6c-.45-.08-.87-.15-1.29-.24C36,79,30.48,78,25,76.73c-2.67-.59-3.14-2-1.69-4.34a37.82,37.82,0,0,0,4.18-9.87,51.05,51.05,0,0,0,1.76-13.36c.08-7,1-14,3.9-20.46A25.09,25.09,0,0,1,43.22,17c5.58-3.31,11.63-4,17.93-3A22.4,22.4,0,0,1,73,19.61c4.56,4.14,7.07,9.44,8.63,15.27,1.44,5.39,1.63,10.91,1.8,16.45a42.48,42.48,0,0,0,6.09,21.41c1.13,1.83.61,3.33-1.47,3.86-3.65.94-7.31,1.81-11,2.58C74.66,79.68,72.25,80,69.81,80.33ZM86,98.64c-3.36-1.3-6.67-2.49-9.91-3.83-7-2.89-10.85-8-10.83-15.72,0-2,.8-2.91,2.72-3.17,2.76-.37,5.53-.69,8.26-1.17s5.36-1.11,8-1.67c-.93-2.27-1.87-4.38-2.65-6.54-2.23-6.18-2.74-12.63-2.84-19.14a45.94,45.94,0,0,0-2.41-14.23,23.81,23.81,0,0,0-6.22-10.09C65,18.35,58.81,17.35,52.19,18.39c-7.42,1.16-12.1,5.8-15,12.45a41.92,41.92,0,0,0-3.3,16c-.15,6.5-.52,13-2.7,19.17-.81,2.34-1.82,4.61-2.79,7,2.29.5,4.59,1.08,6.93,1.49,3.1.53,6.23.93,9.35,1.37,2,.28,2.72,1.06,2.69,3.13,0,.59,0,1.17-.08,1.76A14.81,14.81,0,0,1,41.5,92a33.46,33.46,0,0,1-8.81,4.39L26.6,98.6C43.38,110.93,68.33,111.44,86,98.64Z"/></g></g></svg>