<svg width="34" height="30" viewBox="0 0 34 30" fill="none" xmlns="http://www.w3.org/2000/svg">
<path fill-rule="evenodd" clip-rule="evenodd" d="M24.4488 23.6847C24.4488 28.5055 17.7053 29.0628 12.6343 29.0628L12.2714 29.0625C9.04062 29.0548 0.816895 28.8548 0.816895 23.6555C0.816895 18.9331 7.28934 18.302 12.3218 18.2782L12.9972 18.2777C16.2278 18.2854 24.4488 18.4854 24.4488 23.6847ZM12.6343 20.4714C6.2773 20.4714 3.05476 21.542 3.05476 23.6555C3.05476 25.788 6.2773 26.8688 12.6343 26.8688C18.9899 26.8688 22.2109 25.7982 22.2109 23.6847C22.2109 21.5522 18.9899 20.4714 12.6343 20.4714ZM12.6343 0C17.0027 0 20.5549 3.48395 20.5549 7.76649C20.5549 12.049 17.0027 15.5315 12.6343 15.5315H12.5866C8.22723 15.5184 4.69587 12.0329 4.71074 7.7621C4.71074 3.48395 8.26452 0 12.6343 0ZM12.6343 2.08862C9.44015 2.08862 6.84121 4.63503 6.84121 7.76649C6.8308 10.8877 9.41031 13.4327 12.5911 13.4444L12.6343 14.4887V13.4444C15.827 13.4444 18.4244 10.8965 18.4244 7.76649C18.4244 4.63503 15.827 2.08862 12.6343 2.08862Z" fill="#FBFBFE"/>
<path fill-rule="evenodd" clip-rule="evenodd" d="M33.0901 10.9023C33.5654 11.3683 33.5654 12.1237 33.0901 12.5897L26.7666 18.7906C26.5849 18.97 26.3503 19.0863 26.0984 19.1256L25.9068 19.1405C25.584 19.1405 25.2742 19.0148 25.0454 18.7906L21.9762 15.7784C21.5025 15.3124 21.5025 14.5554 21.9778 14.091C22.4515 13.625 23.2237 13.625 23.699 14.091L25.9068 16.2587L31.3705 10.9023C31.8459 10.4363 32.6148 10.4363 33.0901 10.9023Z" fill="#FBFBFE"/>
</svg>
