<svg id="suitcase" xmlns="http://www.w3.org/2000/svg" width="90.319" height="83.503" viewBox="0 0 90.319 83.503">
  <g id="Group_21948" data-name="Group 21948">
    <path id="Path_74564" data-name="Path 74564" d="M206.145,37.165a22.514,22.514,0,0,0-4.969-2.652,36.582,36.582,0,0,0-26.194,0,22.512,22.512,0,0,0-4.969,2.653,3.761,3.761,0,0,0-1.48,2.99v5.9l3.761,2.011,3.761-2.011V42.285a28.355,28.355,0,0,1,24.05,0v3.77l3.761,2.011,3.761-2.011v-5.9A3.759,3.759,0,0,0,206.145,37.165Z" transform="translate(-142.92 -32.088)" fill="#e8834d"/>
    <g id="Group_21947" data-name="Group 21947" transform="translate(25.612 13.968)">
      <path id="Path_74565" data-name="Path 74565" d="M168.533,94.589v4.152l3.761,2.011,3.761-2.011V94.589Z" transform="translate(-168.533 -94.589)" fill="#d66e41"/>
      <path id="Path_74566" data-name="Path 74566" d="M317.326,94.589h-7.521v4.152l3.761,2.011,3.761-2.011Z" transform="translate(-278.233 -94.589)" fill="#d66e41"/>
    </g>
    <path id="Path_74567" data-name="Path 74567" d="M13.247,298.286V331.7c0,3.966,2.5,7.181,5.586,7.181H92.059c3.085,0,5.586-3.215,5.586-7.181V298.286Z" transform="translate(-10.287 -255.373)" fill="#365e7d"/>
    <path id="Path_74568" data-name="Path 74568" d="M13.247,279.705v4.153c4.641,4.737,16.906,13.933,42.2,13.933s37.558-9.2,42.2-13.933V279.7h-84.4Z" transform="translate(-10.286 -235.555)" fill="#2b4d66"/>
    <path id="Path_74569" data-name="Path 74569" d="M2.091,148c4.513,4.655,16.942,14.183,43.069,14.183S83.715,152.651,88.229,148c1.323-1.365,2.091-5.421,2.091-7.582V120.35c0-3.966-2.538-7.181-5.669-7.181H5.669C2.538,113.169,0,116.384,0,120.35v20.063c0,2.161.768,6.218,2.091,7.582Z" transform="translate(0 -100.931)" fill="#407093"/>
    <path id="Path_74570" data-name="Path 74570" d="M88.229,240.649c-4.513,4.655-16.942,14.183-43.069,14.183S6.6,245.3,2.091,240.649A8.047,8.047,0,0,1,0,235.078v4.153A8.047,8.047,0,0,0,2.091,244.8c4.513,4.655,16.942,14.183,43.069,14.183s38.555-9.528,43.069-14.183a8.047,8.047,0,0,0,2.091-5.571v-4.153A8.047,8.047,0,0,1,88.229,240.649Z" transform="translate(0 -199.586)" fill="#365e7d"/>
    <path id="Path_74571" data-name="Path 74571" d="M232.624,320.124c3.715,0,6.727-2.759,6.727-8.738v-4.079a2.394,2.394,0,0,0-2.394-2.394h-8.666a2.394,2.394,0,0,0-2.394,2.394v4.079C225.9,317.365,228.909,320.124,232.624,320.124Z" transform="translate(-187.465 -255.851)" fill="#ffe27a"/>
    <path id="Path_74572" data-name="Path 74572" d="M232.624,340.6a6.727,6.727,0,0,1-6.727-6.727v4.153a6.727,6.727,0,1,0,13.454,0v-4.153A6.727,6.727,0,0,1,232.624,340.6Z" transform="translate(-187.465 -278.964)" fill="#f9cf58"/>
  </g>
</svg>
