<svg width="26" height="19" viewBox="0 0 26 19" fill="none" xmlns="http://www.w3.org/2000/svg">
<path d="M1 3.33333C1 2.71449 1.24583 2.121 1.68342 1.68342C2.121 1.24583 2.71449 1 3.33333 1H22C22.6188 1 23.2123 1.24583 23.6499 1.68342C24.0875 2.121 24.3333 2.71449 24.3333 3.33333V15C24.3333 15.6188 24.0875 16.2123 23.6499 16.6499C23.2123 17.0875 22.6188 17.3333 22 17.3333H3.33333C2.71449 17.3333 2.121 17.0875 1.68342 16.6499C1.24583 16.2123 1 15.6188 1 15V3.33333Z" stroke="#AEB0B2" stroke-width="1.66667" stroke-linecap="round" stroke-linejoin="round"/>
<path d="M12.667 12.6666C14.6 12.6666 16.167 11.0996 16.167 9.16663C16.167 7.23363 14.6 5.66663 12.667 5.66663C10.734 5.66663 9.16699 7.23363 9.16699 9.16663C9.16699 11.0996 10.734 12.6666 12.667 12.6666Z" stroke="#AEB0B2" stroke-width="1.66667" stroke-linecap="round" stroke-linejoin="round"/>
<path d="M1 5.66667C2.23768 5.66667 3.42466 5.175 4.29983 4.29983C5.175 3.42466 5.66667 2.23768 5.66667 1" stroke="#AEB0B2" stroke-width="1.66667" stroke-linecap="round" stroke-linejoin="round"/>
<path d="M19.667 17.3333C19.667 16.0956 20.1587 14.9086 21.0338 14.0335C21.909 13.1583 23.096 12.6666 24.3337 12.6666" stroke="#AEB0B2" stroke-width="1.66667" stroke-linecap="round" stroke-linejoin="round"/>
</svg>
