<svg width="37" height="37" viewBox="0 0 37 37" fill="none" xmlns="http://www.w3.org/2000/svg">
<path fill-rule="evenodd" clip-rule="evenodd" d="M18.0646 8C20.4466 8 22.3846 9.99 22.3846 12.436V13.368C22.3846 13.782 22.0573 14.118 21.6542 14.118C21.251 14.118 20.9238 13.782 20.9238 13.368V12.436C20.9238 10.816 19.6412 9.5 18.0646 9.5H13.3171C11.7424 9.5 10.4608 10.816 10.4608 12.436V23.565C10.4608 25.184 11.7424 26.5 13.3171 26.5H18.0753C19.6451 26.5 20.9238 25.188 20.9238 23.576V22.633C20.9238 22.219 21.251 21.883 21.6542 21.883C22.0573 21.883 22.3846 22.219 22.3846 22.633V23.576C22.3846 26.016 20.4505 28 18.0753 28H13.3171C10.937 28 9 26.011 9 23.565V12.436C9 9.99 10.937 8 13.3171 8H18.0646ZM25.9334 14.554L28.7848 17.469C28.8102 17.4949 28.833 17.5219 28.8538 17.5504L28.7848 17.469C28.8193 17.5039 28.85 17.5421 28.8766 17.5828C28.8883 17.6012 28.8996 17.6203 28.9101 17.6399C28.9186 17.6552 28.9264 17.6712 28.9337 17.6875C28.9398 17.7018 28.9457 17.7162 28.9512 17.7308C28.9585 17.7498 28.965 17.7693 28.9706 17.7891C28.9748 17.8047 28.9787 17.8203 28.9822 17.836C28.9865 17.8551 28.9899 17.8743 28.9926 17.8937C28.9942 17.9063 28.9957 17.9195 28.9968 17.9328C28.999 17.9556 29 17.9777 29 18L28.995 18.062L28.993 18.1017C28.9928 18.1034 28.9926 18.1051 28.9923 18.1068L29 18C29 18.0555 28.994 18.1105 28.9824 18.1639C28.9787 18.1797 28.9748 18.1953 28.9705 18.2107C28.965 18.2307 28.9585 18.2502 28.9513 18.2695C28.9457 18.2838 28.9398 18.2982 28.9335 18.3123C28.9264 18.3288 28.9186 18.3448 28.9102 18.3605C28.8996 18.3797 28.8883 18.3988 28.8762 18.4172C28.8694 18.4282 28.8619 18.439 28.8541 18.4497C28.8309 18.481 28.8056 18.5104 28.7783 18.5377L25.9334 21.447C25.7912 21.593 25.6042 21.666 25.4182 21.666C25.2312 21.666 25.0433 21.593 24.9011 21.445C24.6167 21.151 24.6177 20.677 24.903 20.385L26.5 18.75H16.5432C16.1401 18.75 15.8128 18.414 15.8128 18C15.8128 17.586 16.1401 17.25 16.5432 17.25H26.502L24.903 15.616C24.6177 15.324 24.6157 14.85 24.9011 14.556C25.1854 14.262 25.647 14.262 25.9334 14.554Z" fill="#F56854"/>
<circle cx="18.5" cy="18.5" r="18.5" fill="#F56854" fill-opacity="0.2"/>
</svg>
