<svg xmlns="http://www.w3.org/2000/svg" viewBox="0 0 106.82 106.81"><defs><style>.cls-1{fill:#8c8c8c;}</style></defs><g id="Layer_2" data-name="Layer 2"><g id="Layer_1-2" data-name="Layer 1"><path class="cls-1" d="M55.93,106.81h-4.8L50,106.63a98.5,98.5,0,0,1-9.85-1.57A51.84,51.84,0,0,1,10.46,85,51.91,51.91,0,0,1,1.2,42.43,51.67,51.67,0,0,1,21.09,11,51.94,51.94,0,0,1,58.85.28,51.72,51.72,0,0,1,88.77,13.44,52.5,52.5,0,0,1,106,44.1c.36,2,.56,4.11.84,6.17v6.47c-.06.26-.15.52-.19.79-.32,2.3-.5,4.63-1,6.89a52.63,52.63,0,0,1-19.9,31.42A52.29,52.29,0,0,1,62,106.07C60,106.41,58,106.57,55.93,106.81ZM86.32,90.28c13.81-11.92,20.87-32.85,13.82-53.35A49.53,49.53,0,0,0,6.2,38.56,49.1,49.1,0,0,0,20.4,90.15c.86-.5,1.73-1,2.61-1.49,4.54-2.48,9.07-5,13.63-7.42a4.85,4.85,0,0,0,2.81-4.71c0-1.39,0-2.79,0-4.18a3.16,3.16,0,0,0-.48-1.52,38,38,0,0,1-5.32-11,3.23,3.23,0,0,0-.71-1.23,6.8,6.8,0,0,1-2-4.66c0-2.57-.12-5.15.05-7.72a14.44,14.44,0,0,1,1.13-3.4,5.49,5.49,0,0,0,.47-1.63c0-3.13,0-6.25,0-9.38A15,15,0,0,1,41.8,17.7a31.06,31.06,0,0,1,21.82-.57,15,15,0,0,1,10.7,14.58c0,3.1,0,6.19,0,9.29a7.14,7.14,0,0,0,.55,1.91,14.43,14.43,0,0,1,1,3.33c.16,2.59.12,5.21,0,7.81a6.83,6.83,0,0,1-3.22,5.55A3.91,3.91,0,0,0,71.61,61c-1.38,2.64-2.47,5.47-4.13,7.91a11.35,11.35,0,0,0-1.85,6.24c-.2,3.54,1.15,5.59,4.35,7.05C75.5,84.7,80.87,87.55,86.32,90.28ZM83,93l-1.08-.58L66.74,84.84a8.37,8.37,0,0,1-4.95-8c0-2,0-4,0-5.94a2,2,0,0,1,.35-1.14,36.9,36.9,0,0,0,6.53-12.12,1.51,1.51,0,0,1,.8-.81c2-.8,2.65-1.72,2.66-3.86,0-1.91,0-3.82,0-5.73a3.89,3.89,0,0,0-1.23-3,1.83,1.83,0,0,1-.5-1.15c0-3.55-.05-7.1,0-10.64A11.33,11.33,0,0,0,63.1,21.08a27.42,27.42,0,0,0-18.4-.36,11.34,11.34,0,0,0-8.34,11.4c.07,3.62.07,7.23,0,10.85a2.15,2.15,0,0,1-.58,1.32A3.81,3.81,0,0,0,34.69,47v6.25a3.64,3.64,0,0,0,1.58,3.13A2.2,2.2,0,0,1,37,57.52a37.66,37.66,0,0,0,3.47,8.57c.88,1.62,2.58,2.83,2.79,4.76s0,3.75,0,5.63a8.54,8.54,0,0,1-4.88,8.19c-4.65,2.49-9.27,5-13.9,7.57l-1,.58A49.35,49.35,0,0,0,83,93Z"/></g></g></svg>