<svg id="bell" xmlns="http://www.w3.org/2000/svg" width="115.001" height="117.865" viewBox="0 0 115.001 117.865">
  <circle id="Ellipse_4248" data-name="Ellipse 4248" cx="12.431" cy="12.431" r="12.431" transform="translate(38.472 94.32) rotate(-18.725)" fill="#ffe266"/>
  <path id="Path_74554" data-name="Path 74554" d="M193.723,386.866a12.484,12.484,0,0,0-2.315.219,8.234,8.234,0,1,1-9.9,9.9,12.43,12.43,0,1,0,12.212-10.116Z" transform="translate(-139.464 -297.209)" fill="#efaa66"/>
  <path id="Path_74555" data-name="Path 74555" d="M324.484,10.2a7.2,7.2,0,0,0-9.841,2.637l-5.969,10.339a7.2,7.2,0,0,0,12.478,7.2l5.969-10.339A7.2,7.2,0,0,0,324.484,10.2Z" transform="translate(-236.582 -7.096)" fill="#ffe266"/>
  <path id="Path_74556" data-name="Path 74556" d="M104.777,144.065c-4.924-7.809,11.956-42.369,12.174-42.81,9.144-18.53,2.073-40.7-15.795-49.516S61.392,50.8,52.248,69.326c-.468.949-16.732,35.6-26.082,35.947Z" transform="translate(-20.288 -36.973)" fill="#ffe266"/>
  <path id="Path_74557" data-name="Path 74557" d="M101.156,56.123a35.023,35.023,0,0,0-5.948-2.291c9.573,7.609,12.761,21.435,6.937,33.239-.086.175-3.742,7.658-6.5,15.386a13.673,13.673,0,0,1-18.922,7.708L41.889,92.978c-5.161,8.448-11.237,16.51-15.723,16.678l78.611,38.793c-4.924-7.809,11.956-42.369,12.174-42.81C126.1,87.109,119.024,64.94,101.156,56.123Z" transform="translate(-20.288 -41.356)" fill="#efaa66"/>
  <g id="Group_21942" data-name="Group 21942" transform="translate(42.707 22.634)">
    <path id="Path_74558" data-name="Path 74558" d="M187.4,108.7a2.318,2.318,0,0,1-1.8-3.775,33,33,0,0,1,7.622-6.885,2.317,2.317,0,1,1,2.534,3.881,28.357,28.357,0,0,0-6.552,5.919,2.312,2.312,0,0,1-1.8.86Z" transform="translate(-185.081 -97.665)" fill="#fff"/>
  </g>
  <g id="Group_21943" data-name="Group 21943" transform="translate(56.852 18.544)">
    <path id="Path_74559" data-name="Path 74559" d="M248.436,85.35a2.318,2.318,0,0,1-.721-4.52c.881-.289,1.786-.542,2.691-.753a2.318,2.318,0,0,1,1.052,4.514c-.773.18-1.547.4-2.3.643A2.323,2.323,0,0,1,248.436,85.35Z" transform="translate(-246.119 -80.016)" fill="#fff"/>
  </g>
  <path id="Path_74560" data-name="Path 74560" d="M88.444,325.709,16.369,290.141a5.649,5.649,0,0,1-2.566-7.566l.091-.184a5.649,5.649,0,0,1,7.566-2.566l72.075,35.567a5.649,5.649,0,0,1,2.566,7.566l-.091.184A5.649,5.649,0,0,1,88.444,325.709Z" transform="translate(-10.341 -214.526)" fill="#ffe266"/>
  <g id="Group_21944" data-name="Group 21944" transform="translate(43.193 92.781)">
    <path id="Path_74561" data-name="Path 74561" d="M209.308,414.758a2.306,2.306,0,0,1-1.024-.24l-19.813-9.777a2.318,2.318,0,0,1,2.051-4.157l19.813,9.777a2.318,2.318,0,0,1-1.027,4.4Z" transform="translate(-187.179 -400.345)" fill="#d0844b"/>
  </g>
  <path id="Path_74562" data-name="Path 74562" d="M9.9,96.653l1.9,5.353a.859.859,0,0,0,.447.5l4.756,2.143a.949.949,0,0,1,0,1.676l-4.756,2.143a.859.859,0,0,0-.447.5l-1.9,5.353a.772.772,0,0,1-1.489,0l-1.9-5.353a.858.858,0,0,0-.447-.5l-4.756-2.143a.949.949,0,0,1,0-1.676l4.756-2.143a.859.859,0,0,0,.447-.5l1.9-5.353a.772.772,0,0,1,1.489,0Z" transform="translate(-0.805 -73.818)" fill="#fef2a8"/>
  <path id="Path_74563" data-name="Path 74563" d="M119.68.421l1.412,3.971a.637.637,0,0,0,.331.373l3.528,1.589a.7.7,0,0,1,0,1.243l-3.528,1.589a.637.637,0,0,0-.331.373L119.68,13.53a.573.573,0,0,1-1.1,0l-1.412-3.971a.637.637,0,0,0-.331-.373L113.3,7.6a.7.7,0,0,1,0-1.243l3.528-1.589a.637.637,0,0,0,.331-.373L118.575.421a.573.573,0,0,1,1.1,0Z" transform="translate(-86.945 0)" fill="#fef2a8"/>
  <g id="Group_21945" data-name="Group 21945" transform="translate(10.827 9.638)">
    <circle id="Ellipse_4249" data-name="Ellipse 4249" cx="4.157" cy="4.157" r="4.157" transform="matrix(0.217, -0.976, 0.976, 0.217, 94.256, 12.059)" fill="#ffe266"/>
    <circle id="Ellipse_4250" data-name="Ellipse 4250" cx="1.793" cy="1.793" r="1.793" fill="#ffe266"/>
  </g>
</svg>
