<svg xmlns="http://www.w3.org/2000/svg" width="21" height="21" viewBox="0 0 21 21">
  <g id="newspaper" opacity="0.41">
    <g id="Group_21935" data-name="Group 21935">
      <path id="Path_74550" data-name="Path 74550" d="M20.25,5.25H16.5V.75A.75.75,0,0,0,15.75,0H.75A.75.75,0,0,0,0,.75V18a3,3,0,0,0,3,3H18a3,3,0,0,0,3-3V6A.75.75,0,0,0,20.25,5.25ZM6,3.75h4.5a.75.75,0,0,1,0,1.5H6a.75.75,0,1,1,0-1.5ZM12.75,18h-9a.75.75,0,1,1,0-1.5h9a.75.75,0,1,1,0,1.5Zm0-3h-9a.75.75,0,1,1,0-1.5h9a.75.75,0,1,1,0,1.5Zm0-3h-9a.75.75,0,1,1,0-1.5h9a.75.75,0,1,1,0,1.5Zm0-3h-9a.75.75,0,1,1,0-1.5h9a.75.75,0,1,1,0,1.5Zm6.75,9a1.5,1.5,0,0,1-3,0V6.75h3V18Z" fill="#fff"/>
    </g>
  </g>
</svg>
