<svg width="21" height="26" viewBox="0 0 21 26" fill="none" xmlns="http://www.w3.org/2000/svg">
<path d="M18.4091 10.125C18.4091 7.92792 17.5363 5.82083 15.9827 4.26726C14.4292 2.71369 12.3221 1.84091 10.125 1.84091C7.92792 1.84091 5.82083 2.71369 4.26726 4.26726C2.71369 5.82083 1.84091 7.92792 1.84091 10.125C1.84091 13.5233 4.55993 17.9525 10.125 23.258C15.6901 17.9525 18.4091 13.5233 18.4091 10.125ZM10.125 25.7727C3.37439 19.637 0 14.4198 0 10.125C0 7.43968 1.06674 4.86435 2.96554 2.96554C4.86435 1.06674 7.43968 0 10.125 0C12.8103 0 15.3857 1.06674 17.2845 2.96554C19.1833 4.86435 20.25 7.43968 20.25 10.125C20.25 14.4198 16.8756 19.637 10.125 25.7727Z" fill="#AEB0B2"/>
<path d="M10.1252 12.8864C10.8576 12.8864 11.5599 12.5954 12.0778 12.0776C12.5957 11.5597 12.8866 10.8574 12.8866 10.125C12.8866 9.39264 12.5957 8.69028 12.0778 8.17242C11.5599 7.65457 10.8576 7.36364 10.1252 7.36364C9.39286 7.36364 8.6905 7.65457 8.17264 8.17242C7.65479 8.69028 7.36386 9.39264 7.36386 10.125C7.36386 10.8574 7.65479 11.5597 8.17264 12.0776C8.6905 12.5954 9.39286 12.8864 10.1252 12.8864ZM10.1252 14.7273C8.90462 14.7273 7.73402 14.2424 6.87092 13.3793C6.00783 12.5162 5.52295 11.3456 5.52295 10.125C5.52295 8.9044 6.00783 7.7338 6.87092 6.8707C7.73402 6.00761 8.90462 5.52273 10.1252 5.52273C11.3458 5.52273 12.5164 6.00761 13.3795 6.8707C14.2426 7.7338 14.7275 8.9044 14.7275 10.125C14.7275 11.3456 14.2426 12.5162 13.3795 13.3793C12.5164 14.2424 11.3458 14.7273 10.1252 14.7273Z" fill="#AEB0B2"/>
</svg>
