<svg width="41" height="27" viewBox="0 0 41 27" fill="none" xmlns="http://www.w3.org/2000/svg">
<path fill-rule="evenodd" clip-rule="evenodd" d="M13.1558 0.0448608C14.0429 0.0448608 14.9052 0.403796 15.5235 1.02766C16.1405 1.65519 16.4812 2.5159 16.4551 3.38882C16.4576 3.58538 16.5233 3.81246 16.6422 4.01146C16.8392 4.34109 17.1502 4.57306 17.5194 4.66829C17.8886 4.75863 18.2752 4.7098 18.6035 4.51812C20.1894 3.62567 22.2076 4.16041 23.1133 5.71091L23.8852 7.02822C23.905 7.06363 23.9223 7.09781 23.9372 7.13322C24.7574 8.66052 24.2098 10.5834 22.6859 11.4612C22.4641 11.5869 22.2844 11.7627 22.1605 11.9752C21.9685 12.3036 21.9152 12.6943 22.0119 13.0532C22.111 13.4195 22.3476 13.7235 22.6809 13.9115C23.4329 14.3376 23.9942 15.0554 24.2184 15.8844C24.4427 16.7121 24.32 17.6107 23.8827 18.3518L23.06 19.702C22.1543 21.2355 20.1361 21.7665 18.5663 20.8729C18.3569 20.7544 18.1153 20.6897 17.875 20.6836H17.8676C17.5095 20.6836 17.1415 20.8338 16.8739 21.0963C16.6026 21.3636 16.4539 21.7201 16.4564 22.0986C16.4477 23.8921 14.9672 25.3425 13.1558 25.3425H11.6034C9.78337 25.3425 8.30282 23.8847 8.30282 22.0913C8.30034 21.8703 8.23592 21.6408 8.11574 21.4418C7.92122 21.1073 7.60653 20.868 7.24351 20.7728C6.88298 20.6775 6.48775 20.73 6.16314 20.9156C5.38508 21.3429 4.46949 21.4467 3.63196 21.2147C2.79566 20.9815 2.07335 20.415 1.64963 19.6642L0.875284 18.3493C-0.0303924 16.8013 0.508553 14.8174 2.07707 13.9237C2.52186 13.671 2.79814 13.1997 2.79814 12.6943C2.79814 12.1888 2.52186 11.7164 2.07707 11.4636C0.507314 10.5651 -0.0303924 8.57628 0.874045 7.02822L1.71406 5.6694C2.60734 4.13843 4.62684 3.59881 6.20155 4.49004C6.41589 4.61579 6.64881 4.67927 6.88546 4.68172C7.65732 4.68172 8.30282 4.05419 8.31521 3.2826C8.31025 2.43166 8.65097 1.6149 9.27168 0.998358C9.89488 0.383041 10.7225 0.0448608 11.6034 0.0448608H13.1558ZM13.1558 1.87616H11.6034C11.2193 1.87616 10.86 2.02389 10.5887 2.29004C10.3186 2.55741 10.1712 2.91268 10.1736 3.29115C10.1476 5.07606 8.66707 6.51302 6.8743 6.51302C6.29943 6.50691 5.74562 6.3543 5.2649 6.07106C4.58967 5.69259 3.70754 5.92578 3.31231 6.60336L2.47354 7.96219C2.08946 8.61901 2.32486 9.48705 3.00876 9.87895C4.02347 10.4576 4.65657 11.5369 4.65657 12.6943C4.65657 13.8517 4.02347 14.9297 3.00629 15.5096C2.3261 15.8978 2.0907 16.761 2.48469 17.4325L3.26647 18.7608C3.45974 19.1038 3.77568 19.3517 4.14117 19.453C4.50542 19.5531 4.90684 19.5104 5.24136 19.3272C5.73323 19.0428 6.30562 18.8951 6.8805 18.8951C7.16422 18.8951 7.44794 18.9305 7.72547 19.0037C8.563 19.2259 9.29027 19.7777 9.72142 20.5188C10.0014 20.984 10.1563 21.5272 10.1613 22.0815C10.1613 22.8751 10.808 23.5112 11.6034 23.5112H13.1558C13.9475 23.5112 14.5942 22.8787 14.598 22.0986C14.593 21.2367 14.9349 20.4175 15.5606 19.8009C16.1776 19.1929 17.0399 18.8279 17.9022 18.8523C18.4672 18.8658 19.0111 19.0159 19.4906 19.2845C20.1807 19.674 21.0616 19.442 21.4605 18.7705L22.2832 17.419C22.4666 17.1077 22.5198 16.717 22.422 16.3569C22.3253 15.9967 22.0825 15.6842 21.7554 15.4998C20.9897 15.0652 20.4433 14.3644 20.2166 13.5245C19.9924 12.7004 20.115 11.8006 20.5524 11.0595C20.8373 10.5712 21.2549 10.1597 21.7554 9.87651C22.4269 9.48949 22.6623 8.6239 22.272 7.94998C22.2559 7.92312 22.2411 7.89504 22.2287 7.86574L21.5026 6.62534C21.1074 5.94776 20.2278 5.71457 19.5377 6.10158C18.7918 6.53621 17.9047 6.66074 17.0523 6.43976C16.2012 6.22245 15.4875 5.69137 15.0427 4.94176C14.7578 4.47295 14.6029 3.92722 14.598 3.37173C14.6091 2.95419 14.4604 2.57938 14.1903 2.30469C13.9215 2.03121 13.5436 1.87616 13.1558 1.87616ZM12.3851 8.55931C14.6982 8.55931 16.5802 10.415 16.5802 12.6944C16.5802 14.9738 14.6982 16.827 12.3851 16.827C10.0719 16.827 8.18995 14.9738 8.18995 12.6944C8.18995 10.415 10.0719 8.55931 12.3851 8.55931ZM12.3851 10.3906C11.0965 10.3906 10.0484 11.4247 10.0484 12.6944C10.0484 13.9641 11.0965 14.9957 12.3851 14.9957C13.6736 14.9957 14.7217 13.9641 14.7217 12.6944C14.7217 11.4247 13.6736 10.3906 12.3851 10.3906Z" fill="#F8FBFE"/>
<path fill-rule="evenodd" clip-rule="evenodd" d="M40.0763 23.5834C40.0763 26.631 35.835 26.9833 32.6455 26.9833L32.4173 26.9831C30.3853 26.9783 25.2129 26.8519 25.2129 23.5649C25.2129 20.5795 29.2838 20.1805 32.4489 20.1655L32.8738 20.1652C34.9057 20.17 40.0763 20.2965 40.0763 23.5834ZM32.6455 21.552C28.6472 21.552 26.6204 22.2288 26.6204 23.5649C26.6204 24.9131 28.6472 25.5964 32.6455 25.5964C36.6429 25.5964 38.6688 24.9195 38.6688 23.5834C38.6688 22.2353 36.6429 21.552 32.6455 21.552ZM32.6455 8.61023C35.393 8.61023 37.6272 10.8127 37.6272 13.5201C37.6272 16.2275 35.393 18.4291 32.6455 18.4291H32.6155C29.8737 18.4207 27.6526 16.2173 27.6619 13.5173C27.6619 10.8127 29.8971 8.61023 32.6455 8.61023ZM32.6455 9.93063C30.6365 9.93063 29.0019 11.5404 29.0019 13.5201C28.9954 15.4933 30.6178 17.1022 32.6183 17.1096L32.6455 17.7698V17.1096C34.6536 17.1096 36.2873 15.4989 36.2873 13.5201C36.2873 11.5404 34.6536 9.93063 32.6455 9.93063Z" fill="#F8FBFE"/>
</svg>
