<svg xmlns="http://www.w3.org/2000/svg" width="20.212" height="23.928" viewBox="0 0 20.212 23.928">
  <g id="man-in-suit-and-tie" transform="translate(-2.352 -0.766)" opacity="0.41">
    <g id="Group_21858" data-name="Group 21858" transform="translate(2.352 0)">
      <path id="Path_74500" data-name="Path 74500" d="M7.931,7.3a1.513,1.513,0,0,0,.371.762c.365,2.393,2.645,4.432,4.476,4.346,2.33-.108,3.981-2.472,4.352-4.346a1.861,1.861,0,0,0,.39-.842A1.856,1.856,0,0,0,17.45,5.8c-.016-.018-.121-.109-.139-.124a3.5,3.5,0,0,0-.6-3.907A6.8,6.8,0,0,0,13.886.3,4.45,4.45,0,0,0,8.039,2.772a4.08,4.08,0,0,0,.025,2.9.531.531,0,0,0-.137.124C7.651,6.138,7.831,6.866,7.931,7.3Z" transform="translate(-2.608 0.765)" fill="#fff"/>
      <path id="Path_74501" data-name="Path 74501" d="M22.557,22.337c-.08-1.748-.179-4.519-1.707-6.786a3.385,3.385,0,0,0-1.468-.988,14.938,14.938,0,0,1-3.276-1.422l-.472.323.052,3.066-2.832,7.56a.423.423,0,0,1-.793,0L9.231,16.53s.052-3.057.051-3.066c.007.026-.473-.323-.473-.323a14.9,14.9,0,0,1-3.275,1.422,3.385,3.385,0,0,0-1.468.988C2.541,17.817,2.44,20.588,2.36,22.337c-.055,1.208.2,1.659.516,1.787,3.95,1.585,15.212,1.585,19.163,0C22.359,24,22.611,23.545,22.557,22.337Z" transform="translate(-2.352 -0.62)" fill="#fff"/>
      <path id="Path_74502" data-name="Path 74502" d="M13,14.836l-.128,0a3.786,3.786,0,0,1-1.235-.221l1.122,1.718-1.007.972,1.037,6.3a.111.111,0,0,0,.111.093.112.112,0,0,0,.111-.093l1.037-6.3-1.008-.972,1.106-1.692A4.743,4.743,0,0,1,13,14.836Z" transform="translate(-2.79 -0.69)" fill="#fff"/>
    </g>
  </g>
</svg>
