<svg width="20" height="24" viewBox="0 0 20 24" fill="none" xmlns="http://www.w3.org/2000/svg">
<path d="M10 1.83003C10.8476 1.83003 11.6762 2.09836 12.381 2.60107C13.0858 3.10379 13.6351 3.81832 13.9595 4.65431C14.2839 5.4903 14.3687 6.41019 14.2034 7.29767C14.038 8.18515 13.6298 9.00036 13.0305 9.64019C12.4311 10.28 11.6675 10.7158 10.8361 10.8923C10.0048 11.0688 9.14304 10.9782 8.35993 10.6319C7.57682 10.2857 6.90748 9.69927 6.43656 8.9469C5.96564 8.19453 5.71429 7.30999 5.71429 6.40512C5.71429 5.19173 6.16582 4.02804 6.96954 3.17005C7.77327 2.31205 8.86336 1.83003 10 1.83003V1.83003ZM10 0C8.81331 0 7.65328 0.375654 6.66658 1.07946C5.67989 1.78326 4.91085 2.7836 4.45673 3.95399C4.0026 5.12437 3.88378 6.41222 4.11529 7.6547C4.3468 8.89717 4.91825 10.0385 5.75736 10.9342C6.59648 11.83 7.66557 12.44 8.82946 12.6872C9.99335 12.9343 11.1997 12.8075 12.2961 12.3227C13.3925 11.8379 14.3295 11.0169 14.9888 9.96361C15.6481 8.9103 16 7.67193 16 6.40512C16 4.70638 15.3679 3.07721 14.2426 1.87602C13.1174 0.674823 11.5913 0 10 0V0Z" fill="#AEB0B2"/>
<path d="M20 23.6496H18V19.9544C18 19.4691 17.8707 18.9886 17.6194 18.5403C17.3681 18.0919 16.9998 17.6846 16.5355 17.3414C16.0712 16.9983 15.52 16.7261 14.9134 16.5404C14.3068 16.3547 13.6566 16.2591 13 16.2591H7C5.67392 16.2591 4.40215 16.6484 3.46447 17.3414C2.52678 18.0344 2 18.9743 2 19.9544V23.6496H0V19.9544C0 18.5823 0.737498 17.2664 2.05025 16.2962C3.36301 15.3261 5.14348 14.781 7 14.781H13C14.8565 14.781 16.637 15.3261 17.9497 16.2962C19.2625 17.2664 20 18.5823 20 19.9544V23.6496Z" fill="#AEB0B2"/>
</svg>
