<svg width="22" height="22" viewBox="0 0 22 22" fill="none" xmlns="http://www.w3.org/2000/svg">
<path fill-rule="evenodd" clip-rule="evenodd" d="M4.79487 12.2291C9.38554 12.2291 9.58974 13.7633 9.58974 16.954C9.58974 18.5526 9.58974 19.6899 8.90831 20.5226C8.12421 21.4821 6.69703 21.6788 4.79487 21.6788C2.89272 21.6788 1.46554 21.4821 0.681436 20.5226C0 19.6899 0 18.5537 0 16.9818L0.846154 16.954H0C0 13.7633 0.204205 12.2291 4.79487 12.2291ZM17.2051 12.2291C21.7958 12.2291 22 13.7633 22 16.954C22 18.5526 22 19.6899 21.3186 20.5226C20.5345 21.4821 19.1073 21.6788 17.2051 21.6788C15.303 21.6788 13.8758 21.4821 13.0917 20.5226C12.4103 19.6899 12.4103 18.5537 12.4103 16.9818L13.2564 16.954H12.4103C12.4103 13.7633 12.6145 12.2291 17.2051 12.2291ZM5.02746 13.8972L4.79487 13.8967C1.85141 13.8967 1.70047 14.1048 1.69273 16.5393L1.6932 17.4878C1.69855 18.4561 1.73599 19.1555 1.99805 19.4776C2.29703 19.8422 3.18492 20.0112 4.79487 20.0112C6.40482 20.0112 7.29272 19.8411 7.59169 19.4765C7.89744 19.1018 7.89744 18.2124 7.89744 16.9806C7.89744 14.2011 7.89744 13.9103 5.02746 13.8972ZM17.4377 13.8972L17.2051 13.8967C14.2617 13.8967 14.1107 14.1048 14.103 16.5393L14.1035 17.4878C14.1088 18.4561 14.1462 19.1555 14.4083 19.4776C14.7073 19.8422 15.5952 20.0112 17.2051 20.0112C18.8151 20.0112 19.703 19.8411 20.0019 19.4765C20.3077 19.1018 20.3077 18.2124 20.3077 16.9806C20.3077 14.2011 20.3077 13.9103 17.4377 13.8972ZM4.79487 0C9.38554 0 9.58974 1.53419 9.58974 4.72487C9.58974 6.32355 9.58974 7.46085 8.90831 8.29354C8.12421 9.25297 6.69703 9.44975 4.79487 9.44975C2.89272 9.44975 1.46554 9.25297 0.681436 8.29354C0 7.46085 0 6.32466 0 4.75267L0.846154 4.72487H0C0 1.53419 0.204205 0 4.79487 0ZM17.2051 0C21.7958 0 22 1.53419 22 4.72487C22 6.32355 22 7.46085 21.3186 8.29354C20.5345 9.25297 19.1073 9.44975 17.2051 9.44975C15.303 9.44975 13.8758 9.25297 13.0917 8.29354C12.4103 7.46085 12.4103 6.32466 12.4103 4.75267L13.2564 4.72487H12.4103C12.4103 1.53419 12.6145 0 17.2051 0ZM5.02746 1.6681L4.79487 1.6676C1.85141 1.6676 1.70047 1.87573 1.69273 4.31025L1.6932 5.25871C1.69855 6.22699 1.73599 6.92643 1.99805 7.24851C2.29703 7.61316 3.18492 7.78214 4.79487 7.78214C6.40482 7.78214 7.29272 7.61205 7.59169 7.2474C7.89744 6.87275 7.89744 5.98336 7.89744 4.75156C7.89744 1.97199 7.89744 1.68118 5.02746 1.6681ZM17.4377 1.6681L17.2051 1.6676C14.2617 1.6676 14.1107 1.87573 14.103 4.31025L14.1035 5.25871C14.1088 6.22699 14.1462 6.92643 14.4083 7.24851C14.7073 7.61316 15.5952 7.78214 17.2051 7.78214C18.8151 7.78214 19.703 7.61205 20.0019 7.2474C20.3077 6.87275 20.3077 5.98336 20.3077 4.75156C20.3077 1.97199 20.3077 1.68118 17.4377 1.6681Z" fill="white"/>
</svg>
