<svg xmlns="http://www.w3.org/2000/svg" viewBox="0 0 130.22 114.68"><defs><style>.cls-1{fill:#8c8c8c;}</style></defs><g id="Layer_2" data-name="Layer 2"><g id="Layer_1-2" data-name="Layer 1"><path class="cls-1" d="M38.37,18c0-2.59,0-5,0-7.34C38.43,4.56,42.73.09,48.78.05Q65-.06,81.22.06c6,0,10.27,4.42,10.43,10.56.06,2.37,0,4.75,0,7.34h2q13.17,0,26.34,0c6.44,0,10.19,3.74,10.2,10.16q0,12.91,0,25.82c0,2.5-.37,3.11-2.83,3.58-1.46.29-1.79.91-1.79,2.32.06,14.89,0,29.78,0,44.67,0,6.5-3.65,10.17-10.15,10.17H14.66c-6.32,0-10.07-3.78-10.07-10.11,0-14.95,0-29.9,0-44.85,0-1.36-.42-1.91-1.73-2.2C.34,57,0,56.42,0,53.79Q0,40.89,0,28c0-6.15,3.85-10,10-10q13.08,0,26.16,0Zm82.37,41.28-6.08,1.54c-13,3.3-26.09,6.63-39.15,9.86-1.53.38-2.14,1-1.93,2.57a19.24,19.24,0,0,1,0,3.31,5.9,5.9,0,0,1-6,6c-1.57,0-3.14,0-4.7,0-4.14,0-6.45-2.31-6.53-6.47,0-1.62,0-3.24,0-4.93L9.47,59.23v44.88c0,4.22,1.44,5.68,5.62,5.68H115.17c4.16,0,5.57-1.39,5.57-5.52v-45ZM73.6,66a5.85,5.85,0,0,0,.72-.06Q99.15,59.69,124,53.43c1.11-.28,1.42-.79,1.41-1.91-.05-7.86,0-15.71,0-23.56,0-3.48-1.65-5.11-5.15-5.11q-55,0-110.06,0c-3.57,0-5.23,1.67-5.23,5.22q0,11.7,0,23.39c0,.51.05,1,.08,1.58L56.24,66c.06-.58.12-1,.15-1.36.23-3.83,2.43-5.95,6.25-6,1.8,0,3.61-.05,5.41,0a5.74,5.74,0,0,1,5.54,5.45C73.63,64.72,73.6,65.3,73.6,66ZM43.27,17.85H86.78c0-2.48,0-4.85,0-7.22C86.66,7.1,84.44,5,80.87,4.92c-4.06,0-8.13,0-12.19,0-6.57,0-13.13,0-19.69,0-3.15,0-5.55,2.07-5.69,5C43.17,12.49,43.27,15.1,43.27,17.85ZM68.73,70.57c0-1.8,0-3.6,0-5.4,0-1.21-.48-1.67-1.66-1.63-1.44.05-2.9,0-4.35,0-1,0-1.47.44-1.47,1.46,0,3.71,0,7.43,0,11.14,0,1,.42,1.5,1.47,1.48,1.51,0,3,0,4.53,0,1,0,1.48-.44,1.47-1.47C68.71,74.29,68.73,72.43,68.73,70.57Z"/></g></g></svg>