<svg width="23" height="23" viewBox="0 0 23 23" fill="none" xmlns="http://www.w3.org/2000/svg">
<path fill-rule="evenodd" clip-rule="evenodd" d="M21.5895 14.7158C22.0522 14.7499 22.3983 15.1463 22.3636 15.5999L22.1507 18.3553C21.9749 20.6286 20.0179 22.4088 17.6934 22.4088H4.69896C2.37452 22.4088 0.417503 20.6286 0.24163 18.3553L0.0287895 15.5999C-0.00593713 15.1463 0.341329 14.7499 0.803977 14.7158C1.26886 14.6994 1.6699 15.0211 1.70575 15.4758L1.91747 18.2301C2.02725 19.649 3.24828 20.7615 4.69896 20.7615H17.6934C19.1441 20.7615 20.3663 19.649 20.4749 18.2301L20.6878 15.4758C20.7236 15.0211 21.1347 14.6983 21.5895 14.7158ZM12.6415 0.72998C14.3251 0.72998 15.7199 1.96686 15.93 3.5623L18.1362 3.56326C20.4842 3.56326 22.3931 5.44011 22.3931 7.74855V11.5253C22.3931 11.8185 22.234 12.0887 21.9775 12.2358C19.2124 13.8233 15.7098 14.7492 12.0362 14.8727L12.0366 16.848C12.0366 17.3027 11.6602 17.6717 11.1964 17.6717C10.7326 17.6717 10.3563 17.3027 10.3563 16.848L10.3555 14.873C6.68563 14.7506 3.1827 13.8245 0.415599 12.2358C0.15795 12.0887 0 11.8185 0 11.5253V7.73757C0 5.43571 1.91444 3.56326 4.26801 3.56326L6.46285 3.5623C6.67293 1.96686 8.06773 0.72998 9.75134 0.72998H12.6415ZM18.1362 5.21058H4.26801C2.84086 5.21058 1.68032 6.34393 1.68032 7.73757V11.0454C4.33938 12.4618 7.69164 13.2381 11.1808 13.2396L11.1964 13.2382L11.2088 13.2386L11.7422 13.2332C15.0422 13.1561 18.1901 12.3886 20.7127 11.0454V7.74855C20.7127 6.34833 19.5578 5.21058 18.1362 5.21058ZM12.6415 2.3773H9.75134C8.99705 2.3773 8.36033 2.88058 8.17223 3.56258H14.2206C14.0325 2.88058 13.3958 2.3773 12.6415 2.3773Z" fill="white"/>
</svg>
