<svg width="27" height="31" viewBox="0 0 27 31" fill="none" xmlns="http://www.w3.org/2000/svg">
<path fill-rule="evenodd" clip-rule="evenodd" d="M10.5605 27.5482C11.3074 28.3801 12.2662 28.8372 13.2611 28.8372H13.2626C14.2618 28.8372 15.2249 28.3801 15.9733 27.5467C16.3741 27.1041 17.0575 27.068 17.5002 27.4674C17.9443 27.8668 17.9803 28.5517 17.5809 28.9944C16.4159 30.2877 14.8832 31 13.2626 31H13.2597C11.6433 30.9986 10.1135 30.2863 8.95284 28.9929C8.55344 28.5503 8.58949 27.8654 9.03358 27.4674C9.47768 27.0666 10.1611 27.1027 10.5605 27.5482ZM13.3329 0C19.742 0 24.0474 4.99172 24.0474 9.65326C24.0474 12.0511 24.6573 13.0676 25.3047 14.1461C25.9449 15.2102 26.6701 16.4185 26.6701 18.7024C26.1669 24.5376 20.0751 25.0134 13.3329 25.0134C6.59078 25.0134 0.49748 24.5376 1.90849e-05 18.7947C-0.00428724 16.4185 0.720969 15.2102 1.36115 14.1461L1.58716 13.7657C2.14362 12.8093 2.61846 11.769 2.61846 9.65326C2.61846 4.99172 6.92385 0 13.3329 0ZM13.3329 2.16279C8.29362 2.16279 4.78125 6.1106 4.78125 9.65326C4.78125 12.6509 3.94929 14.0365 3.21395 15.2592C2.62422 16.2411 2.1585 17.0168 2.1585 18.7024C2.39929 21.4217 4.19441 22.8506 13.3329 22.8506C22.421 22.8506 24.2723 21.3583 24.5117 18.6087C24.5073 17.0168 24.0416 16.2411 23.4519 15.2592C22.7166 14.0365 21.8846 12.6509 21.8846 9.65326C21.8846 6.1106 18.3722 2.16279 13.3329 2.16279Z" fill="black" fill-opacity="0.3"/>
</svg>
