<svg width="34" height="29" viewBox="0 0 34 29" fill="none" xmlns="http://www.w3.org/2000/svg">
<path fill-rule="evenodd" clip-rule="evenodd" d="M11.5626 17.9249L11.7374 17.925L12.1249 17.926C15.4158 17.9433 23.1252 18.2365 23.1252 23.2221C23.1252 27.8445 16.7936 28.4622 11.8685 28.4855L11.0003 28.4851C7.70935 28.4679 0 28.1747 0 23.1905C0 18.4703 6.59817 17.9249 11.5626 17.9249ZM11.5626 20.0835C5.35193 20.0835 2.20184 21.1297 2.20184 23.1905C2.20184 25.2713 5.35193 26.3276 11.5626 26.3276C17.7732 26.3276 20.9233 25.2814 20.9233 23.2221C20.9233 21.1384 17.7732 20.0835 11.5626 20.0835ZM11.5626 0C15.8679 0 19.3688 3.4336 19.3688 7.65292C19.3688 11.8722 15.8679 15.3058 11.5626 15.3058H11.5171C9.43414 15.2987 7.48185 14.4971 6.01836 13.0523C4.5534 11.606 3.75046 9.68632 3.75775 7.64861C3.75775 3.4336 7.25873 0 11.5626 0ZM11.5626 2.15859C8.47414 2.15859 5.9596 4.6237 5.9596 7.65292C5.95377 9.11933 6.52918 10.4936 7.57873 11.5312C8.62974 12.5673 10.0301 13.1415 11.5215 13.1473L11.5626 14.2136V13.1473C14.6525 13.1473 17.167 10.6821 17.167 7.65292C17.167 4.6237 14.6525 2.15859 11.5626 2.15859Z" fill="#FBFBFE"/>
<path fill-rule="evenodd" clip-rule="evenodd" d="M26.3371 9.70552L28.6974 12.0206L31.0576 9.70552C31.5702 9.20298 32.3994 9.20298 32.912 9.70552C33.4246 10.2081 33.4246 11.021 32.912 11.5236L30.5519 13.8387L32.9117 16.151C33.4243 16.6536 33.4243 17.4665 32.9117 17.9691C32.6563 18.2212 32.3204 18.3464 31.9844 18.3464C31.6485 18.3464 31.3126 18.2212 31.0572 17.9691L28.6974 15.6567L26.3374 17.9691C26.082 18.2212 25.7461 18.3464 25.4102 18.3464C25.0743 18.3464 24.7384 18.2212 24.4829 17.9691C23.9703 17.4665 23.9703 16.6536 24.4829 16.151L26.843 13.8387L24.4826 11.5236C23.97 11.021 23.97 10.2081 24.4826 9.70552C24.9952 9.20298 25.8245 9.20298 26.3371 9.70552Z" fill="#FBFBFE"/>
</svg>
