<svg width="21" height="21" viewBox="0 0 21 21" fill="none" xmlns="http://www.w3.org/2000/svg">
<path d="M17.85 2.06935H15.75V1.03468C15.75 0.760269 15.6394 0.497096 15.4425 0.303058C15.2456 0.109019 14.9785 9.88092e-06 14.7 9.88092e-06C14.4215 9.88092e-06 14.1545 0.109019 13.9575 0.303058C13.7606 0.497096 13.65 0.760269 13.65 1.03468V2.06935H7.35V1.03468C7.35 0.760269 7.23938 0.497096 7.04246 0.303058C6.84555 0.109019 6.57848 9.88092e-06 6.3 9.88092e-06C6.02152 9.88092e-06 5.75445 0.109019 5.55754 0.303058C5.36063 0.497096 5.25 0.760269 5.25 1.03468V2.06935H3.15C2.31457 2.06935 1.51335 2.39638 0.922614 2.9785C0.331874 3.56061 0 4.35013 0 5.17336V17.5894C0 18.4127 0.331874 19.2022 0.922614 19.7843C1.51335 20.3664 2.31457 20.6934 3.15 20.6934H17.85C18.6854 20.6934 19.4867 20.3664 20.0774 19.7843C20.6681 19.2022 21 18.4127 21 17.5894V5.17336C21 4.35013 20.6681 3.56061 20.0774 2.9785C19.4867 2.39638 18.6854 2.06935 17.85 2.06935ZM19.5 17.5894C19.5 18.7226 19.0969 18.7692 18.9 18.9632C18.7031 19.1573 18.2785 19.2153 18 19.2153H3C2.72152 19.2153 2.19691 18.9167 2 18.7226C1.80309 18.5286 1.5 18.0116 1.5 17.7372V10.3467H10.5H19.5V17.5894ZM19.5 8.86862H1.5V4.92701C1.5 4.6526 1.80309 4.33273 2 4.13869C2.19691 3.94466 2.72152 4.02191 3 4.02191H5.25V5.17336C5.25 5.44778 5.36063 5.71095 5.55754 5.90499C5.75445 6.09903 6.02152 6.20804 6.3 6.20804C6.57848 6.20804 6.84555 6.09903 7.04246 5.90499C7.23938 5.71095 7.35 5.44778 7.35 5.17336V3.94161H13.65V5.17336C13.65 5.44778 13.7606 5.71095 13.9575 5.90499C14.1545 6.09903 14.4215 6.20804 14.7 6.20804C14.9785 6.20804 15.2456 6.09903 15.4425 5.90499C15.6394 5.71095 15.75 5.44778 15.75 5.17336V3.94161H18C18.2785 3.94161 18.8568 3.94466 19.0537 4.13869C19.4741 4.55294 19.5 4.89895 19.5 5.17336V8.86862Z" fill="#AEB0B2"/>
</svg>
