<svg xmlns="http://www.w3.org/2000/svg" width="23.618" height="23.938" viewBox="0 0 23.618 23.938">
  <g id="settings_black_24dp" transform="translate(0 0.353)" opacity="0.41">
    <path id="Path_52786" data-name="Path 52786" d="M0,0H23.618V23.618H0Z" transform="translate(0 -0.034)" fill="none"/>
    <path id="Path_52787" data-name="Path 52787" d="M23.225,15.541a8.812,8.812,0,0,0,.075-1.172,7.2,7.2,0,0,0-.087-1.172l2.533-1.97a.611.611,0,0,0,.15-.761L23.5,6.327a.61.61,0,0,0-.736-.274l-2.983,1.2a8.818,8.818,0,0,0-2.022-1.172L17.31,2.911a.6.6,0,0,0-.6-.511H11.919a.591.591,0,0,0-.587.511l-.449,3.167A9.012,9.012,0,0,0,8.862,7.25l-2.983-1.2a.6.6,0,0,0-.736.274L2.759,10.466a.567.567,0,0,0,.15.761L5.442,13.2a6.93,6.93,0,0,0-.025,2.344l-2.533,1.97a.611.611,0,0,0-.15.761l2.4,4.139a.61.61,0,0,0,.736.274l2.983-1.2a8.817,8.817,0,0,0,2.022,1.172l.449,3.167a.613.613,0,0,0,.6.511h4.792a.582.582,0,0,0,.587-.511l.449-3.167a8.561,8.561,0,0,0,2.022-1.172l2.983,1.2a.6.6,0,0,0,.736-.274l2.4-4.139a.577.577,0,0,0-.15-.761Zm-8.91,3.316a4.488,4.488,0,1,1,4.492-4.488A4.5,4.5,0,0,1,14.315,18.857Z" transform="translate(-2.662 -2.753)" fill="#fff"/>
  </g>
</svg>
