<svg width="25" height="31" viewBox="0 0 25 31" fill="none" xmlns="http://www.w3.org/2000/svg">
<path fill-rule="evenodd" clip-rule="evenodd" d="M24.4371 24.4917C24.4371 29.4767 17.4639 30.053 12.2201 30.053L11.8448 30.0526C8.50394 30.0447 0 29.8379 0 24.4614C0 19.5781 6.69298 18.9255 11.8969 18.9009L12.5953 18.9005C15.936 18.9084 24.4371 19.1152 24.4371 24.4917ZM12.2201 21.1688C5.64645 21.1688 2.31412 22.2759 2.31412 24.4614C2.31412 26.6666 5.64645 27.7843 12.2201 27.7843C18.7922 27.7843 22.123 26.6772 22.123 24.4917C22.123 22.2865 18.7922 21.1688 12.2201 21.1688ZM12.2201 0C16.7373 0 20.4105 3.60265 20.4105 8.0311C20.4105 12.4595 16.7373 16.0607 12.2201 16.0607H12.1707C7.66282 16.0471 4.01114 12.4429 4.02652 8.02656C4.02652 3.60265 7.70139 0 12.2201 0ZM12.2201 2.15978C8.91708 2.15978 6.22958 4.79295 6.22958 8.0311C6.21881 11.2587 8.88622 13.8903 12.1754 13.9024L12.2201 14.9823V13.9024C15.5216 13.9024 18.2075 11.2677 18.2075 8.0311C18.2075 4.79295 15.5216 2.15978 12.2201 2.15978Z" fill="#FBFBFE"/>
</svg>
