<svg width="43" height="43" viewBox="0 0 43 43" fill="none" xmlns="http://www.w3.org/2000/svg">
<circle cx="21.5" cy="21.5" r="21.5" fill="#AEB0B2" fill-opacity="0.15"/>
<path d="M28.85 13.0694H26.75V12.0347C26.75 11.7603 26.6394 11.4971 26.4425 11.3031C26.2456 11.109 25.9785 11 25.7 11C25.4215 11 25.1545 11.109 24.9575 11.3031C24.7606 11.4971 24.65 11.7603 24.65 12.0347V13.0694H18.35V12.0347C18.35 11.7603 18.2394 11.4971 18.0425 11.3031C17.8456 11.109 17.5785 11 17.3 11C17.0215 11 16.7545 11.109 16.5575 11.3031C16.3606 11.4971 16.25 11.7603 16.25 12.0347V13.0694H14.15C13.3146 13.0694 12.5134 13.3964 11.9226 13.9785C11.3319 14.5606 11 15.3501 11 16.1734V28.5894C11 29.4127 11.3319 30.2022 11.9226 30.7843C12.5134 31.3664 13.3146 31.6934 14.15 31.6934H28.85C29.6854 31.6934 30.4867 31.3664 31.0774 30.7843C31.6681 30.2022 32 29.4127 32 28.5894V16.1734C32 15.3501 31.6681 14.5606 31.0774 13.9785C30.4867 13.3964 29.6854 13.0694 28.85 13.0694ZM30.5 28.5894C30.5 29.7226 30.0969 29.7692 29.9 29.9632C29.7031 30.1573 29.2785 30.2153 29 30.2153H14C13.7215 30.2153 13.1969 29.9167 13 29.7226C12.8031 29.5286 12.5 29.0116 12.5 28.7372V21.3467H21.5H30.5V28.5894ZM30.5 19.8686H12.5V15.927C12.5 15.6526 12.8031 15.3327 13 15.1387C13.1969 14.9447 13.7215 15.0219 14 15.0219H16.25V16.1734C16.25 16.4478 16.3606 16.7109 16.5575 16.905C16.7545 17.099 17.0215 17.208 17.3 17.208C17.5785 17.208 17.8456 17.099 18.0425 16.905C18.2394 16.7109 18.35 16.4478 18.35 16.1734V14.9416H24.65V16.1734C24.65 16.4478 24.7606 16.7109 24.9575 16.905C25.1545 17.099 25.4215 17.208 25.7 17.208C25.9785 17.208 26.2456 17.099 26.4425 16.905C26.6394 16.7109 26.75 16.4478 26.75 16.1734V14.9416H29C29.2785 14.9416 29.8568 14.9447 30.0537 15.1387C30.4741 15.5529 30.5 15.899 30.5 16.1734V19.8686Z" fill="#AEB0B2"/>
</svg>
