<svg width="43" height="43" viewBox="0 0 43 43" fill="none" xmlns="http://www.w3.org/2000/svg">
<circle cx="21.5" cy="21.5" r="21.5" fill="#28B446" fill-opacity="0.15"/>
<path fill-rule="evenodd" clip-rule="evenodd" d="M32.5895 23.9859C33.0522 24.0199 33.3983 24.4163 33.3636 24.8699L33.1507 27.6253C32.9749 29.8986 31.0179 31.6788 28.6934 31.6788H15.699C13.3745 31.6788 11.4175 29.8986 11.2416 27.6253L11.0288 24.8699C10.9941 24.4163 11.3413 24.0199 11.804 23.9859C12.2689 23.9694 12.6699 24.2912 12.7057 24.7458L12.9175 27.5001C13.0272 28.919 14.2483 30.0315 15.699 30.0315H28.6934C30.1441 30.0315 31.3663 28.919 31.4749 27.5001L31.6877 24.7458C31.7236 24.2912 32.1347 23.9683 32.5895 23.9859ZM23.6415 10C25.3251 10 26.7199 11.2369 26.93 12.8323L29.1362 12.8333C31.4842 12.8333 33.3931 14.7101 33.3931 17.0186V20.7953C33.3931 21.0885 33.234 21.3587 32.9775 21.5059C30.2124 23.0933 26.7098 24.0193 23.0362 24.1428L23.0366 26.118C23.0366 26.5727 22.6602 26.9417 22.1964 26.9417C21.7326 26.9417 21.3563 26.5727 21.3563 26.118L21.3555 24.143C17.6856 24.0206 14.1827 23.0945 11.4156 21.5059C11.1579 21.3587 11 21.0885 11 20.7953V17.0076C11 14.7057 12.9144 12.8333 15.268 12.8333L17.4629 12.8323C17.6729 11.2369 19.0677 10 20.7513 10H23.6415ZM29.1362 14.4806H15.268C13.8409 14.4806 12.6803 15.614 12.6803 17.0076V20.3154C15.3394 21.7318 18.6916 22.5081 22.1808 22.5096L22.1964 22.5082L22.2088 22.5086L22.7422 22.5032C26.0422 22.4261 29.1901 21.6586 31.7127 20.3154V17.0186C31.7127 15.6183 30.5578 14.4806 29.1362 14.4806ZM23.6415 11.6473H20.7513C19.9971 11.6473 19.3603 12.1506 19.1722 12.8326H25.2206C25.0325 12.1506 24.3958 11.6473 23.6415 11.6473Z" fill="#28B446"/>
</svg>
