<svg width="26" height="16" viewBox="0 0 26 16" fill="none" xmlns="http://www.w3.org/2000/svg">
<path d="M16 13.7143C16.3031 13.7143 16.5938 13.8347 16.8081 14.049C17.0224 14.2633 17.1429 14.554 17.1429 14.8571C17.1429 15.1602 17.0224 15.4509 16.8081 15.6653C16.5938 15.8796 16.3031 16 16 16H9.14286C8.83975 16 8.54906 15.8796 8.33473 15.6653C8.12041 15.4509 8 15.1602 8 14.8571C8 14.554 8.12041 14.2633 8.33473 14.049C8.54906 13.8347 8.83975 13.7143 9.14286 13.7143H16ZM20.5714 6.85714C20.8745 6.85714 21.1652 6.97755 21.3796 7.19188C21.5939 7.40621 21.7143 7.6969 21.7143 8C21.7143 8.30311 21.5939 8.59379 21.3796 8.80812C21.1652 9.02245 20.8745 9.14286 20.5714 9.14286H4.57143C4.26832 9.14286 3.97763 9.02245 3.76331 8.80812C3.54898 8.59379 3.42857 8.30311 3.42857 8C3.42857 7.6969 3.54898 7.40621 3.76331 7.19188C3.97763 6.97755 4.26832 6.85714 4.57143 6.85714H20.5714ZM24 0C24.3031 0 24.5938 0.120408 24.8081 0.334735C25.0224 0.549063 25.1429 0.839753 25.1429 1.14286C25.1429 1.44596 25.0224 1.73665 24.8081 1.95098C24.5938 2.16531 24.3031 2.28571 24 2.28571H1.14286C0.839752 2.28571 0.549062 2.16531 0.334735 1.95098C0.120408 1.73665 0 1.44596 0 1.14286C0 0.839753 0.120408 0.549063 0.334735 0.334735C0.549062 0.120408 0.839752 0 1.14286 0H24Z" fill="#1A77F2"/>
</svg>
