<svg width="28" height="28" viewBox="0 0 28 28" fill="none" xmlns="http://www.w3.org/2000/svg">
<path fill-rule="evenodd" clip-rule="evenodd" d="M14 27C21.1797 27 27 21.1797 27 14C27 6.8203 21.1797 1 14 1C6.8203 1 1 6.8203 1 14C1 21.1797 6.8203 27 14 27Z" stroke="#EBEBEB" stroke-width="2"/>
<path fill-rule="evenodd" clip-rule="evenodd" d="M13.8568 -3.24249e-05C13.3077 -3.24249e-05 12.8626 0.444117 12.8626 0.992004C12.8626 1.53989 13.3077 1.98404 13.8568 1.98404C20.3363 1.98404 25.589 7.22503 25.589 13.6901C25.589 20.1552 20.3363 25.3962 13.8568 25.3962C10.7636 25.3962 7.86215 24.1978 5.6867 22.0912C5.29267 21.7096 4.66321 21.719 4.28078 22.1122C3.89835 22.5053 3.90776 23.1334 4.3018 23.515C6.84467 25.9774 10.2412 27.3802 13.8568 27.3802C21.4345 27.3802 27.5775 21.251 27.5775 13.6901C27.5775 6.12925 21.4345 -3.24249e-05 13.8568 -3.24249e-05Z" fill="#AEB0B2"/>
</svg>
