<svg width="21" height="28" viewBox="0 0 21 28" fill="none" xmlns="http://www.w3.org/2000/svg">
<path d="M6.125 12.2499C5.89294 12.2499 5.67038 12.3421 5.50628 12.5062C5.34219 12.6703 5.25 12.8928 5.25 13.1249C5.25 13.3569 5.34219 13.5795 5.50628 13.7436C5.67038 13.9077 5.89294 13.9999 6.125 13.9999H14.875C15.1071 13.9999 15.3296 13.9077 15.4937 13.7436C15.6578 13.5795 15.75 13.3569 15.75 13.1249C15.75 12.8928 15.6578 12.6703 15.4937 12.5062C15.3296 12.3421 15.1071 12.2499 14.875 12.2499H6.125ZM5.25 16.6249C5.25 16.3928 5.34219 16.1703 5.50628 16.0062C5.67038 15.8421 5.89294 15.7499 6.125 15.7499H14.875C15.1071 15.7499 15.3296 15.8421 15.4937 16.0062C15.6578 16.1703 15.75 16.3928 15.75 16.6249C15.75 16.8569 15.6578 17.0795 15.4937 17.2436C15.3296 17.4077 15.1071 17.4999 14.875 17.4999H6.125C5.89294 17.4999 5.67038 17.4077 5.50628 17.2436C5.34219 17.0795 5.25 16.8569 5.25 16.6249ZM5.25 20.1249C5.25 19.8928 5.34219 19.6703 5.50628 19.5062C5.67038 19.3421 5.89294 19.2499 6.125 19.2499H9.625C9.85706 19.2499 10.0796 19.3421 10.2437 19.5062C10.4078 19.6703 10.5 19.8928 10.5 20.1249C10.5 20.3569 10.4078 20.5795 10.2437 20.7436C10.0796 20.9077 9.85706 20.9999 9.625 20.9999H6.125C5.89294 20.9999 5.67038 20.9077 5.50628 20.7436C5.34219 20.5795 5.25 20.3569 5.25 20.1249Z" fill="#1A77F2"/>
<path d="M13.125 0H3.5C2.57174 0 1.6815 0.368749 1.02513 1.02513C0.368749 1.6815 0 2.57174 0 3.5V24.5C0 25.4283 0.368749 26.3185 1.02513 26.9749C1.6815 27.6313 2.57174 28 3.5 28H17.5C18.4283 28 19.3185 27.6313 19.9749 26.9749C20.6313 26.3185 21 25.4283 21 24.5V7.875L13.125 0ZM13.125 1.75V5.25C13.125 5.94619 13.4016 6.61387 13.8938 7.10616C14.3861 7.59844 15.0538 7.875 15.75 7.875H19.25V24.5C19.25 24.9641 19.0656 25.4092 18.7374 25.7374C18.4092 26.0656 17.9641 26.25 17.5 26.25H3.5C3.03587 26.25 2.59075 26.0656 2.26256 25.7374C1.93437 25.4092 1.75 24.9641 1.75 24.5V3.5C1.75 3.03587 1.93437 2.59075 2.26256 2.26256C2.59075 1.93437 3.03587 1.75 3.5 1.75H13.125Z" fill="#1A77F2"/>
</svg>
