<svg width="43" height="43" viewBox="0 0 43 43" fill="none" xmlns="http://www.w3.org/2000/svg">
<circle cx="21.5" cy="21.5" r="21.5" fill="#FFA258" fill-opacity="0.15"/>
<path d="M28.4335 18.7989C28.4335 16.8896 27.675 15.0585 26.325 13.7084C24.9749 12.3583 23.1438 11.5998 21.2344 11.5998C19.3251 11.5998 17.494 12.3583 16.1439 13.7084C14.7938 15.0585 14.0353 16.8896 14.0353 18.7989C14.0353 21.7521 16.3982 25.6012 21.2344 30.2118C26.0706 25.6012 28.4335 21.7521 28.4335 18.7989ZM21.2344 32.3972C15.368 27.065 12.4355 22.5312 12.4355 18.7989C12.4355 16.4653 13.3626 14.2272 15.0127 12.5771C16.6628 10.927 18.9008 10 21.2344 10C23.568 10 25.8061 10.927 27.4562 12.5771C29.1063 14.2272 30.0333 16.4653 30.0333 18.7989C30.0333 22.5312 27.1009 27.065 21.2344 32.3972Z" fill="#FFA258"/>
<path d="M21.2358 21.1985C21.8723 21.1985 22.4826 20.9457 22.9327 20.4957C23.3827 20.0456 23.6355 19.4352 23.6355 18.7988C23.6355 18.1624 23.3827 17.552 22.9327 17.102C22.4826 16.6519 21.8723 16.3991 21.2358 16.3991C20.5994 16.3991 19.989 16.6519 19.539 17.102C19.0889 17.552 18.8361 18.1624 18.8361 18.7988C18.8361 19.4352 19.0889 20.0456 19.539 20.4957C19.989 20.9457 20.5994 21.1985 21.2358 21.1985ZM21.2358 22.7983C20.1751 22.7983 19.1578 22.3769 18.4078 21.6269C17.6577 20.8768 17.2363 19.8595 17.2363 18.7988C17.2363 17.7381 17.6577 16.7208 18.4078 15.9707C19.1578 15.2207 20.1751 14.7993 21.2358 14.7993C22.2966 14.7993 23.3138 15.2207 24.0639 15.9707C24.8139 16.7208 25.2353 17.7381 25.2353 18.7988C25.2353 19.8595 24.8139 20.8768 24.0639 21.6269C23.3138 22.3769 22.2966 22.7983 21.2358 22.7983Z" fill="#FFA258"/>
</svg>
