<svg width="43" height="43" viewBox="0 0 43 43" fill="none" xmlns="http://www.w3.org/2000/svg">
<circle cx="21.5" cy="21.5" r="21.5" fill="#1A77F2" fill-opacity="0.15"/>
<path d="M22 11.83C22.8476 11.83 23.6762 12.0984 24.381 12.6011C25.0858 13.1038 25.6351 13.8183 25.9595 14.6543C26.2839 15.4903 26.3687 16.4102 26.2034 17.2977C26.038 18.1852 25.6298 19.0004 25.0305 19.6402C24.4311 20.28 23.6674 20.7158 22.8361 20.8923C22.0048 21.0688 21.143 20.9782 20.3599 20.6319C19.5768 20.2857 18.9075 19.6993 18.4366 18.9469C17.9656 18.1945 17.7143 17.31 17.7143 16.4051C17.7143 15.1917 18.1658 14.028 18.9695 13.17C19.7733 12.3121 20.8634 11.83 22 11.83ZM22 10C20.8133 10 19.6533 10.3757 18.6666 11.0795C17.6799 11.7833 16.9109 12.7836 16.4567 13.954C16.0026 15.1244 15.8838 16.4122 16.1153 17.6547C16.3468 18.8972 16.9182 20.0385 17.7574 20.9342C18.5965 21.83 19.6656 22.44 20.8295 22.6872C21.9933 22.9343 23.1997 22.8075 24.2961 22.3227C25.3925 21.8379 26.3295 21.0169 26.9888 19.9636C27.6481 18.9103 28 17.6719 28 16.4051C28 14.7064 27.3679 13.0772 26.2426 11.876C25.1174 10.6748 23.5913 10 22 10Z" fill="#1A77F2"/>
<path d="M32 33.6496H30V29.9544C30 29.4691 29.8707 28.9886 29.6194 28.5403C29.3681 28.0919 28.9998 27.6846 28.5355 27.3414C28.0712 26.9983 27.52 26.7261 26.9134 26.5404C26.3068 26.3547 25.6566 26.2591 25 26.2591H19C17.6739 26.2591 16.4021 26.6484 15.4645 27.3414C14.5268 28.0344 14 28.9743 14 29.9544V33.6496H12V29.9544C12 28.5823 12.7375 27.2664 14.0503 26.2962C15.363 25.3261 17.1435 24.781 19 24.781H25C26.8565 24.781 28.637 25.3261 29.9497 26.2962C31.2625 27.2664 32 28.5823 32 29.9544V33.6496Z" fill="#1A77F2"/>
</svg>
